M48
;GenerationSoftware,Autodesk,EAGLE,9.6.2*%
;CreationDate,2022-09-29T19:22:01Z*%
FMAT,2
ICI,OFF
METRIC,TZ,000.000
T11C0.200
T10C0.350
T9C0.406
T8C0.450
T7C0.650
T6C0.850
T5C1.000
T4C1.016
T3C1.300
T2C2.311
T1C2.750
%
G90
M71
T1
X3926Y55234
X61926Y55234
X61926Y6234
X3926Y6234
T2
X74978Y19520
X74978Y6388
T3
X80772Y49403
X80772Y54403
T4
X5334Y32512
X6350Y23368
X41816Y56504
X41816Y53964
X39276Y56504
X36736Y56504
X34196Y56504
X31656Y56504
X29116Y56504
X9779Y50419
X75819Y38608
X78359Y38608
X26576Y56504
X39276Y53964
X36736Y53964
X34196Y53964
X31656Y53964
X29116Y53964
X26576Y53964
X46896Y53964
X24036Y53964
X21496Y56504
X18956Y56504
X16416Y56504
X13876Y56504
X11336Y56504
X8796Y56504
X21496Y53964
X18956Y53964
X16416Y53964
X13876Y53964
X46228Y15494
X43688Y15494
X46228Y12954
X43688Y12954
X39497Y41148
X36957Y41148
X12319Y50419
X9779Y47879
X6325Y48209
X6325Y41707
X1803Y48209
X1803Y41707
X5334Y37592
X2794Y37592
X5334Y35052
X2794Y35052
X11336Y53964
X2794Y32512
X3810Y25908
X6350Y25908
X3810Y23368
X44356Y53964
X3810Y20828
X6350Y20828
X3810Y18288
X6350Y18288
X3810Y15748
X6350Y15748
X57056Y56504
X54516Y56504
X51976Y56504
X49436Y56504
X46896Y56504
X44356Y56504
X57056Y53964
X54516Y53964
X51976Y53964
X49436Y53964
X8796Y53964
X12319Y47879
X9779Y45339
X12319Y45339
X24036Y56504
T5
X67564Y7620
X19558Y44069
T6
X70231Y52095
X70231Y48895
X75311Y48895
X75311Y52095
X75311Y54295
X75311Y56495
X70231Y56495
X70231Y54295
T7
X77363Y27175
X77363Y35715
X82093Y27175
X82093Y35715
T8
X76213Y34245
X76923Y33845
X76923Y33045
X76213Y32645
X76923Y32245
X76213Y31845
X76213Y31045
X76923Y30645
X76213Y30245
X76923Y29845
X76923Y29045
X76213Y28645
X76213Y29445
X76213Y33445
T9
X75311Y35052
T10
X69215Y38100
X42672Y18542
X20701Y31496
X47498Y18034
X23114Y27559
X73533Y32258
X61722Y13716
X35687Y10414
X35052Y9779
X61595Y11811
X11303Y41656
X25654Y34290
X11303Y13589
X38481Y13589
X10795Y12954
X36195Y12954
X52324Y46482
X61595Y45974
X44196Y47752
X38989Y46632
X47752Y43307
X50800Y46228
X46736Y46632
X44958Y51689
X56642Y51308
X56642Y45974
X20193Y14986
X50038Y20066
X20701Y14224
X51435Y24003
X49403Y21590
X50927Y35814
X55880Y40005
X50038Y21082
X51816Y26543
X56007Y30734
X51399Y27087
X54229Y33909
X48133Y18542
X36703Y30099
X48768Y19050
X37211Y30734
X37691Y31369
X49403Y19558
X61341Y40005
X50673Y20574
X11303Y25654
X22987Y25654
X61341Y34671
X52451Y25400
X61341Y29337
X53467Y22098
X51562Y45974
X46736Y45466
X57150Y42799
X59309Y27178
X59372Y21400
X65024Y35179
X39116Y48768
X61023Y26225
X60833Y21209
X64516Y48514
X25400Y14605
X46736Y37211
X29210Y49403
X8128Y43434
X16764Y50292
X54229Y28194
X45339Y19304
X18669Y40640
X30734Y41275
X41275Y16002
X22987Y19558
X33401Y29845
X58547Y51054
T11
X51816Y42926
X50986Y42926
X52646Y42926
X51816Y43756
X51816Y42096
M30