G04 EAGLE Gerber RS-274X export*
G75*
%MOMM*%
%FSLAX34Y34*%
%LPD*%
%INSoldermask Bottom*%
%IPPOS*%
%AMOC8*
5,1,8,0,0,1.08239X$1,22.5*%
G01*
%ADD10C,6.403200*%
%ADD11R,1.625600X1.625600*%
%ADD12C,1.625600*%
%ADD13P,2.254402X8X112.500000*%
%ADD14C,2.082800*%
%ADD15C,3.439163*%
%ADD16C,1.253200*%
%ADD17C,0.856400*%
%ADD18R,2.235200X2.235200*%
%ADD19C,2.235200*%
%ADD20P,1.507986X8X112.500000*%
%ADD21C,0.756400*%
%ADD22C,1.603200*%
%ADD23C,0.863600*%


D10*
X39260Y62340D03*
X619260Y62340D03*
X619260Y552340D03*
X39260Y552340D03*
D11*
X87960Y539640D03*
D12*
X113360Y539640D03*
X138760Y539640D03*
X164160Y539640D03*
X189560Y539640D03*
X214960Y539640D03*
X87960Y565040D03*
X113360Y565040D03*
X138760Y565040D03*
X164160Y565040D03*
X189560Y565040D03*
X214960Y565040D03*
X240360Y539640D03*
X240360Y565040D03*
X265760Y539640D03*
X291160Y539640D03*
X316560Y539640D03*
X341960Y539640D03*
X367360Y539640D03*
X392760Y539640D03*
X265760Y565040D03*
X291160Y565040D03*
X316560Y565040D03*
X341960Y565040D03*
X367360Y565040D03*
X392760Y565040D03*
X418160Y539640D03*
X418160Y565040D03*
X443560Y539640D03*
X468960Y539640D03*
X494360Y539640D03*
X519760Y539640D03*
X545160Y539640D03*
X570560Y539640D03*
X443560Y565040D03*
X468960Y565040D03*
X494360Y565040D03*
X519760Y565040D03*
X545160Y565040D03*
X570560Y565040D03*
D13*
X63500Y157480D03*
X38100Y157480D03*
X63500Y182880D03*
X38100Y182880D03*
X63500Y208280D03*
X38100Y208280D03*
X63500Y233680D03*
X38100Y233680D03*
X63500Y259080D03*
X38100Y259080D03*
D14*
X27940Y325120D03*
X53340Y325120D03*
X27940Y350520D03*
X53340Y350520D03*
X27940Y375920D03*
X53340Y375920D03*
X18034Y417068D03*
X18034Y482092D03*
X63246Y417068D03*
X63246Y482092D03*
D15*
X749780Y195199D03*
X749780Y63881D03*
D14*
X369570Y411480D03*
X394970Y411480D03*
X436880Y129540D03*
X462280Y129540D03*
X436880Y154940D03*
X462280Y154940D03*
D16*
X768378Y271752D02*
X778878Y271752D01*
X778878Y357152D02*
X768378Y357152D01*
X815678Y271752D02*
X826178Y271752D01*
X826178Y357152D02*
X815678Y357152D01*
D17*
X762128Y342452D03*
X769228Y338452D03*
X769228Y330452D03*
X762128Y326452D03*
X769228Y322452D03*
X762128Y318452D03*
X762128Y310452D03*
X769228Y306452D03*
X762128Y302452D03*
X769228Y298452D03*
X769228Y290452D03*
X762128Y286452D03*
X762128Y294452D03*
X762128Y334452D03*
D14*
X783590Y386080D03*
X758190Y386080D03*
D18*
X807720Y494030D03*
D19*
X807720Y544030D03*
D20*
X753110Y488950D03*
X753110Y520950D03*
X753110Y542950D03*
X753110Y564950D03*
X702310Y564950D03*
X702310Y542950D03*
X702310Y520950D03*
X702310Y488950D03*
D14*
X97790Y504190D03*
X123190Y504190D03*
X97790Y478790D03*
X123190Y478790D03*
X97790Y453390D03*
X123190Y453390D03*
D21*
X692150Y381000D03*
X585470Y510540D03*
X334010Y298450D03*
X229870Y195580D03*
X412750Y160020D03*
X307340Y412750D03*
X186690Y406400D03*
X453390Y193040D03*
X542290Y281940D03*
X167640Y502920D03*
X81280Y434340D03*
X292100Y494030D03*
X467360Y372110D03*
X254000Y146050D03*
X645160Y485140D03*
D22*
X195580Y440690D03*
D21*
X608330Y212090D03*
X610235Y262255D03*
X391160Y487680D03*
X650240Y351790D03*
X593725Y213995D03*
X593090Y271780D03*
X571500Y427990D03*
X467360Y454660D03*
X515620Y459740D03*
X534670Y220980D03*
X613410Y293370D03*
D23*
X753110Y350520D03*
D21*
X524510Y254000D03*
X613410Y346710D03*
X229870Y256540D03*
X113030Y256540D03*
X506730Y205740D03*
X613410Y400050D03*
X494030Y195580D03*
X376908Y313690D03*
X372110Y307340D03*
X487680Y190500D03*
X367030Y300990D03*
X481330Y185420D03*
X542290Y339090D03*
X513985Y270875D03*
X560070Y307340D03*
X518160Y265430D03*
X500380Y210820D03*
X558800Y400050D03*
X509270Y358140D03*
X494030Y215900D03*
X514350Y240030D03*
X207010Y142240D03*
X500380Y200660D03*
X201930Y149860D03*
X566420Y459740D03*
X566420Y513080D03*
X449580Y516890D03*
X467360Y466316D03*
X508000Y462280D03*
X477520Y433070D03*
X389890Y466316D03*
X441960Y477520D03*
X615950Y459740D03*
X523240Y464820D03*
X361950Y129540D03*
X107950Y129540D03*
X384810Y135890D03*
X113030Y135890D03*
X256540Y342900D03*
X113030Y416560D03*
X615950Y118110D03*
X350520Y97790D03*
X356870Y104140D03*
X617220Y137160D03*
X735330Y322580D03*
X231140Y275590D03*
X474980Y180340D03*
X207010Y314960D03*
X426720Y185420D03*
D22*
X675640Y76200D03*
M02*
