G04 EAGLE Gerber RS-274X export*
G75*
%MOMM*%
%FSLAX34Y34*%
%LPD*%
%INSoldermask Top*%
%IPPOS*%
%AMOC8*
5,1,8,0,0,1.08239X$1,22.5*%
G01*
%ADD10R,0.803200X0.903200*%
%ADD11R,0.711200X1.168400*%
%ADD12R,1.103200X0.903200*%
%ADD13R,0.903200X1.103200*%
%ADD14R,1.203200X1.303200*%
%ADD15R,2.403200X0.803200*%
%ADD16R,1.253200X0.703200*%
%ADD17R,1.203200X0.903200*%
%ADD18C,6.403200*%
%ADD19R,1.625600X1.625600*%
%ADD20C,1.625600*%
%ADD21R,0.803200X1.703200*%
%ADD22R,1.003200X1.103200*%
%ADD23R,0.738300X0.847200*%
%ADD24P,2.254402X8X112.500000*%
%ADD25C,2.082800*%
%ADD26R,1.303200X1.353200*%
%ADD27R,0.903200X0.803200*%
%ADD28C,3.439163*%
%ADD29R,3.203200X1.103200*%
%ADD30C,0.344606*%
%ADD31C,0.362303*%
%ADD32C,1.253200*%
%ADD33R,1.403200X0.503200*%
%ADD34C,0.856400*%
%ADD35R,1.203200X0.403200*%
%ADD36R,2.235200X2.235200*%
%ADD37C,2.235200*%
%ADD38R,2.595200X1.768500*%
%ADD39P,1.507986X8X112.500000*%
%ADD40R,1.103200X1.003200*%
%ADD41R,0.847200X0.738300*%
%ADD42C,0.505344*%
%ADD43R,1.043200X0.623200*%
%ADD44R,1.803200X2.703200*%
%ADD45R,1.124100X1.173400*%
%ADD46R,0.832300X0.763200*%
%ADD47R,0.838200X1.473200*%
%ADD48R,1.253200X0.543200*%
%ADD49R,0.543200X1.253200*%
%ADD50R,2.363200X2.363200*%
%ADD51C,0.756400*%
%ADD52C,1.603200*%
%ADD53C,0.863600*%


D10*
X396160Y363220D03*
X386160Y363220D03*
D11*
X263525Y371983D03*
X263525Y354457D03*
X274955Y354457D03*
X274955Y371983D03*
D12*
X287020Y356720D03*
X287020Y369720D03*
D13*
X262740Y386080D03*
X275740Y386080D03*
D14*
X236220Y349640D03*
X236220Y366640D03*
D13*
X420220Y312420D03*
X433220Y312420D03*
X153820Y129540D03*
X140820Y129540D03*
X158900Y241300D03*
X145900Y241300D03*
X158900Y185420D03*
X145900Y185420D03*
D12*
X302260Y356720D03*
X302260Y369720D03*
X401320Y103020D03*
X401320Y90020D03*
D13*
X420220Y195580D03*
X433220Y195580D03*
X420220Y246380D03*
X433220Y246380D03*
X158900Y302260D03*
X145900Y302260D03*
D12*
X256540Y91590D03*
X256540Y78590D03*
X353060Y359260D03*
X353060Y372260D03*
X180340Y364340D03*
X180340Y377340D03*
X193040Y364340D03*
X193040Y377340D03*
X218440Y364340D03*
X218440Y377340D03*
D13*
X203050Y347980D03*
X216050Y347980D03*
D12*
X367030Y96670D03*
X367030Y83670D03*
D13*
X153820Y142240D03*
X140820Y142240D03*
D15*
X577250Y280670D03*
X629250Y280670D03*
X577250Y293370D03*
X577250Y267970D03*
X577250Y255270D03*
X629250Y293370D03*
X629250Y267970D03*
X629250Y255270D03*
D13*
X650090Y255270D03*
X663090Y255270D03*
D12*
X558800Y267820D03*
X558800Y280820D03*
D16*
X651500Y279320D03*
X651500Y269320D03*
X682000Y269320D03*
X682000Y279320D03*
D17*
X723470Y274320D03*
X701470Y264820D03*
X701470Y283820D03*
D15*
X577250Y334010D03*
X629250Y334010D03*
X577250Y346710D03*
X577250Y321310D03*
X577250Y308610D03*
X629250Y346710D03*
X629250Y321310D03*
X629250Y308610D03*
D13*
X650090Y308610D03*
X663090Y308610D03*
D12*
X558800Y321160D03*
X558800Y334160D03*
D16*
X651500Y332660D03*
X651500Y322660D03*
X682000Y322660D03*
X682000Y332660D03*
D17*
X723470Y327660D03*
X701470Y318160D03*
X701470Y337160D03*
D15*
X577250Y387350D03*
X629250Y387350D03*
X577250Y400050D03*
X577250Y374650D03*
X577250Y361950D03*
X629250Y400050D03*
X629250Y374650D03*
X629250Y361950D03*
D13*
X650090Y361950D03*
X663090Y361950D03*
D12*
X558800Y374500D03*
X558800Y387500D03*
D16*
X651500Y386000D03*
X651500Y376000D03*
X682000Y376000D03*
X682000Y386000D03*
D17*
X723470Y381000D03*
X701470Y371500D03*
X701470Y390500D03*
D15*
X577250Y227330D03*
X629250Y227330D03*
X577250Y240030D03*
X577250Y214630D03*
X577250Y201930D03*
X629250Y240030D03*
X629250Y214630D03*
X629250Y201930D03*
D13*
X650090Y201930D03*
X663090Y201930D03*
D12*
X558800Y214480D03*
X558800Y227480D03*
D16*
X651500Y225980D03*
X651500Y215980D03*
X682000Y215980D03*
X682000Y225980D03*
D17*
X723470Y220980D03*
X701470Y211480D03*
X701470Y230480D03*
D18*
X39260Y62340D03*
X619260Y62340D03*
X619260Y552340D03*
X39260Y552340D03*
D19*
X87960Y539640D03*
D20*
X113360Y539640D03*
X138760Y539640D03*
X164160Y539640D03*
X189560Y539640D03*
X214960Y539640D03*
X87960Y565040D03*
X113360Y565040D03*
X138760Y565040D03*
X164160Y565040D03*
X189560Y565040D03*
X214960Y565040D03*
X240360Y539640D03*
X240360Y565040D03*
X265760Y539640D03*
X291160Y539640D03*
X316560Y539640D03*
X341960Y539640D03*
X367360Y539640D03*
X392760Y539640D03*
X265760Y565040D03*
X291160Y565040D03*
X316560Y565040D03*
X341960Y565040D03*
X367360Y565040D03*
X392760Y565040D03*
X418160Y539640D03*
X418160Y565040D03*
X443560Y539640D03*
X468960Y539640D03*
X494360Y539640D03*
X519760Y539640D03*
X545160Y539640D03*
X570560Y539640D03*
X443560Y565040D03*
X468960Y565040D03*
X494360Y565040D03*
X519760Y565040D03*
X545160Y565040D03*
X570560Y565040D03*
D21*
X629920Y498170D03*
X617220Y498170D03*
X604520Y498170D03*
X591820Y498170D03*
X579120Y498170D03*
X566420Y498170D03*
X553720Y498170D03*
X553720Y444170D03*
X566420Y444170D03*
X579120Y444170D03*
X591820Y444170D03*
X604520Y444170D03*
X617220Y444170D03*
X629920Y444170D03*
D22*
X476860Y496410D03*
X457860Y496410D03*
X467360Y475410D03*
X514960Y496410D03*
X495960Y496410D03*
X505460Y475410D03*
X400660Y496410D03*
X381660Y496410D03*
X391160Y475410D03*
X438760Y496410D03*
X419760Y496410D03*
X429260Y475410D03*
D23*
X462285Y509270D03*
X472435Y509270D03*
X457195Y468630D03*
X447045Y468630D03*
X500385Y509270D03*
X510535Y509270D03*
X495295Y468630D03*
X485145Y468630D03*
X386085Y509270D03*
X396235Y509270D03*
X380995Y468630D03*
X370845Y468630D03*
X424185Y509270D03*
X434335Y509270D03*
X416555Y468630D03*
X406405Y468630D03*
D24*
X63500Y157480D03*
X38100Y157480D03*
X63500Y182880D03*
X38100Y182880D03*
X63500Y208280D03*
X38100Y208280D03*
X63500Y233680D03*
X38100Y233680D03*
X63500Y259080D03*
X38100Y259080D03*
D25*
X27940Y325120D03*
X53340Y325120D03*
X27940Y350520D03*
X53340Y350520D03*
X27940Y375920D03*
X53340Y375920D03*
X18034Y417068D03*
X18034Y482092D03*
X63246Y417068D03*
X63246Y482092D03*
D12*
X251460Y351640D03*
X251460Y364640D03*
D26*
X525900Y52290D03*
X540900Y52290D03*
X540900Y79790D03*
X525900Y79790D03*
D22*
X573380Y137000D03*
X554380Y137000D03*
X563880Y116000D03*
X542900Y137000D03*
X523900Y137000D03*
X533400Y116000D03*
X512420Y137000D03*
X493420Y137000D03*
X502920Y116000D03*
D27*
X546100Y94060D03*
X546100Y104060D03*
X533400Y94060D03*
X533400Y104060D03*
X520700Y94060D03*
X520700Y104060D03*
D28*
X749780Y195199D03*
X749780Y63881D03*
D29*
X707660Y119540D03*
X707660Y94540D03*
X707660Y139540D03*
X707660Y164540D03*
D30*
X643033Y134307D02*
X632347Y134307D01*
X632347Y138693D01*
X643033Y138693D01*
X643033Y134307D01*
X643033Y137581D02*
X632347Y137581D01*
X632347Y124807D02*
X643033Y124807D01*
X632347Y124807D02*
X632347Y129193D01*
X643033Y129193D01*
X643033Y124807D01*
X643033Y128081D02*
X632347Y128081D01*
X632347Y115307D02*
X643033Y115307D01*
X632347Y115307D02*
X632347Y119693D01*
X643033Y119693D01*
X643033Y115307D01*
X643033Y118581D02*
X632347Y118581D01*
X657447Y115307D02*
X668133Y115307D01*
X657447Y115307D02*
X657447Y119693D01*
X668133Y119693D01*
X668133Y115307D01*
X668133Y118581D02*
X657447Y118581D01*
X657447Y124807D02*
X668133Y124807D01*
X657447Y124807D02*
X657447Y129193D01*
X668133Y129193D01*
X668133Y124807D01*
X668133Y128081D02*
X657447Y128081D01*
X657447Y134307D02*
X668133Y134307D01*
X657447Y134307D02*
X657447Y138693D01*
X668133Y138693D01*
X668133Y134307D01*
X668133Y137581D02*
X657447Y137581D01*
D25*
X369570Y411480D03*
X394970Y411480D03*
X436880Y129540D03*
X462280Y129540D03*
X436880Y154940D03*
X462280Y154940D03*
D27*
X449580Y106600D03*
X449580Y96600D03*
X462280Y106600D03*
X462280Y96600D03*
D31*
X377765Y324315D02*
X377765Y335325D01*
X377765Y324315D02*
X376355Y324315D01*
X376355Y335325D01*
X377765Y335325D01*
X377765Y327757D02*
X376355Y327757D01*
X376355Y331199D02*
X377765Y331199D01*
X377765Y334641D02*
X376355Y334641D01*
X372765Y335325D02*
X372765Y324315D01*
X371355Y324315D01*
X371355Y335325D01*
X372765Y335325D01*
X372765Y327757D02*
X371355Y327757D01*
X371355Y331199D02*
X372765Y331199D01*
X372765Y334641D02*
X371355Y334641D01*
X367765Y335325D02*
X367765Y324315D01*
X366355Y324315D01*
X366355Y335325D01*
X367765Y335325D01*
X367765Y327757D02*
X366355Y327757D01*
X366355Y331199D02*
X367765Y331199D01*
X367765Y334641D02*
X366355Y334641D01*
X362765Y335325D02*
X362765Y324315D01*
X361355Y324315D01*
X361355Y335325D01*
X362765Y335325D01*
X362765Y327757D02*
X361355Y327757D01*
X361355Y331199D02*
X362765Y331199D01*
X362765Y334641D02*
X361355Y334641D01*
X357765Y335325D02*
X357765Y324315D01*
X356355Y324315D01*
X356355Y335325D01*
X357765Y335325D01*
X357765Y327757D02*
X356355Y327757D01*
X356355Y331199D02*
X357765Y331199D01*
X357765Y334641D02*
X356355Y334641D01*
X352765Y335325D02*
X352765Y324315D01*
X351355Y324315D01*
X351355Y335325D01*
X352765Y335325D01*
X352765Y327757D02*
X351355Y327757D01*
X351355Y331199D02*
X352765Y331199D01*
X352765Y334641D02*
X351355Y334641D01*
X347765Y335325D02*
X347765Y324315D01*
X346355Y324315D01*
X346355Y335325D01*
X347765Y335325D01*
X347765Y327757D02*
X346355Y327757D01*
X346355Y331199D02*
X347765Y331199D01*
X347765Y334641D02*
X346355Y334641D01*
X342765Y335325D02*
X342765Y324315D01*
X341355Y324315D01*
X341355Y335325D01*
X342765Y335325D01*
X342765Y327757D02*
X341355Y327757D01*
X341355Y331199D02*
X342765Y331199D01*
X342765Y334641D02*
X341355Y334641D01*
X337765Y335325D02*
X337765Y324315D01*
X336355Y324315D01*
X336355Y335325D01*
X337765Y335325D01*
X337765Y327757D02*
X336355Y327757D01*
X336355Y331199D02*
X337765Y331199D01*
X337765Y334641D02*
X336355Y334641D01*
X332765Y335325D02*
X332765Y324315D01*
X331355Y324315D01*
X331355Y335325D01*
X332765Y335325D01*
X332765Y327757D02*
X331355Y327757D01*
X331355Y331199D02*
X332765Y331199D01*
X332765Y334641D02*
X331355Y334641D01*
X327765Y335325D02*
X327765Y324315D01*
X326355Y324315D01*
X326355Y335325D01*
X327765Y335325D01*
X327765Y327757D02*
X326355Y327757D01*
X326355Y331199D02*
X327765Y331199D01*
X327765Y334641D02*
X326355Y334641D01*
X322765Y335325D02*
X322765Y324315D01*
X321355Y324315D01*
X321355Y335325D01*
X322765Y335325D01*
X322765Y327757D02*
X321355Y327757D01*
X321355Y331199D02*
X322765Y331199D01*
X322765Y334641D02*
X321355Y334641D01*
X317765Y335325D02*
X317765Y324315D01*
X316355Y324315D01*
X316355Y335325D01*
X317765Y335325D01*
X317765Y327757D02*
X316355Y327757D01*
X316355Y331199D02*
X317765Y331199D01*
X317765Y334641D02*
X316355Y334641D01*
X312765Y335325D02*
X312765Y324315D01*
X311355Y324315D01*
X311355Y335325D01*
X312765Y335325D01*
X312765Y327757D02*
X311355Y327757D01*
X311355Y331199D02*
X312765Y331199D01*
X312765Y334641D02*
X311355Y334641D01*
X307765Y335325D02*
X307765Y324315D01*
X306355Y324315D01*
X306355Y335325D01*
X307765Y335325D01*
X307765Y327757D02*
X306355Y327757D01*
X306355Y331199D02*
X307765Y331199D01*
X307765Y334641D02*
X306355Y334641D01*
X302765Y335325D02*
X302765Y324315D01*
X301355Y324315D01*
X301355Y335325D01*
X302765Y335325D01*
X302765Y327757D02*
X301355Y327757D01*
X301355Y331199D02*
X302765Y331199D01*
X302765Y334641D02*
X301355Y334641D01*
X297765Y335325D02*
X297765Y324315D01*
X296355Y324315D01*
X296355Y335325D01*
X297765Y335325D01*
X297765Y327757D02*
X296355Y327757D01*
X296355Y331199D02*
X297765Y331199D01*
X297765Y334641D02*
X296355Y334641D01*
X292765Y335325D02*
X292765Y324315D01*
X291355Y324315D01*
X291355Y335325D01*
X292765Y335325D01*
X292765Y327757D02*
X291355Y327757D01*
X291355Y331199D02*
X292765Y331199D01*
X292765Y334641D02*
X291355Y334641D01*
X287765Y335325D02*
X287765Y324315D01*
X286355Y324315D01*
X286355Y335325D01*
X287765Y335325D01*
X287765Y327757D02*
X286355Y327757D01*
X286355Y331199D02*
X287765Y331199D01*
X287765Y334641D02*
X286355Y334641D01*
X282765Y335325D02*
X282765Y324315D01*
X281355Y324315D01*
X281355Y335325D01*
X282765Y335325D01*
X282765Y327757D02*
X281355Y327757D01*
X281355Y331199D02*
X282765Y331199D01*
X282765Y334641D02*
X281355Y334641D01*
X277765Y335325D02*
X277765Y324315D01*
X276355Y324315D01*
X276355Y335325D01*
X277765Y335325D01*
X277765Y327757D02*
X276355Y327757D01*
X276355Y331199D02*
X277765Y331199D01*
X277765Y334641D02*
X276355Y334641D01*
X272765Y335325D02*
X272765Y324315D01*
X271355Y324315D01*
X271355Y335325D01*
X272765Y335325D01*
X272765Y327757D02*
X271355Y327757D01*
X271355Y331199D02*
X272765Y331199D01*
X272765Y334641D02*
X271355Y334641D01*
X267765Y335325D02*
X267765Y324315D01*
X266355Y324315D01*
X266355Y335325D01*
X267765Y335325D01*
X267765Y327757D02*
X266355Y327757D01*
X266355Y331199D02*
X267765Y331199D01*
X267765Y334641D02*
X266355Y334641D01*
X262765Y335325D02*
X262765Y324315D01*
X261355Y324315D01*
X261355Y335325D01*
X262765Y335325D01*
X262765Y327757D02*
X261355Y327757D01*
X261355Y331199D02*
X262765Y331199D01*
X262765Y334641D02*
X261355Y334641D01*
X257765Y335325D02*
X257765Y324315D01*
X256355Y324315D01*
X256355Y335325D01*
X257765Y335325D01*
X257765Y327757D02*
X256355Y327757D01*
X256355Y331199D02*
X257765Y331199D01*
X257765Y334641D02*
X256355Y334641D01*
X252765Y335325D02*
X252765Y324315D01*
X251355Y324315D01*
X251355Y335325D01*
X252765Y335325D01*
X252765Y327757D02*
X251355Y327757D01*
X251355Y331199D02*
X252765Y331199D01*
X252765Y334641D02*
X251355Y334641D01*
X247765Y335325D02*
X247765Y324315D01*
X246355Y324315D01*
X246355Y335325D01*
X247765Y335325D01*
X247765Y327757D02*
X246355Y327757D01*
X246355Y331199D02*
X247765Y331199D01*
X247765Y334641D02*
X246355Y334641D01*
X242765Y335325D02*
X242765Y324315D01*
X241355Y324315D01*
X241355Y335325D01*
X242765Y335325D01*
X242765Y327757D02*
X241355Y327757D01*
X241355Y331199D02*
X242765Y331199D01*
X242765Y334641D02*
X241355Y334641D01*
X237765Y335325D02*
X237765Y324315D01*
X236355Y324315D01*
X236355Y335325D01*
X237765Y335325D01*
X237765Y327757D02*
X236355Y327757D01*
X236355Y331199D02*
X237765Y331199D01*
X237765Y334641D02*
X236355Y334641D01*
X232765Y335325D02*
X232765Y324315D01*
X231355Y324315D01*
X231355Y335325D01*
X232765Y335325D01*
X232765Y327757D02*
X231355Y327757D01*
X231355Y331199D02*
X232765Y331199D01*
X232765Y334641D02*
X231355Y334641D01*
X227765Y335325D02*
X227765Y324315D01*
X226355Y324315D01*
X226355Y335325D01*
X227765Y335325D01*
X227765Y327757D02*
X226355Y327757D01*
X226355Y331199D02*
X227765Y331199D01*
X227765Y334641D02*
X226355Y334641D01*
X222765Y335325D02*
X222765Y324315D01*
X221355Y324315D01*
X221355Y335325D01*
X222765Y335325D01*
X222765Y327757D02*
X221355Y327757D01*
X221355Y331199D02*
X222765Y331199D01*
X222765Y334641D02*
X221355Y334641D01*
X217765Y335325D02*
X217765Y324315D01*
X216355Y324315D01*
X216355Y335325D01*
X217765Y335325D01*
X217765Y327757D02*
X216355Y327757D01*
X216355Y331199D02*
X217765Y331199D01*
X217765Y334641D02*
X216355Y334641D01*
X212765Y335325D02*
X212765Y324315D01*
X211355Y324315D01*
X211355Y335325D01*
X212765Y335325D01*
X212765Y327757D02*
X211355Y327757D01*
X211355Y331199D02*
X212765Y331199D01*
X212765Y334641D02*
X211355Y334641D01*
X207765Y335325D02*
X207765Y324315D01*
X206355Y324315D01*
X206355Y335325D01*
X207765Y335325D01*
X207765Y327757D02*
X206355Y327757D01*
X206355Y331199D02*
X207765Y331199D01*
X207765Y334641D02*
X206355Y334641D01*
X202765Y335325D02*
X202765Y324315D01*
X201355Y324315D01*
X201355Y335325D01*
X202765Y335325D01*
X202765Y327757D02*
X201355Y327757D01*
X201355Y331199D02*
X202765Y331199D01*
X202765Y334641D02*
X201355Y334641D01*
X188765Y311725D02*
X177755Y311725D01*
X188765Y311725D02*
X188765Y310315D01*
X177755Y310315D01*
X177755Y311725D01*
X177755Y306725D02*
X188765Y306725D01*
X188765Y305315D01*
X177755Y305315D01*
X177755Y306725D01*
X177755Y301725D02*
X188765Y301725D01*
X188765Y300315D01*
X177755Y300315D01*
X177755Y301725D01*
X177755Y296725D02*
X188765Y296725D01*
X188765Y295315D01*
X177755Y295315D01*
X177755Y296725D01*
X177755Y291725D02*
X188765Y291725D01*
X188765Y290315D01*
X177755Y290315D01*
X177755Y291725D01*
X177755Y286725D02*
X188765Y286725D01*
X188765Y285315D01*
X177755Y285315D01*
X177755Y286725D01*
X177755Y281725D02*
X188765Y281725D01*
X188765Y280315D01*
X177755Y280315D01*
X177755Y281725D01*
X177755Y276725D02*
X188765Y276725D01*
X188765Y275315D01*
X177755Y275315D01*
X177755Y276725D01*
X177755Y271725D02*
X188765Y271725D01*
X188765Y270315D01*
X177755Y270315D01*
X177755Y271725D01*
X177755Y266725D02*
X188765Y266725D01*
X188765Y265315D01*
X177755Y265315D01*
X177755Y266725D01*
X177755Y261725D02*
X188765Y261725D01*
X188765Y260315D01*
X177755Y260315D01*
X177755Y261725D01*
X177755Y256725D02*
X188765Y256725D01*
X188765Y255315D01*
X177755Y255315D01*
X177755Y256725D01*
X177755Y251725D02*
X188765Y251725D01*
X188765Y250315D01*
X177755Y250315D01*
X177755Y251725D01*
X177755Y246725D02*
X188765Y246725D01*
X188765Y245315D01*
X177755Y245315D01*
X177755Y246725D01*
X177755Y241725D02*
X188765Y241725D01*
X188765Y240315D01*
X177755Y240315D01*
X177755Y241725D01*
X177755Y236725D02*
X188765Y236725D01*
X188765Y235315D01*
X177755Y235315D01*
X177755Y236725D01*
X177755Y231725D02*
X188765Y231725D01*
X188765Y230315D01*
X177755Y230315D01*
X177755Y231725D01*
X177755Y226725D02*
X188765Y226725D01*
X188765Y225315D01*
X177755Y225315D01*
X177755Y226725D01*
X177755Y221725D02*
X188765Y221725D01*
X188765Y220315D01*
X177755Y220315D01*
X177755Y221725D01*
X177755Y216725D02*
X188765Y216725D01*
X188765Y215315D01*
X177755Y215315D01*
X177755Y216725D01*
X177755Y211725D02*
X188765Y211725D01*
X188765Y210315D01*
X177755Y210315D01*
X177755Y211725D01*
X177755Y206725D02*
X188765Y206725D01*
X188765Y205315D01*
X177755Y205315D01*
X177755Y206725D01*
X177755Y201725D02*
X188765Y201725D01*
X188765Y200315D01*
X177755Y200315D01*
X177755Y201725D01*
X177755Y196725D02*
X188765Y196725D01*
X188765Y195315D01*
X177755Y195315D01*
X177755Y196725D01*
X177755Y191725D02*
X188765Y191725D01*
X188765Y190315D01*
X177755Y190315D01*
X177755Y191725D01*
X177755Y186725D02*
X188765Y186725D01*
X188765Y185315D01*
X177755Y185315D01*
X177755Y186725D01*
X177755Y181725D02*
X188765Y181725D01*
X188765Y180315D01*
X177755Y180315D01*
X177755Y181725D01*
X177755Y176725D02*
X188765Y176725D01*
X188765Y175315D01*
X177755Y175315D01*
X177755Y176725D01*
X177755Y171725D02*
X188765Y171725D01*
X188765Y170315D01*
X177755Y170315D01*
X177755Y171725D01*
X177755Y166725D02*
X188765Y166725D01*
X188765Y165315D01*
X177755Y165315D01*
X177755Y166725D01*
X177755Y161725D02*
X188765Y161725D01*
X188765Y160315D01*
X177755Y160315D01*
X177755Y161725D01*
X177755Y156725D02*
X188765Y156725D01*
X188765Y155315D01*
X177755Y155315D01*
X177755Y156725D01*
X177755Y151725D02*
X188765Y151725D01*
X188765Y150315D01*
X177755Y150315D01*
X177755Y151725D01*
X177755Y146725D02*
X188765Y146725D01*
X188765Y145315D01*
X177755Y145315D01*
X177755Y146725D01*
X177755Y141725D02*
X188765Y141725D01*
X188765Y140315D01*
X177755Y140315D01*
X177755Y141725D01*
X177755Y136725D02*
X188765Y136725D01*
X188765Y135315D01*
X177755Y135315D01*
X177755Y136725D01*
X201355Y122725D02*
X201355Y111715D01*
X201355Y122725D02*
X202765Y122725D01*
X202765Y111715D01*
X201355Y111715D01*
X201355Y115157D02*
X202765Y115157D01*
X202765Y118599D02*
X201355Y118599D01*
X201355Y122041D02*
X202765Y122041D01*
X206355Y122725D02*
X206355Y111715D01*
X206355Y122725D02*
X207765Y122725D01*
X207765Y111715D01*
X206355Y111715D01*
X206355Y115157D02*
X207765Y115157D01*
X207765Y118599D02*
X206355Y118599D01*
X206355Y122041D02*
X207765Y122041D01*
X211355Y122725D02*
X211355Y111715D01*
X211355Y122725D02*
X212765Y122725D01*
X212765Y111715D01*
X211355Y111715D01*
X211355Y115157D02*
X212765Y115157D01*
X212765Y118599D02*
X211355Y118599D01*
X211355Y122041D02*
X212765Y122041D01*
X216355Y122725D02*
X216355Y111715D01*
X216355Y122725D02*
X217765Y122725D01*
X217765Y111715D01*
X216355Y111715D01*
X216355Y115157D02*
X217765Y115157D01*
X217765Y118599D02*
X216355Y118599D01*
X216355Y122041D02*
X217765Y122041D01*
X221355Y122725D02*
X221355Y111715D01*
X221355Y122725D02*
X222765Y122725D01*
X222765Y111715D01*
X221355Y111715D01*
X221355Y115157D02*
X222765Y115157D01*
X222765Y118599D02*
X221355Y118599D01*
X221355Y122041D02*
X222765Y122041D01*
X226355Y122725D02*
X226355Y111715D01*
X226355Y122725D02*
X227765Y122725D01*
X227765Y111715D01*
X226355Y111715D01*
X226355Y115157D02*
X227765Y115157D01*
X227765Y118599D02*
X226355Y118599D01*
X226355Y122041D02*
X227765Y122041D01*
X231355Y122725D02*
X231355Y111715D01*
X231355Y122725D02*
X232765Y122725D01*
X232765Y111715D01*
X231355Y111715D01*
X231355Y115157D02*
X232765Y115157D01*
X232765Y118599D02*
X231355Y118599D01*
X231355Y122041D02*
X232765Y122041D01*
X236355Y122725D02*
X236355Y111715D01*
X236355Y122725D02*
X237765Y122725D01*
X237765Y111715D01*
X236355Y111715D01*
X236355Y115157D02*
X237765Y115157D01*
X237765Y118599D02*
X236355Y118599D01*
X236355Y122041D02*
X237765Y122041D01*
X241355Y122725D02*
X241355Y111715D01*
X241355Y122725D02*
X242765Y122725D01*
X242765Y111715D01*
X241355Y111715D01*
X241355Y115157D02*
X242765Y115157D01*
X242765Y118599D02*
X241355Y118599D01*
X241355Y122041D02*
X242765Y122041D01*
X246355Y122725D02*
X246355Y111715D01*
X246355Y122725D02*
X247765Y122725D01*
X247765Y111715D01*
X246355Y111715D01*
X246355Y115157D02*
X247765Y115157D01*
X247765Y118599D02*
X246355Y118599D01*
X246355Y122041D02*
X247765Y122041D01*
X251355Y122725D02*
X251355Y111715D01*
X251355Y122725D02*
X252765Y122725D01*
X252765Y111715D01*
X251355Y111715D01*
X251355Y115157D02*
X252765Y115157D01*
X252765Y118599D02*
X251355Y118599D01*
X251355Y122041D02*
X252765Y122041D01*
X256355Y122725D02*
X256355Y111715D01*
X256355Y122725D02*
X257765Y122725D01*
X257765Y111715D01*
X256355Y111715D01*
X256355Y115157D02*
X257765Y115157D01*
X257765Y118599D02*
X256355Y118599D01*
X256355Y122041D02*
X257765Y122041D01*
X261355Y122725D02*
X261355Y111715D01*
X261355Y122725D02*
X262765Y122725D01*
X262765Y111715D01*
X261355Y111715D01*
X261355Y115157D02*
X262765Y115157D01*
X262765Y118599D02*
X261355Y118599D01*
X261355Y122041D02*
X262765Y122041D01*
X266355Y122725D02*
X266355Y111715D01*
X266355Y122725D02*
X267765Y122725D01*
X267765Y111715D01*
X266355Y111715D01*
X266355Y115157D02*
X267765Y115157D01*
X267765Y118599D02*
X266355Y118599D01*
X266355Y122041D02*
X267765Y122041D01*
X271355Y122725D02*
X271355Y111715D01*
X271355Y122725D02*
X272765Y122725D01*
X272765Y111715D01*
X271355Y111715D01*
X271355Y115157D02*
X272765Y115157D01*
X272765Y118599D02*
X271355Y118599D01*
X271355Y122041D02*
X272765Y122041D01*
X276355Y122725D02*
X276355Y111715D01*
X276355Y122725D02*
X277765Y122725D01*
X277765Y111715D01*
X276355Y111715D01*
X276355Y115157D02*
X277765Y115157D01*
X277765Y118599D02*
X276355Y118599D01*
X276355Y122041D02*
X277765Y122041D01*
X281355Y122725D02*
X281355Y111715D01*
X281355Y122725D02*
X282765Y122725D01*
X282765Y111715D01*
X281355Y111715D01*
X281355Y115157D02*
X282765Y115157D01*
X282765Y118599D02*
X281355Y118599D01*
X281355Y122041D02*
X282765Y122041D01*
X286355Y122725D02*
X286355Y111715D01*
X286355Y122725D02*
X287765Y122725D01*
X287765Y111715D01*
X286355Y111715D01*
X286355Y115157D02*
X287765Y115157D01*
X287765Y118599D02*
X286355Y118599D01*
X286355Y122041D02*
X287765Y122041D01*
X291355Y122725D02*
X291355Y111715D01*
X291355Y122725D02*
X292765Y122725D01*
X292765Y111715D01*
X291355Y111715D01*
X291355Y115157D02*
X292765Y115157D01*
X292765Y118599D02*
X291355Y118599D01*
X291355Y122041D02*
X292765Y122041D01*
X296355Y122725D02*
X296355Y111715D01*
X296355Y122725D02*
X297765Y122725D01*
X297765Y111715D01*
X296355Y111715D01*
X296355Y115157D02*
X297765Y115157D01*
X297765Y118599D02*
X296355Y118599D01*
X296355Y122041D02*
X297765Y122041D01*
X301355Y122725D02*
X301355Y111715D01*
X301355Y122725D02*
X302765Y122725D01*
X302765Y111715D01*
X301355Y111715D01*
X301355Y115157D02*
X302765Y115157D01*
X302765Y118599D02*
X301355Y118599D01*
X301355Y122041D02*
X302765Y122041D01*
X306355Y122725D02*
X306355Y111715D01*
X306355Y122725D02*
X307765Y122725D01*
X307765Y111715D01*
X306355Y111715D01*
X306355Y115157D02*
X307765Y115157D01*
X307765Y118599D02*
X306355Y118599D01*
X306355Y122041D02*
X307765Y122041D01*
X311355Y122725D02*
X311355Y111715D01*
X311355Y122725D02*
X312765Y122725D01*
X312765Y111715D01*
X311355Y111715D01*
X311355Y115157D02*
X312765Y115157D01*
X312765Y118599D02*
X311355Y118599D01*
X311355Y122041D02*
X312765Y122041D01*
X316355Y122725D02*
X316355Y111715D01*
X316355Y122725D02*
X317765Y122725D01*
X317765Y111715D01*
X316355Y111715D01*
X316355Y115157D02*
X317765Y115157D01*
X317765Y118599D02*
X316355Y118599D01*
X316355Y122041D02*
X317765Y122041D01*
X321355Y122725D02*
X321355Y111715D01*
X321355Y122725D02*
X322765Y122725D01*
X322765Y111715D01*
X321355Y111715D01*
X321355Y115157D02*
X322765Y115157D01*
X322765Y118599D02*
X321355Y118599D01*
X321355Y122041D02*
X322765Y122041D01*
X326355Y122725D02*
X326355Y111715D01*
X326355Y122725D02*
X327765Y122725D01*
X327765Y111715D01*
X326355Y111715D01*
X326355Y115157D02*
X327765Y115157D01*
X327765Y118599D02*
X326355Y118599D01*
X326355Y122041D02*
X327765Y122041D01*
X331355Y122725D02*
X331355Y111715D01*
X331355Y122725D02*
X332765Y122725D01*
X332765Y111715D01*
X331355Y111715D01*
X331355Y115157D02*
X332765Y115157D01*
X332765Y118599D02*
X331355Y118599D01*
X331355Y122041D02*
X332765Y122041D01*
X336355Y122725D02*
X336355Y111715D01*
X336355Y122725D02*
X337765Y122725D01*
X337765Y111715D01*
X336355Y111715D01*
X336355Y115157D02*
X337765Y115157D01*
X337765Y118599D02*
X336355Y118599D01*
X336355Y122041D02*
X337765Y122041D01*
X341355Y122725D02*
X341355Y111715D01*
X341355Y122725D02*
X342765Y122725D01*
X342765Y111715D01*
X341355Y111715D01*
X341355Y115157D02*
X342765Y115157D01*
X342765Y118599D02*
X341355Y118599D01*
X341355Y122041D02*
X342765Y122041D01*
X346355Y122725D02*
X346355Y111715D01*
X346355Y122725D02*
X347765Y122725D01*
X347765Y111715D01*
X346355Y111715D01*
X346355Y115157D02*
X347765Y115157D01*
X347765Y118599D02*
X346355Y118599D01*
X346355Y122041D02*
X347765Y122041D01*
X351355Y122725D02*
X351355Y111715D01*
X351355Y122725D02*
X352765Y122725D01*
X352765Y111715D01*
X351355Y111715D01*
X351355Y115157D02*
X352765Y115157D01*
X352765Y118599D02*
X351355Y118599D01*
X351355Y122041D02*
X352765Y122041D01*
X356355Y122725D02*
X356355Y111715D01*
X356355Y122725D02*
X357765Y122725D01*
X357765Y111715D01*
X356355Y111715D01*
X356355Y115157D02*
X357765Y115157D01*
X357765Y118599D02*
X356355Y118599D01*
X356355Y122041D02*
X357765Y122041D01*
X361355Y122725D02*
X361355Y111715D01*
X361355Y122725D02*
X362765Y122725D01*
X362765Y111715D01*
X361355Y111715D01*
X361355Y115157D02*
X362765Y115157D01*
X362765Y118599D02*
X361355Y118599D01*
X361355Y122041D02*
X362765Y122041D01*
X366355Y122725D02*
X366355Y111715D01*
X366355Y122725D02*
X367765Y122725D01*
X367765Y111715D01*
X366355Y111715D01*
X366355Y115157D02*
X367765Y115157D01*
X367765Y118599D02*
X366355Y118599D01*
X366355Y122041D02*
X367765Y122041D01*
X371355Y122725D02*
X371355Y111715D01*
X371355Y122725D02*
X372765Y122725D01*
X372765Y111715D01*
X371355Y111715D01*
X371355Y115157D02*
X372765Y115157D01*
X372765Y118599D02*
X371355Y118599D01*
X371355Y122041D02*
X372765Y122041D01*
X376355Y122725D02*
X376355Y111715D01*
X376355Y122725D02*
X377765Y122725D01*
X377765Y111715D01*
X376355Y111715D01*
X376355Y115157D02*
X377765Y115157D01*
X377765Y118599D02*
X376355Y118599D01*
X376355Y122041D02*
X377765Y122041D01*
X390355Y135315D02*
X401365Y135315D01*
X390355Y135315D02*
X390355Y136725D01*
X401365Y136725D01*
X401365Y135315D01*
X401365Y140315D02*
X390355Y140315D01*
X390355Y141725D01*
X401365Y141725D01*
X401365Y140315D01*
X401365Y145315D02*
X390355Y145315D01*
X390355Y146725D01*
X401365Y146725D01*
X401365Y145315D01*
X401365Y150315D02*
X390355Y150315D01*
X390355Y151725D01*
X401365Y151725D01*
X401365Y150315D01*
X401365Y155315D02*
X390355Y155315D01*
X390355Y156725D01*
X401365Y156725D01*
X401365Y155315D01*
X401365Y160315D02*
X390355Y160315D01*
X390355Y161725D01*
X401365Y161725D01*
X401365Y160315D01*
X401365Y165315D02*
X390355Y165315D01*
X390355Y166725D01*
X401365Y166725D01*
X401365Y165315D01*
X401365Y170315D02*
X390355Y170315D01*
X390355Y171725D01*
X401365Y171725D01*
X401365Y170315D01*
X401365Y175315D02*
X390355Y175315D01*
X390355Y176725D01*
X401365Y176725D01*
X401365Y175315D01*
X401365Y180315D02*
X390355Y180315D01*
X390355Y181725D01*
X401365Y181725D01*
X401365Y180315D01*
X401365Y185315D02*
X390355Y185315D01*
X390355Y186725D01*
X401365Y186725D01*
X401365Y185315D01*
X401365Y190315D02*
X390355Y190315D01*
X390355Y191725D01*
X401365Y191725D01*
X401365Y190315D01*
X401365Y195315D02*
X390355Y195315D01*
X390355Y196725D01*
X401365Y196725D01*
X401365Y195315D01*
X401365Y200315D02*
X390355Y200315D01*
X390355Y201725D01*
X401365Y201725D01*
X401365Y200315D01*
X401365Y205315D02*
X390355Y205315D01*
X390355Y206725D01*
X401365Y206725D01*
X401365Y205315D01*
X401365Y210315D02*
X390355Y210315D01*
X390355Y211725D01*
X401365Y211725D01*
X401365Y210315D01*
X401365Y215315D02*
X390355Y215315D01*
X390355Y216725D01*
X401365Y216725D01*
X401365Y215315D01*
X401365Y220315D02*
X390355Y220315D01*
X390355Y221725D01*
X401365Y221725D01*
X401365Y220315D01*
X401365Y225315D02*
X390355Y225315D01*
X390355Y226725D01*
X401365Y226725D01*
X401365Y225315D01*
X401365Y230315D02*
X390355Y230315D01*
X390355Y231725D01*
X401365Y231725D01*
X401365Y230315D01*
X401365Y235315D02*
X390355Y235315D01*
X390355Y236725D01*
X401365Y236725D01*
X401365Y235315D01*
X401365Y240315D02*
X390355Y240315D01*
X390355Y241725D01*
X401365Y241725D01*
X401365Y240315D01*
X401365Y245315D02*
X390355Y245315D01*
X390355Y246725D01*
X401365Y246725D01*
X401365Y245315D01*
X401365Y250315D02*
X390355Y250315D01*
X390355Y251725D01*
X401365Y251725D01*
X401365Y250315D01*
X401365Y255315D02*
X390355Y255315D01*
X390355Y256725D01*
X401365Y256725D01*
X401365Y255315D01*
X401365Y260315D02*
X390355Y260315D01*
X390355Y261725D01*
X401365Y261725D01*
X401365Y260315D01*
X401365Y265315D02*
X390355Y265315D01*
X390355Y266725D01*
X401365Y266725D01*
X401365Y265315D01*
X401365Y270315D02*
X390355Y270315D01*
X390355Y271725D01*
X401365Y271725D01*
X401365Y270315D01*
X401365Y275315D02*
X390355Y275315D01*
X390355Y276725D01*
X401365Y276725D01*
X401365Y275315D01*
X401365Y280315D02*
X390355Y280315D01*
X390355Y281725D01*
X401365Y281725D01*
X401365Y280315D01*
X401365Y285315D02*
X390355Y285315D01*
X390355Y286725D01*
X401365Y286725D01*
X401365Y285315D01*
X401365Y290315D02*
X390355Y290315D01*
X390355Y291725D01*
X401365Y291725D01*
X401365Y290315D01*
X401365Y295315D02*
X390355Y295315D01*
X390355Y296725D01*
X401365Y296725D01*
X401365Y295315D01*
X401365Y300315D02*
X390355Y300315D01*
X390355Y301725D01*
X401365Y301725D01*
X401365Y300315D01*
X401365Y305315D02*
X390355Y305315D01*
X390355Y306725D01*
X401365Y306725D01*
X401365Y305315D01*
X401365Y310315D02*
X390355Y310315D01*
X390355Y311725D01*
X401365Y311725D01*
X401365Y310315D01*
D32*
X768378Y271752D02*
X778878Y271752D01*
X778878Y357152D02*
X768378Y357152D01*
X815678Y271752D02*
X826178Y271752D01*
X826178Y357152D02*
X815678Y357152D01*
D33*
X749628Y286952D03*
X749628Y291952D03*
X749628Y296952D03*
X749628Y301952D03*
X749628Y306952D03*
X749628Y311952D03*
X749628Y316952D03*
X749628Y321952D03*
X749628Y326952D03*
X749628Y331952D03*
X749628Y336952D03*
X749628Y341952D03*
D34*
X762128Y342452D03*
X769228Y338452D03*
X769228Y330452D03*
X762128Y326452D03*
X769228Y322452D03*
X762128Y318452D03*
X762128Y310452D03*
X769228Y306452D03*
X762128Y302452D03*
X769228Y298452D03*
X769228Y290452D03*
X762128Y286452D03*
X762128Y294452D03*
X762128Y334452D03*
D35*
X795428Y314452D03*
X826428Y314452D03*
D12*
X205740Y364340D03*
X205740Y377340D03*
D27*
X571500Y149940D03*
X571500Y159940D03*
X541020Y149940D03*
X541020Y159940D03*
X510540Y149940D03*
X510540Y159940D03*
D23*
X612145Y427990D03*
X622295Y427990D03*
X590545Y427990D03*
X580395Y427990D03*
D25*
X783590Y386080D03*
X758190Y386080D03*
D36*
X807720Y494030D03*
D37*
X807720Y544030D03*
D38*
X744979Y458470D03*
X702821Y458470D03*
D39*
X753110Y488950D03*
X753110Y520950D03*
X753110Y542950D03*
X753110Y564950D03*
X702310Y564950D03*
X702310Y542950D03*
X702310Y520950D03*
X702310Y488950D03*
D40*
X665640Y499720D03*
X665640Y480720D03*
X686640Y490220D03*
D41*
X665480Y513085D03*
X665480Y523235D03*
D42*
X829630Y440890D02*
X836610Y440890D01*
X829630Y440890D02*
X829630Y447870D01*
X836610Y447870D01*
X836610Y440890D01*
X836610Y445690D02*
X829630Y445690D01*
X829630Y423350D02*
X836610Y423350D01*
X829630Y423350D02*
X829630Y430330D01*
X836610Y430330D01*
X836610Y423350D01*
X836610Y428150D02*
X829630Y428150D01*
D23*
X782315Y452120D03*
X772165Y452120D03*
D25*
X97790Y504190D03*
X123190Y504190D03*
X97790Y478790D03*
X123190Y478790D03*
X97790Y453390D03*
X123190Y453390D03*
D43*
X179960Y487020D03*
X179960Y477520D03*
X179960Y468020D03*
X208660Y468020D03*
X208660Y477520D03*
X208660Y487020D03*
D44*
X194310Y477520D03*
D45*
X222124Y487680D03*
X237616Y487680D03*
D23*
X191775Y502920D03*
X201925Y502920D03*
D46*
X180340Y499344D03*
X180340Y509036D03*
D45*
X222124Y467360D03*
X237616Y467360D03*
D47*
X214376Y508000D03*
X222504Y508000D03*
X176276Y344170D03*
X184404Y344170D03*
X150876Y344170D03*
X159004Y344170D03*
X331216Y369570D03*
X339344Y369570D03*
X157226Y378460D03*
X165354Y378460D03*
D48*
X499560Y439010D03*
X499560Y432510D03*
X499560Y426010D03*
X499560Y419510D03*
D49*
X508410Y410660D03*
X514910Y410660D03*
X521410Y410660D03*
X527910Y410660D03*
D48*
X536760Y419510D03*
X536760Y426010D03*
X536760Y432510D03*
X536760Y439010D03*
D49*
X527910Y447860D03*
X521410Y447860D03*
X514910Y447860D03*
X508410Y447860D03*
D50*
X518160Y429260D03*
D51*
X692150Y381000D03*
X585470Y510540D03*
X334010Y298450D03*
X229870Y195580D03*
X412750Y160020D03*
X307340Y412750D03*
X186690Y406400D03*
X453390Y193040D03*
X542290Y281940D03*
X167640Y502920D03*
X81280Y434340D03*
X292100Y494030D03*
X467360Y372110D03*
X254000Y146050D03*
X645160Y485140D03*
D52*
X195580Y440690D03*
D51*
X608330Y212090D03*
X610235Y262255D03*
X391160Y487680D03*
X650240Y351790D03*
X593725Y213995D03*
X593090Y271780D03*
X571500Y427990D03*
X467360Y454660D03*
X515620Y459740D03*
X534670Y220980D03*
X613410Y293370D03*
D53*
X753110Y350520D03*
D51*
X524510Y254000D03*
X613410Y346710D03*
X229870Y256540D03*
X113030Y256540D03*
X506730Y205740D03*
X613410Y400050D03*
X494030Y195580D03*
X376908Y313690D03*
X372110Y307340D03*
X487680Y190500D03*
X367030Y300990D03*
X481330Y185420D03*
X542290Y339090D03*
X513985Y270875D03*
X560070Y307340D03*
X518160Y265430D03*
X500380Y210820D03*
X558800Y400050D03*
X509270Y358140D03*
X494030Y215900D03*
X514350Y240030D03*
X207010Y142240D03*
X500380Y200660D03*
X201930Y149860D03*
X566420Y459740D03*
X566420Y513080D03*
X449580Y516890D03*
X467360Y466316D03*
X508000Y462280D03*
X477520Y433070D03*
X389890Y466316D03*
X441960Y477520D03*
X615950Y459740D03*
X523240Y464820D03*
X361950Y129540D03*
X107950Y129540D03*
X384810Y135890D03*
X113030Y135890D03*
X256540Y342900D03*
X113030Y416560D03*
X615950Y118110D03*
X350520Y97790D03*
X356870Y104140D03*
X617220Y137160D03*
X735330Y322580D03*
X231140Y275590D03*
X474980Y180340D03*
X207010Y314960D03*
X426720Y185420D03*
D52*
X675640Y76200D03*
M02*
