G04 EAGLE Gerber RS-274X export*
G75*
%MOMM*%
%FSLAX34Y34*%
%LPD*%
%INSolderpaste Top*%
%IPPOS*%
%AMOC8*
5,1,8,0,0,1.08239X$1,22.5*%
G01*
%ADD10R,0.600000X0.700000*%
%ADD11R,0.508000X0.965200*%
%ADD12R,0.900000X0.700000*%
%ADD13R,0.700000X0.900000*%
%ADD14R,1.000000X1.100000*%
%ADD15R,2.200000X0.600000*%
%ADD16R,1.050000X0.500000*%
%ADD17R,1.000000X0.700000*%
%ADD18R,0.600000X1.500000*%
%ADD19R,0.800000X0.900000*%
%ADD20R,0.535100X0.644000*%
%ADD21R,1.100000X1.150000*%
%ADD22R,0.700000X0.600000*%
%ADD23R,3.000000X0.900000*%
%ADD24C,0.145000*%
%ADD25C,0.159000*%
%ADD26R,1.200000X0.300000*%
%ADD27R,1.000000X0.200000*%
%ADD28R,2.392000X1.565300*%
%ADD29R,0.900000X0.800000*%
%ADD30R,0.644000X0.535100*%
%ADD31C,0.300000*%
%ADD32R,1.011931X1.581138*%
%ADD33R,0.840000X0.420000*%
%ADD34R,0.920900X0.970200*%
%ADD35R,0.629100X0.560000*%
%ADD36R,2.489200X2.235200*%
%ADD37R,0.960000X0.960000*%
%ADD38R,1.050000X0.340000*%
%ADD39R,0.340000X1.050000*%


D10*
X396160Y363220D03*
X386160Y363220D03*
D11*
X263525Y371983D03*
X263525Y354457D03*
X274955Y354457D03*
X274955Y371983D03*
D12*
X287020Y356720D03*
X287020Y369720D03*
D13*
X262740Y386080D03*
X275740Y386080D03*
D14*
X236220Y349640D03*
X236220Y366640D03*
D13*
X420220Y312420D03*
X433220Y312420D03*
X153820Y129540D03*
X140820Y129540D03*
X158900Y241300D03*
X145900Y241300D03*
X158900Y185420D03*
X145900Y185420D03*
D12*
X302260Y356720D03*
X302260Y369720D03*
X401320Y103020D03*
X401320Y90020D03*
D13*
X420220Y195580D03*
X433220Y195580D03*
X420220Y246380D03*
X433220Y246380D03*
X158900Y302260D03*
X145900Y302260D03*
D12*
X256540Y91590D03*
X256540Y78590D03*
X353060Y359260D03*
X353060Y372260D03*
X180340Y364340D03*
X180340Y377340D03*
X193040Y364340D03*
X193040Y377340D03*
X218440Y364340D03*
X218440Y377340D03*
D13*
X203050Y347980D03*
X216050Y347980D03*
D12*
X367030Y96670D03*
X367030Y83670D03*
D13*
X153820Y142240D03*
X140820Y142240D03*
D15*
X577250Y280670D03*
X629250Y280670D03*
X577250Y293370D03*
X577250Y267970D03*
X577250Y255270D03*
X629250Y293370D03*
X629250Y267970D03*
X629250Y255270D03*
D13*
X650090Y255270D03*
X663090Y255270D03*
D12*
X558800Y267820D03*
X558800Y280820D03*
D16*
X651500Y279320D03*
X651500Y269320D03*
X682000Y269320D03*
X682000Y279320D03*
D17*
X723470Y274320D03*
X701470Y264820D03*
X701470Y283820D03*
D15*
X577250Y334010D03*
X629250Y334010D03*
X577250Y346710D03*
X577250Y321310D03*
X577250Y308610D03*
X629250Y346710D03*
X629250Y321310D03*
X629250Y308610D03*
D13*
X650090Y308610D03*
X663090Y308610D03*
D12*
X558800Y321160D03*
X558800Y334160D03*
D16*
X651500Y332660D03*
X651500Y322660D03*
X682000Y322660D03*
X682000Y332660D03*
D17*
X723470Y327660D03*
X701470Y318160D03*
X701470Y337160D03*
D15*
X577250Y387350D03*
X629250Y387350D03*
X577250Y400050D03*
X577250Y374650D03*
X577250Y361950D03*
X629250Y400050D03*
X629250Y374650D03*
X629250Y361950D03*
D13*
X650090Y361950D03*
X663090Y361950D03*
D12*
X558800Y374500D03*
X558800Y387500D03*
D16*
X651500Y386000D03*
X651500Y376000D03*
X682000Y376000D03*
X682000Y386000D03*
D17*
X723470Y381000D03*
X701470Y371500D03*
X701470Y390500D03*
D15*
X577250Y227330D03*
X629250Y227330D03*
X577250Y240030D03*
X577250Y214630D03*
X577250Y201930D03*
X629250Y240030D03*
X629250Y214630D03*
X629250Y201930D03*
D13*
X650090Y201930D03*
X663090Y201930D03*
D12*
X558800Y214480D03*
X558800Y227480D03*
D16*
X651500Y225980D03*
X651500Y215980D03*
X682000Y215980D03*
X682000Y225980D03*
D17*
X723470Y220980D03*
X701470Y211480D03*
X701470Y230480D03*
D18*
X629920Y498170D03*
X617220Y498170D03*
X604520Y498170D03*
X591820Y498170D03*
X579120Y498170D03*
X566420Y498170D03*
X553720Y498170D03*
X553720Y444170D03*
X566420Y444170D03*
X579120Y444170D03*
X591820Y444170D03*
X604520Y444170D03*
X617220Y444170D03*
X629920Y444170D03*
D19*
X476860Y496410D03*
X457860Y496410D03*
X467360Y475410D03*
X514960Y496410D03*
X495960Y496410D03*
X505460Y475410D03*
X400660Y496410D03*
X381660Y496410D03*
X391160Y475410D03*
X438760Y496410D03*
X419760Y496410D03*
X429260Y475410D03*
D20*
X462285Y509270D03*
X472435Y509270D03*
X457195Y468630D03*
X447045Y468630D03*
X500385Y509270D03*
X510535Y509270D03*
X495295Y468630D03*
X485145Y468630D03*
X386085Y509270D03*
X396235Y509270D03*
X380995Y468630D03*
X370845Y468630D03*
X424185Y509270D03*
X434335Y509270D03*
X416555Y468630D03*
X406405Y468630D03*
D12*
X251460Y351640D03*
X251460Y364640D03*
D21*
X525900Y52290D03*
X540900Y52290D03*
X540900Y79790D03*
X525900Y79790D03*
D19*
X573380Y137000D03*
X554380Y137000D03*
X563880Y116000D03*
X542900Y137000D03*
X523900Y137000D03*
X533400Y116000D03*
X512420Y137000D03*
X493420Y137000D03*
X502920Y116000D03*
D22*
X546100Y94060D03*
X546100Y104060D03*
X533400Y94060D03*
X533400Y104060D03*
X520700Y94060D03*
X520700Y104060D03*
D23*
X707660Y119540D03*
X707660Y94540D03*
X707660Y139540D03*
X707660Y164540D03*
D24*
X643015Y134325D02*
X632365Y134325D01*
X632365Y138675D01*
X643015Y138675D01*
X643015Y134325D01*
X643015Y135702D02*
X632365Y135702D01*
X632365Y137079D02*
X643015Y137079D01*
X643015Y138456D02*
X632365Y138456D01*
X632365Y124825D02*
X643015Y124825D01*
X632365Y124825D02*
X632365Y129175D01*
X643015Y129175D01*
X643015Y124825D01*
X643015Y126202D02*
X632365Y126202D01*
X632365Y127579D02*
X643015Y127579D01*
X643015Y128956D02*
X632365Y128956D01*
X632365Y115325D02*
X643015Y115325D01*
X632365Y115325D02*
X632365Y119675D01*
X643015Y119675D01*
X643015Y115325D01*
X643015Y116702D02*
X632365Y116702D01*
X632365Y118079D02*
X643015Y118079D01*
X643015Y119456D02*
X632365Y119456D01*
X657465Y115325D02*
X668115Y115325D01*
X657465Y115325D02*
X657465Y119675D01*
X668115Y119675D01*
X668115Y115325D01*
X668115Y116702D02*
X657465Y116702D01*
X657465Y118079D02*
X668115Y118079D01*
X668115Y119456D02*
X657465Y119456D01*
X657465Y124825D02*
X668115Y124825D01*
X657465Y124825D02*
X657465Y129175D01*
X668115Y129175D01*
X668115Y124825D01*
X668115Y126202D02*
X657465Y126202D01*
X657465Y127579D02*
X668115Y127579D01*
X668115Y128956D02*
X657465Y128956D01*
X657465Y134325D02*
X668115Y134325D01*
X657465Y134325D02*
X657465Y138675D01*
X668115Y138675D01*
X668115Y134325D01*
X668115Y135702D02*
X657465Y135702D01*
X657465Y137079D02*
X668115Y137079D01*
X668115Y138456D02*
X657465Y138456D01*
D22*
X449580Y106600D03*
X449580Y96600D03*
X462280Y106600D03*
X462280Y96600D03*
D25*
X377765Y324315D02*
X377765Y335325D01*
X377765Y324315D02*
X376355Y324315D01*
X376355Y335325D01*
X377765Y335325D01*
X377765Y325825D02*
X376355Y325825D01*
X376355Y327335D02*
X377765Y327335D01*
X377765Y328845D02*
X376355Y328845D01*
X376355Y330355D02*
X377765Y330355D01*
X377765Y331865D02*
X376355Y331865D01*
X376355Y333375D02*
X377765Y333375D01*
X377765Y334885D02*
X376355Y334885D01*
X372765Y335325D02*
X372765Y324315D01*
X371355Y324315D01*
X371355Y335325D01*
X372765Y335325D01*
X372765Y325825D02*
X371355Y325825D01*
X371355Y327335D02*
X372765Y327335D01*
X372765Y328845D02*
X371355Y328845D01*
X371355Y330355D02*
X372765Y330355D01*
X372765Y331865D02*
X371355Y331865D01*
X371355Y333375D02*
X372765Y333375D01*
X372765Y334885D02*
X371355Y334885D01*
X367765Y335325D02*
X367765Y324315D01*
X366355Y324315D01*
X366355Y335325D01*
X367765Y335325D01*
X367765Y325825D02*
X366355Y325825D01*
X366355Y327335D02*
X367765Y327335D01*
X367765Y328845D02*
X366355Y328845D01*
X366355Y330355D02*
X367765Y330355D01*
X367765Y331865D02*
X366355Y331865D01*
X366355Y333375D02*
X367765Y333375D01*
X367765Y334885D02*
X366355Y334885D01*
X362765Y335325D02*
X362765Y324315D01*
X361355Y324315D01*
X361355Y335325D01*
X362765Y335325D01*
X362765Y325825D02*
X361355Y325825D01*
X361355Y327335D02*
X362765Y327335D01*
X362765Y328845D02*
X361355Y328845D01*
X361355Y330355D02*
X362765Y330355D01*
X362765Y331865D02*
X361355Y331865D01*
X361355Y333375D02*
X362765Y333375D01*
X362765Y334885D02*
X361355Y334885D01*
X357765Y335325D02*
X357765Y324315D01*
X356355Y324315D01*
X356355Y335325D01*
X357765Y335325D01*
X357765Y325825D02*
X356355Y325825D01*
X356355Y327335D02*
X357765Y327335D01*
X357765Y328845D02*
X356355Y328845D01*
X356355Y330355D02*
X357765Y330355D01*
X357765Y331865D02*
X356355Y331865D01*
X356355Y333375D02*
X357765Y333375D01*
X357765Y334885D02*
X356355Y334885D01*
X352765Y335325D02*
X352765Y324315D01*
X351355Y324315D01*
X351355Y335325D01*
X352765Y335325D01*
X352765Y325825D02*
X351355Y325825D01*
X351355Y327335D02*
X352765Y327335D01*
X352765Y328845D02*
X351355Y328845D01*
X351355Y330355D02*
X352765Y330355D01*
X352765Y331865D02*
X351355Y331865D01*
X351355Y333375D02*
X352765Y333375D01*
X352765Y334885D02*
X351355Y334885D01*
X347765Y335325D02*
X347765Y324315D01*
X346355Y324315D01*
X346355Y335325D01*
X347765Y335325D01*
X347765Y325825D02*
X346355Y325825D01*
X346355Y327335D02*
X347765Y327335D01*
X347765Y328845D02*
X346355Y328845D01*
X346355Y330355D02*
X347765Y330355D01*
X347765Y331865D02*
X346355Y331865D01*
X346355Y333375D02*
X347765Y333375D01*
X347765Y334885D02*
X346355Y334885D01*
X342765Y335325D02*
X342765Y324315D01*
X341355Y324315D01*
X341355Y335325D01*
X342765Y335325D01*
X342765Y325825D02*
X341355Y325825D01*
X341355Y327335D02*
X342765Y327335D01*
X342765Y328845D02*
X341355Y328845D01*
X341355Y330355D02*
X342765Y330355D01*
X342765Y331865D02*
X341355Y331865D01*
X341355Y333375D02*
X342765Y333375D01*
X342765Y334885D02*
X341355Y334885D01*
X337765Y335325D02*
X337765Y324315D01*
X336355Y324315D01*
X336355Y335325D01*
X337765Y335325D01*
X337765Y325825D02*
X336355Y325825D01*
X336355Y327335D02*
X337765Y327335D01*
X337765Y328845D02*
X336355Y328845D01*
X336355Y330355D02*
X337765Y330355D01*
X337765Y331865D02*
X336355Y331865D01*
X336355Y333375D02*
X337765Y333375D01*
X337765Y334885D02*
X336355Y334885D01*
X332765Y335325D02*
X332765Y324315D01*
X331355Y324315D01*
X331355Y335325D01*
X332765Y335325D01*
X332765Y325825D02*
X331355Y325825D01*
X331355Y327335D02*
X332765Y327335D01*
X332765Y328845D02*
X331355Y328845D01*
X331355Y330355D02*
X332765Y330355D01*
X332765Y331865D02*
X331355Y331865D01*
X331355Y333375D02*
X332765Y333375D01*
X332765Y334885D02*
X331355Y334885D01*
X327765Y335325D02*
X327765Y324315D01*
X326355Y324315D01*
X326355Y335325D01*
X327765Y335325D01*
X327765Y325825D02*
X326355Y325825D01*
X326355Y327335D02*
X327765Y327335D01*
X327765Y328845D02*
X326355Y328845D01*
X326355Y330355D02*
X327765Y330355D01*
X327765Y331865D02*
X326355Y331865D01*
X326355Y333375D02*
X327765Y333375D01*
X327765Y334885D02*
X326355Y334885D01*
X322765Y335325D02*
X322765Y324315D01*
X321355Y324315D01*
X321355Y335325D01*
X322765Y335325D01*
X322765Y325825D02*
X321355Y325825D01*
X321355Y327335D02*
X322765Y327335D01*
X322765Y328845D02*
X321355Y328845D01*
X321355Y330355D02*
X322765Y330355D01*
X322765Y331865D02*
X321355Y331865D01*
X321355Y333375D02*
X322765Y333375D01*
X322765Y334885D02*
X321355Y334885D01*
X317765Y335325D02*
X317765Y324315D01*
X316355Y324315D01*
X316355Y335325D01*
X317765Y335325D01*
X317765Y325825D02*
X316355Y325825D01*
X316355Y327335D02*
X317765Y327335D01*
X317765Y328845D02*
X316355Y328845D01*
X316355Y330355D02*
X317765Y330355D01*
X317765Y331865D02*
X316355Y331865D01*
X316355Y333375D02*
X317765Y333375D01*
X317765Y334885D02*
X316355Y334885D01*
X312765Y335325D02*
X312765Y324315D01*
X311355Y324315D01*
X311355Y335325D01*
X312765Y335325D01*
X312765Y325825D02*
X311355Y325825D01*
X311355Y327335D02*
X312765Y327335D01*
X312765Y328845D02*
X311355Y328845D01*
X311355Y330355D02*
X312765Y330355D01*
X312765Y331865D02*
X311355Y331865D01*
X311355Y333375D02*
X312765Y333375D01*
X312765Y334885D02*
X311355Y334885D01*
X307765Y335325D02*
X307765Y324315D01*
X306355Y324315D01*
X306355Y335325D01*
X307765Y335325D01*
X307765Y325825D02*
X306355Y325825D01*
X306355Y327335D02*
X307765Y327335D01*
X307765Y328845D02*
X306355Y328845D01*
X306355Y330355D02*
X307765Y330355D01*
X307765Y331865D02*
X306355Y331865D01*
X306355Y333375D02*
X307765Y333375D01*
X307765Y334885D02*
X306355Y334885D01*
X302765Y335325D02*
X302765Y324315D01*
X301355Y324315D01*
X301355Y335325D01*
X302765Y335325D01*
X302765Y325825D02*
X301355Y325825D01*
X301355Y327335D02*
X302765Y327335D01*
X302765Y328845D02*
X301355Y328845D01*
X301355Y330355D02*
X302765Y330355D01*
X302765Y331865D02*
X301355Y331865D01*
X301355Y333375D02*
X302765Y333375D01*
X302765Y334885D02*
X301355Y334885D01*
X297765Y335325D02*
X297765Y324315D01*
X296355Y324315D01*
X296355Y335325D01*
X297765Y335325D01*
X297765Y325825D02*
X296355Y325825D01*
X296355Y327335D02*
X297765Y327335D01*
X297765Y328845D02*
X296355Y328845D01*
X296355Y330355D02*
X297765Y330355D01*
X297765Y331865D02*
X296355Y331865D01*
X296355Y333375D02*
X297765Y333375D01*
X297765Y334885D02*
X296355Y334885D01*
X292765Y335325D02*
X292765Y324315D01*
X291355Y324315D01*
X291355Y335325D01*
X292765Y335325D01*
X292765Y325825D02*
X291355Y325825D01*
X291355Y327335D02*
X292765Y327335D01*
X292765Y328845D02*
X291355Y328845D01*
X291355Y330355D02*
X292765Y330355D01*
X292765Y331865D02*
X291355Y331865D01*
X291355Y333375D02*
X292765Y333375D01*
X292765Y334885D02*
X291355Y334885D01*
X287765Y335325D02*
X287765Y324315D01*
X286355Y324315D01*
X286355Y335325D01*
X287765Y335325D01*
X287765Y325825D02*
X286355Y325825D01*
X286355Y327335D02*
X287765Y327335D01*
X287765Y328845D02*
X286355Y328845D01*
X286355Y330355D02*
X287765Y330355D01*
X287765Y331865D02*
X286355Y331865D01*
X286355Y333375D02*
X287765Y333375D01*
X287765Y334885D02*
X286355Y334885D01*
X282765Y335325D02*
X282765Y324315D01*
X281355Y324315D01*
X281355Y335325D01*
X282765Y335325D01*
X282765Y325825D02*
X281355Y325825D01*
X281355Y327335D02*
X282765Y327335D01*
X282765Y328845D02*
X281355Y328845D01*
X281355Y330355D02*
X282765Y330355D01*
X282765Y331865D02*
X281355Y331865D01*
X281355Y333375D02*
X282765Y333375D01*
X282765Y334885D02*
X281355Y334885D01*
X277765Y335325D02*
X277765Y324315D01*
X276355Y324315D01*
X276355Y335325D01*
X277765Y335325D01*
X277765Y325825D02*
X276355Y325825D01*
X276355Y327335D02*
X277765Y327335D01*
X277765Y328845D02*
X276355Y328845D01*
X276355Y330355D02*
X277765Y330355D01*
X277765Y331865D02*
X276355Y331865D01*
X276355Y333375D02*
X277765Y333375D01*
X277765Y334885D02*
X276355Y334885D01*
X272765Y335325D02*
X272765Y324315D01*
X271355Y324315D01*
X271355Y335325D01*
X272765Y335325D01*
X272765Y325825D02*
X271355Y325825D01*
X271355Y327335D02*
X272765Y327335D01*
X272765Y328845D02*
X271355Y328845D01*
X271355Y330355D02*
X272765Y330355D01*
X272765Y331865D02*
X271355Y331865D01*
X271355Y333375D02*
X272765Y333375D01*
X272765Y334885D02*
X271355Y334885D01*
X267765Y335325D02*
X267765Y324315D01*
X266355Y324315D01*
X266355Y335325D01*
X267765Y335325D01*
X267765Y325825D02*
X266355Y325825D01*
X266355Y327335D02*
X267765Y327335D01*
X267765Y328845D02*
X266355Y328845D01*
X266355Y330355D02*
X267765Y330355D01*
X267765Y331865D02*
X266355Y331865D01*
X266355Y333375D02*
X267765Y333375D01*
X267765Y334885D02*
X266355Y334885D01*
X262765Y335325D02*
X262765Y324315D01*
X261355Y324315D01*
X261355Y335325D01*
X262765Y335325D01*
X262765Y325825D02*
X261355Y325825D01*
X261355Y327335D02*
X262765Y327335D01*
X262765Y328845D02*
X261355Y328845D01*
X261355Y330355D02*
X262765Y330355D01*
X262765Y331865D02*
X261355Y331865D01*
X261355Y333375D02*
X262765Y333375D01*
X262765Y334885D02*
X261355Y334885D01*
X257765Y335325D02*
X257765Y324315D01*
X256355Y324315D01*
X256355Y335325D01*
X257765Y335325D01*
X257765Y325825D02*
X256355Y325825D01*
X256355Y327335D02*
X257765Y327335D01*
X257765Y328845D02*
X256355Y328845D01*
X256355Y330355D02*
X257765Y330355D01*
X257765Y331865D02*
X256355Y331865D01*
X256355Y333375D02*
X257765Y333375D01*
X257765Y334885D02*
X256355Y334885D01*
X252765Y335325D02*
X252765Y324315D01*
X251355Y324315D01*
X251355Y335325D01*
X252765Y335325D01*
X252765Y325825D02*
X251355Y325825D01*
X251355Y327335D02*
X252765Y327335D01*
X252765Y328845D02*
X251355Y328845D01*
X251355Y330355D02*
X252765Y330355D01*
X252765Y331865D02*
X251355Y331865D01*
X251355Y333375D02*
X252765Y333375D01*
X252765Y334885D02*
X251355Y334885D01*
X247765Y335325D02*
X247765Y324315D01*
X246355Y324315D01*
X246355Y335325D01*
X247765Y335325D01*
X247765Y325825D02*
X246355Y325825D01*
X246355Y327335D02*
X247765Y327335D01*
X247765Y328845D02*
X246355Y328845D01*
X246355Y330355D02*
X247765Y330355D01*
X247765Y331865D02*
X246355Y331865D01*
X246355Y333375D02*
X247765Y333375D01*
X247765Y334885D02*
X246355Y334885D01*
X242765Y335325D02*
X242765Y324315D01*
X241355Y324315D01*
X241355Y335325D01*
X242765Y335325D01*
X242765Y325825D02*
X241355Y325825D01*
X241355Y327335D02*
X242765Y327335D01*
X242765Y328845D02*
X241355Y328845D01*
X241355Y330355D02*
X242765Y330355D01*
X242765Y331865D02*
X241355Y331865D01*
X241355Y333375D02*
X242765Y333375D01*
X242765Y334885D02*
X241355Y334885D01*
X237765Y335325D02*
X237765Y324315D01*
X236355Y324315D01*
X236355Y335325D01*
X237765Y335325D01*
X237765Y325825D02*
X236355Y325825D01*
X236355Y327335D02*
X237765Y327335D01*
X237765Y328845D02*
X236355Y328845D01*
X236355Y330355D02*
X237765Y330355D01*
X237765Y331865D02*
X236355Y331865D01*
X236355Y333375D02*
X237765Y333375D01*
X237765Y334885D02*
X236355Y334885D01*
X232765Y335325D02*
X232765Y324315D01*
X231355Y324315D01*
X231355Y335325D01*
X232765Y335325D01*
X232765Y325825D02*
X231355Y325825D01*
X231355Y327335D02*
X232765Y327335D01*
X232765Y328845D02*
X231355Y328845D01*
X231355Y330355D02*
X232765Y330355D01*
X232765Y331865D02*
X231355Y331865D01*
X231355Y333375D02*
X232765Y333375D01*
X232765Y334885D02*
X231355Y334885D01*
X227765Y335325D02*
X227765Y324315D01*
X226355Y324315D01*
X226355Y335325D01*
X227765Y335325D01*
X227765Y325825D02*
X226355Y325825D01*
X226355Y327335D02*
X227765Y327335D01*
X227765Y328845D02*
X226355Y328845D01*
X226355Y330355D02*
X227765Y330355D01*
X227765Y331865D02*
X226355Y331865D01*
X226355Y333375D02*
X227765Y333375D01*
X227765Y334885D02*
X226355Y334885D01*
X222765Y335325D02*
X222765Y324315D01*
X221355Y324315D01*
X221355Y335325D01*
X222765Y335325D01*
X222765Y325825D02*
X221355Y325825D01*
X221355Y327335D02*
X222765Y327335D01*
X222765Y328845D02*
X221355Y328845D01*
X221355Y330355D02*
X222765Y330355D01*
X222765Y331865D02*
X221355Y331865D01*
X221355Y333375D02*
X222765Y333375D01*
X222765Y334885D02*
X221355Y334885D01*
X217765Y335325D02*
X217765Y324315D01*
X216355Y324315D01*
X216355Y335325D01*
X217765Y335325D01*
X217765Y325825D02*
X216355Y325825D01*
X216355Y327335D02*
X217765Y327335D01*
X217765Y328845D02*
X216355Y328845D01*
X216355Y330355D02*
X217765Y330355D01*
X217765Y331865D02*
X216355Y331865D01*
X216355Y333375D02*
X217765Y333375D01*
X217765Y334885D02*
X216355Y334885D01*
X212765Y335325D02*
X212765Y324315D01*
X211355Y324315D01*
X211355Y335325D01*
X212765Y335325D01*
X212765Y325825D02*
X211355Y325825D01*
X211355Y327335D02*
X212765Y327335D01*
X212765Y328845D02*
X211355Y328845D01*
X211355Y330355D02*
X212765Y330355D01*
X212765Y331865D02*
X211355Y331865D01*
X211355Y333375D02*
X212765Y333375D01*
X212765Y334885D02*
X211355Y334885D01*
X207765Y335325D02*
X207765Y324315D01*
X206355Y324315D01*
X206355Y335325D01*
X207765Y335325D01*
X207765Y325825D02*
X206355Y325825D01*
X206355Y327335D02*
X207765Y327335D01*
X207765Y328845D02*
X206355Y328845D01*
X206355Y330355D02*
X207765Y330355D01*
X207765Y331865D02*
X206355Y331865D01*
X206355Y333375D02*
X207765Y333375D01*
X207765Y334885D02*
X206355Y334885D01*
X202765Y335325D02*
X202765Y324315D01*
X201355Y324315D01*
X201355Y335325D01*
X202765Y335325D01*
X202765Y325825D02*
X201355Y325825D01*
X201355Y327335D02*
X202765Y327335D01*
X202765Y328845D02*
X201355Y328845D01*
X201355Y330355D02*
X202765Y330355D01*
X202765Y331865D02*
X201355Y331865D01*
X201355Y333375D02*
X202765Y333375D01*
X202765Y334885D02*
X201355Y334885D01*
X188765Y311725D02*
X177755Y311725D01*
X188765Y311725D02*
X188765Y310315D01*
X177755Y310315D01*
X177755Y311725D01*
X177755Y306725D02*
X188765Y306725D01*
X188765Y305315D01*
X177755Y305315D01*
X177755Y306725D01*
X177755Y301725D02*
X188765Y301725D01*
X188765Y300315D01*
X177755Y300315D01*
X177755Y301725D01*
X177755Y296725D02*
X188765Y296725D01*
X188765Y295315D01*
X177755Y295315D01*
X177755Y296725D01*
X177755Y291725D02*
X188765Y291725D01*
X188765Y290315D01*
X177755Y290315D01*
X177755Y291725D01*
X177755Y286725D02*
X188765Y286725D01*
X188765Y285315D01*
X177755Y285315D01*
X177755Y286725D01*
X177755Y281725D02*
X188765Y281725D01*
X188765Y280315D01*
X177755Y280315D01*
X177755Y281725D01*
X177755Y276725D02*
X188765Y276725D01*
X188765Y275315D01*
X177755Y275315D01*
X177755Y276725D01*
X177755Y271725D02*
X188765Y271725D01*
X188765Y270315D01*
X177755Y270315D01*
X177755Y271725D01*
X177755Y266725D02*
X188765Y266725D01*
X188765Y265315D01*
X177755Y265315D01*
X177755Y266725D01*
X177755Y261725D02*
X188765Y261725D01*
X188765Y260315D01*
X177755Y260315D01*
X177755Y261725D01*
X177755Y256725D02*
X188765Y256725D01*
X188765Y255315D01*
X177755Y255315D01*
X177755Y256725D01*
X177755Y251725D02*
X188765Y251725D01*
X188765Y250315D01*
X177755Y250315D01*
X177755Y251725D01*
X177755Y246725D02*
X188765Y246725D01*
X188765Y245315D01*
X177755Y245315D01*
X177755Y246725D01*
X177755Y241725D02*
X188765Y241725D01*
X188765Y240315D01*
X177755Y240315D01*
X177755Y241725D01*
X177755Y236725D02*
X188765Y236725D01*
X188765Y235315D01*
X177755Y235315D01*
X177755Y236725D01*
X177755Y231725D02*
X188765Y231725D01*
X188765Y230315D01*
X177755Y230315D01*
X177755Y231725D01*
X177755Y226725D02*
X188765Y226725D01*
X188765Y225315D01*
X177755Y225315D01*
X177755Y226725D01*
X177755Y221725D02*
X188765Y221725D01*
X188765Y220315D01*
X177755Y220315D01*
X177755Y221725D01*
X177755Y216725D02*
X188765Y216725D01*
X188765Y215315D01*
X177755Y215315D01*
X177755Y216725D01*
X177755Y211725D02*
X188765Y211725D01*
X188765Y210315D01*
X177755Y210315D01*
X177755Y211725D01*
X177755Y206725D02*
X188765Y206725D01*
X188765Y205315D01*
X177755Y205315D01*
X177755Y206725D01*
X177755Y201725D02*
X188765Y201725D01*
X188765Y200315D01*
X177755Y200315D01*
X177755Y201725D01*
X177755Y196725D02*
X188765Y196725D01*
X188765Y195315D01*
X177755Y195315D01*
X177755Y196725D01*
X177755Y191725D02*
X188765Y191725D01*
X188765Y190315D01*
X177755Y190315D01*
X177755Y191725D01*
X177755Y186725D02*
X188765Y186725D01*
X188765Y185315D01*
X177755Y185315D01*
X177755Y186725D01*
X177755Y181725D02*
X188765Y181725D01*
X188765Y180315D01*
X177755Y180315D01*
X177755Y181725D01*
X177755Y176725D02*
X188765Y176725D01*
X188765Y175315D01*
X177755Y175315D01*
X177755Y176725D01*
X177755Y171725D02*
X188765Y171725D01*
X188765Y170315D01*
X177755Y170315D01*
X177755Y171725D01*
X177755Y166725D02*
X188765Y166725D01*
X188765Y165315D01*
X177755Y165315D01*
X177755Y166725D01*
X177755Y161725D02*
X188765Y161725D01*
X188765Y160315D01*
X177755Y160315D01*
X177755Y161725D01*
X177755Y156725D02*
X188765Y156725D01*
X188765Y155315D01*
X177755Y155315D01*
X177755Y156725D01*
X177755Y151725D02*
X188765Y151725D01*
X188765Y150315D01*
X177755Y150315D01*
X177755Y151725D01*
X177755Y146725D02*
X188765Y146725D01*
X188765Y145315D01*
X177755Y145315D01*
X177755Y146725D01*
X177755Y141725D02*
X188765Y141725D01*
X188765Y140315D01*
X177755Y140315D01*
X177755Y141725D01*
X177755Y136725D02*
X188765Y136725D01*
X188765Y135315D01*
X177755Y135315D01*
X177755Y136725D01*
X201355Y122725D02*
X201355Y111715D01*
X201355Y122725D02*
X202765Y122725D01*
X202765Y111715D01*
X201355Y111715D01*
X201355Y113225D02*
X202765Y113225D01*
X202765Y114735D02*
X201355Y114735D01*
X201355Y116245D02*
X202765Y116245D01*
X202765Y117755D02*
X201355Y117755D01*
X201355Y119265D02*
X202765Y119265D01*
X202765Y120775D02*
X201355Y120775D01*
X201355Y122285D02*
X202765Y122285D01*
X206355Y122725D02*
X206355Y111715D01*
X206355Y122725D02*
X207765Y122725D01*
X207765Y111715D01*
X206355Y111715D01*
X206355Y113225D02*
X207765Y113225D01*
X207765Y114735D02*
X206355Y114735D01*
X206355Y116245D02*
X207765Y116245D01*
X207765Y117755D02*
X206355Y117755D01*
X206355Y119265D02*
X207765Y119265D01*
X207765Y120775D02*
X206355Y120775D01*
X206355Y122285D02*
X207765Y122285D01*
X211355Y122725D02*
X211355Y111715D01*
X211355Y122725D02*
X212765Y122725D01*
X212765Y111715D01*
X211355Y111715D01*
X211355Y113225D02*
X212765Y113225D01*
X212765Y114735D02*
X211355Y114735D01*
X211355Y116245D02*
X212765Y116245D01*
X212765Y117755D02*
X211355Y117755D01*
X211355Y119265D02*
X212765Y119265D01*
X212765Y120775D02*
X211355Y120775D01*
X211355Y122285D02*
X212765Y122285D01*
X216355Y122725D02*
X216355Y111715D01*
X216355Y122725D02*
X217765Y122725D01*
X217765Y111715D01*
X216355Y111715D01*
X216355Y113225D02*
X217765Y113225D01*
X217765Y114735D02*
X216355Y114735D01*
X216355Y116245D02*
X217765Y116245D01*
X217765Y117755D02*
X216355Y117755D01*
X216355Y119265D02*
X217765Y119265D01*
X217765Y120775D02*
X216355Y120775D01*
X216355Y122285D02*
X217765Y122285D01*
X221355Y122725D02*
X221355Y111715D01*
X221355Y122725D02*
X222765Y122725D01*
X222765Y111715D01*
X221355Y111715D01*
X221355Y113225D02*
X222765Y113225D01*
X222765Y114735D02*
X221355Y114735D01*
X221355Y116245D02*
X222765Y116245D01*
X222765Y117755D02*
X221355Y117755D01*
X221355Y119265D02*
X222765Y119265D01*
X222765Y120775D02*
X221355Y120775D01*
X221355Y122285D02*
X222765Y122285D01*
X226355Y122725D02*
X226355Y111715D01*
X226355Y122725D02*
X227765Y122725D01*
X227765Y111715D01*
X226355Y111715D01*
X226355Y113225D02*
X227765Y113225D01*
X227765Y114735D02*
X226355Y114735D01*
X226355Y116245D02*
X227765Y116245D01*
X227765Y117755D02*
X226355Y117755D01*
X226355Y119265D02*
X227765Y119265D01*
X227765Y120775D02*
X226355Y120775D01*
X226355Y122285D02*
X227765Y122285D01*
X231355Y122725D02*
X231355Y111715D01*
X231355Y122725D02*
X232765Y122725D01*
X232765Y111715D01*
X231355Y111715D01*
X231355Y113225D02*
X232765Y113225D01*
X232765Y114735D02*
X231355Y114735D01*
X231355Y116245D02*
X232765Y116245D01*
X232765Y117755D02*
X231355Y117755D01*
X231355Y119265D02*
X232765Y119265D01*
X232765Y120775D02*
X231355Y120775D01*
X231355Y122285D02*
X232765Y122285D01*
X236355Y122725D02*
X236355Y111715D01*
X236355Y122725D02*
X237765Y122725D01*
X237765Y111715D01*
X236355Y111715D01*
X236355Y113225D02*
X237765Y113225D01*
X237765Y114735D02*
X236355Y114735D01*
X236355Y116245D02*
X237765Y116245D01*
X237765Y117755D02*
X236355Y117755D01*
X236355Y119265D02*
X237765Y119265D01*
X237765Y120775D02*
X236355Y120775D01*
X236355Y122285D02*
X237765Y122285D01*
X241355Y122725D02*
X241355Y111715D01*
X241355Y122725D02*
X242765Y122725D01*
X242765Y111715D01*
X241355Y111715D01*
X241355Y113225D02*
X242765Y113225D01*
X242765Y114735D02*
X241355Y114735D01*
X241355Y116245D02*
X242765Y116245D01*
X242765Y117755D02*
X241355Y117755D01*
X241355Y119265D02*
X242765Y119265D01*
X242765Y120775D02*
X241355Y120775D01*
X241355Y122285D02*
X242765Y122285D01*
X246355Y122725D02*
X246355Y111715D01*
X246355Y122725D02*
X247765Y122725D01*
X247765Y111715D01*
X246355Y111715D01*
X246355Y113225D02*
X247765Y113225D01*
X247765Y114735D02*
X246355Y114735D01*
X246355Y116245D02*
X247765Y116245D01*
X247765Y117755D02*
X246355Y117755D01*
X246355Y119265D02*
X247765Y119265D01*
X247765Y120775D02*
X246355Y120775D01*
X246355Y122285D02*
X247765Y122285D01*
X251355Y122725D02*
X251355Y111715D01*
X251355Y122725D02*
X252765Y122725D01*
X252765Y111715D01*
X251355Y111715D01*
X251355Y113225D02*
X252765Y113225D01*
X252765Y114735D02*
X251355Y114735D01*
X251355Y116245D02*
X252765Y116245D01*
X252765Y117755D02*
X251355Y117755D01*
X251355Y119265D02*
X252765Y119265D01*
X252765Y120775D02*
X251355Y120775D01*
X251355Y122285D02*
X252765Y122285D01*
X256355Y122725D02*
X256355Y111715D01*
X256355Y122725D02*
X257765Y122725D01*
X257765Y111715D01*
X256355Y111715D01*
X256355Y113225D02*
X257765Y113225D01*
X257765Y114735D02*
X256355Y114735D01*
X256355Y116245D02*
X257765Y116245D01*
X257765Y117755D02*
X256355Y117755D01*
X256355Y119265D02*
X257765Y119265D01*
X257765Y120775D02*
X256355Y120775D01*
X256355Y122285D02*
X257765Y122285D01*
X261355Y122725D02*
X261355Y111715D01*
X261355Y122725D02*
X262765Y122725D01*
X262765Y111715D01*
X261355Y111715D01*
X261355Y113225D02*
X262765Y113225D01*
X262765Y114735D02*
X261355Y114735D01*
X261355Y116245D02*
X262765Y116245D01*
X262765Y117755D02*
X261355Y117755D01*
X261355Y119265D02*
X262765Y119265D01*
X262765Y120775D02*
X261355Y120775D01*
X261355Y122285D02*
X262765Y122285D01*
X266355Y122725D02*
X266355Y111715D01*
X266355Y122725D02*
X267765Y122725D01*
X267765Y111715D01*
X266355Y111715D01*
X266355Y113225D02*
X267765Y113225D01*
X267765Y114735D02*
X266355Y114735D01*
X266355Y116245D02*
X267765Y116245D01*
X267765Y117755D02*
X266355Y117755D01*
X266355Y119265D02*
X267765Y119265D01*
X267765Y120775D02*
X266355Y120775D01*
X266355Y122285D02*
X267765Y122285D01*
X271355Y122725D02*
X271355Y111715D01*
X271355Y122725D02*
X272765Y122725D01*
X272765Y111715D01*
X271355Y111715D01*
X271355Y113225D02*
X272765Y113225D01*
X272765Y114735D02*
X271355Y114735D01*
X271355Y116245D02*
X272765Y116245D01*
X272765Y117755D02*
X271355Y117755D01*
X271355Y119265D02*
X272765Y119265D01*
X272765Y120775D02*
X271355Y120775D01*
X271355Y122285D02*
X272765Y122285D01*
X276355Y122725D02*
X276355Y111715D01*
X276355Y122725D02*
X277765Y122725D01*
X277765Y111715D01*
X276355Y111715D01*
X276355Y113225D02*
X277765Y113225D01*
X277765Y114735D02*
X276355Y114735D01*
X276355Y116245D02*
X277765Y116245D01*
X277765Y117755D02*
X276355Y117755D01*
X276355Y119265D02*
X277765Y119265D01*
X277765Y120775D02*
X276355Y120775D01*
X276355Y122285D02*
X277765Y122285D01*
X281355Y122725D02*
X281355Y111715D01*
X281355Y122725D02*
X282765Y122725D01*
X282765Y111715D01*
X281355Y111715D01*
X281355Y113225D02*
X282765Y113225D01*
X282765Y114735D02*
X281355Y114735D01*
X281355Y116245D02*
X282765Y116245D01*
X282765Y117755D02*
X281355Y117755D01*
X281355Y119265D02*
X282765Y119265D01*
X282765Y120775D02*
X281355Y120775D01*
X281355Y122285D02*
X282765Y122285D01*
X286355Y122725D02*
X286355Y111715D01*
X286355Y122725D02*
X287765Y122725D01*
X287765Y111715D01*
X286355Y111715D01*
X286355Y113225D02*
X287765Y113225D01*
X287765Y114735D02*
X286355Y114735D01*
X286355Y116245D02*
X287765Y116245D01*
X287765Y117755D02*
X286355Y117755D01*
X286355Y119265D02*
X287765Y119265D01*
X287765Y120775D02*
X286355Y120775D01*
X286355Y122285D02*
X287765Y122285D01*
X291355Y122725D02*
X291355Y111715D01*
X291355Y122725D02*
X292765Y122725D01*
X292765Y111715D01*
X291355Y111715D01*
X291355Y113225D02*
X292765Y113225D01*
X292765Y114735D02*
X291355Y114735D01*
X291355Y116245D02*
X292765Y116245D01*
X292765Y117755D02*
X291355Y117755D01*
X291355Y119265D02*
X292765Y119265D01*
X292765Y120775D02*
X291355Y120775D01*
X291355Y122285D02*
X292765Y122285D01*
X296355Y122725D02*
X296355Y111715D01*
X296355Y122725D02*
X297765Y122725D01*
X297765Y111715D01*
X296355Y111715D01*
X296355Y113225D02*
X297765Y113225D01*
X297765Y114735D02*
X296355Y114735D01*
X296355Y116245D02*
X297765Y116245D01*
X297765Y117755D02*
X296355Y117755D01*
X296355Y119265D02*
X297765Y119265D01*
X297765Y120775D02*
X296355Y120775D01*
X296355Y122285D02*
X297765Y122285D01*
X301355Y122725D02*
X301355Y111715D01*
X301355Y122725D02*
X302765Y122725D01*
X302765Y111715D01*
X301355Y111715D01*
X301355Y113225D02*
X302765Y113225D01*
X302765Y114735D02*
X301355Y114735D01*
X301355Y116245D02*
X302765Y116245D01*
X302765Y117755D02*
X301355Y117755D01*
X301355Y119265D02*
X302765Y119265D01*
X302765Y120775D02*
X301355Y120775D01*
X301355Y122285D02*
X302765Y122285D01*
X306355Y122725D02*
X306355Y111715D01*
X306355Y122725D02*
X307765Y122725D01*
X307765Y111715D01*
X306355Y111715D01*
X306355Y113225D02*
X307765Y113225D01*
X307765Y114735D02*
X306355Y114735D01*
X306355Y116245D02*
X307765Y116245D01*
X307765Y117755D02*
X306355Y117755D01*
X306355Y119265D02*
X307765Y119265D01*
X307765Y120775D02*
X306355Y120775D01*
X306355Y122285D02*
X307765Y122285D01*
X311355Y122725D02*
X311355Y111715D01*
X311355Y122725D02*
X312765Y122725D01*
X312765Y111715D01*
X311355Y111715D01*
X311355Y113225D02*
X312765Y113225D01*
X312765Y114735D02*
X311355Y114735D01*
X311355Y116245D02*
X312765Y116245D01*
X312765Y117755D02*
X311355Y117755D01*
X311355Y119265D02*
X312765Y119265D01*
X312765Y120775D02*
X311355Y120775D01*
X311355Y122285D02*
X312765Y122285D01*
X316355Y122725D02*
X316355Y111715D01*
X316355Y122725D02*
X317765Y122725D01*
X317765Y111715D01*
X316355Y111715D01*
X316355Y113225D02*
X317765Y113225D01*
X317765Y114735D02*
X316355Y114735D01*
X316355Y116245D02*
X317765Y116245D01*
X317765Y117755D02*
X316355Y117755D01*
X316355Y119265D02*
X317765Y119265D01*
X317765Y120775D02*
X316355Y120775D01*
X316355Y122285D02*
X317765Y122285D01*
X321355Y122725D02*
X321355Y111715D01*
X321355Y122725D02*
X322765Y122725D01*
X322765Y111715D01*
X321355Y111715D01*
X321355Y113225D02*
X322765Y113225D01*
X322765Y114735D02*
X321355Y114735D01*
X321355Y116245D02*
X322765Y116245D01*
X322765Y117755D02*
X321355Y117755D01*
X321355Y119265D02*
X322765Y119265D01*
X322765Y120775D02*
X321355Y120775D01*
X321355Y122285D02*
X322765Y122285D01*
X326355Y122725D02*
X326355Y111715D01*
X326355Y122725D02*
X327765Y122725D01*
X327765Y111715D01*
X326355Y111715D01*
X326355Y113225D02*
X327765Y113225D01*
X327765Y114735D02*
X326355Y114735D01*
X326355Y116245D02*
X327765Y116245D01*
X327765Y117755D02*
X326355Y117755D01*
X326355Y119265D02*
X327765Y119265D01*
X327765Y120775D02*
X326355Y120775D01*
X326355Y122285D02*
X327765Y122285D01*
X331355Y122725D02*
X331355Y111715D01*
X331355Y122725D02*
X332765Y122725D01*
X332765Y111715D01*
X331355Y111715D01*
X331355Y113225D02*
X332765Y113225D01*
X332765Y114735D02*
X331355Y114735D01*
X331355Y116245D02*
X332765Y116245D01*
X332765Y117755D02*
X331355Y117755D01*
X331355Y119265D02*
X332765Y119265D01*
X332765Y120775D02*
X331355Y120775D01*
X331355Y122285D02*
X332765Y122285D01*
X336355Y122725D02*
X336355Y111715D01*
X336355Y122725D02*
X337765Y122725D01*
X337765Y111715D01*
X336355Y111715D01*
X336355Y113225D02*
X337765Y113225D01*
X337765Y114735D02*
X336355Y114735D01*
X336355Y116245D02*
X337765Y116245D01*
X337765Y117755D02*
X336355Y117755D01*
X336355Y119265D02*
X337765Y119265D01*
X337765Y120775D02*
X336355Y120775D01*
X336355Y122285D02*
X337765Y122285D01*
X341355Y122725D02*
X341355Y111715D01*
X341355Y122725D02*
X342765Y122725D01*
X342765Y111715D01*
X341355Y111715D01*
X341355Y113225D02*
X342765Y113225D01*
X342765Y114735D02*
X341355Y114735D01*
X341355Y116245D02*
X342765Y116245D01*
X342765Y117755D02*
X341355Y117755D01*
X341355Y119265D02*
X342765Y119265D01*
X342765Y120775D02*
X341355Y120775D01*
X341355Y122285D02*
X342765Y122285D01*
X346355Y122725D02*
X346355Y111715D01*
X346355Y122725D02*
X347765Y122725D01*
X347765Y111715D01*
X346355Y111715D01*
X346355Y113225D02*
X347765Y113225D01*
X347765Y114735D02*
X346355Y114735D01*
X346355Y116245D02*
X347765Y116245D01*
X347765Y117755D02*
X346355Y117755D01*
X346355Y119265D02*
X347765Y119265D01*
X347765Y120775D02*
X346355Y120775D01*
X346355Y122285D02*
X347765Y122285D01*
X351355Y122725D02*
X351355Y111715D01*
X351355Y122725D02*
X352765Y122725D01*
X352765Y111715D01*
X351355Y111715D01*
X351355Y113225D02*
X352765Y113225D01*
X352765Y114735D02*
X351355Y114735D01*
X351355Y116245D02*
X352765Y116245D01*
X352765Y117755D02*
X351355Y117755D01*
X351355Y119265D02*
X352765Y119265D01*
X352765Y120775D02*
X351355Y120775D01*
X351355Y122285D02*
X352765Y122285D01*
X356355Y122725D02*
X356355Y111715D01*
X356355Y122725D02*
X357765Y122725D01*
X357765Y111715D01*
X356355Y111715D01*
X356355Y113225D02*
X357765Y113225D01*
X357765Y114735D02*
X356355Y114735D01*
X356355Y116245D02*
X357765Y116245D01*
X357765Y117755D02*
X356355Y117755D01*
X356355Y119265D02*
X357765Y119265D01*
X357765Y120775D02*
X356355Y120775D01*
X356355Y122285D02*
X357765Y122285D01*
X361355Y122725D02*
X361355Y111715D01*
X361355Y122725D02*
X362765Y122725D01*
X362765Y111715D01*
X361355Y111715D01*
X361355Y113225D02*
X362765Y113225D01*
X362765Y114735D02*
X361355Y114735D01*
X361355Y116245D02*
X362765Y116245D01*
X362765Y117755D02*
X361355Y117755D01*
X361355Y119265D02*
X362765Y119265D01*
X362765Y120775D02*
X361355Y120775D01*
X361355Y122285D02*
X362765Y122285D01*
X366355Y122725D02*
X366355Y111715D01*
X366355Y122725D02*
X367765Y122725D01*
X367765Y111715D01*
X366355Y111715D01*
X366355Y113225D02*
X367765Y113225D01*
X367765Y114735D02*
X366355Y114735D01*
X366355Y116245D02*
X367765Y116245D01*
X367765Y117755D02*
X366355Y117755D01*
X366355Y119265D02*
X367765Y119265D01*
X367765Y120775D02*
X366355Y120775D01*
X366355Y122285D02*
X367765Y122285D01*
X371355Y122725D02*
X371355Y111715D01*
X371355Y122725D02*
X372765Y122725D01*
X372765Y111715D01*
X371355Y111715D01*
X371355Y113225D02*
X372765Y113225D01*
X372765Y114735D02*
X371355Y114735D01*
X371355Y116245D02*
X372765Y116245D01*
X372765Y117755D02*
X371355Y117755D01*
X371355Y119265D02*
X372765Y119265D01*
X372765Y120775D02*
X371355Y120775D01*
X371355Y122285D02*
X372765Y122285D01*
X376355Y122725D02*
X376355Y111715D01*
X376355Y122725D02*
X377765Y122725D01*
X377765Y111715D01*
X376355Y111715D01*
X376355Y113225D02*
X377765Y113225D01*
X377765Y114735D02*
X376355Y114735D01*
X376355Y116245D02*
X377765Y116245D01*
X377765Y117755D02*
X376355Y117755D01*
X376355Y119265D02*
X377765Y119265D01*
X377765Y120775D02*
X376355Y120775D01*
X376355Y122285D02*
X377765Y122285D01*
X390355Y135315D02*
X401365Y135315D01*
X390355Y135315D02*
X390355Y136725D01*
X401365Y136725D01*
X401365Y135315D01*
X401365Y140315D02*
X390355Y140315D01*
X390355Y141725D01*
X401365Y141725D01*
X401365Y140315D01*
X401365Y145315D02*
X390355Y145315D01*
X390355Y146725D01*
X401365Y146725D01*
X401365Y145315D01*
X401365Y150315D02*
X390355Y150315D01*
X390355Y151725D01*
X401365Y151725D01*
X401365Y150315D01*
X401365Y155315D02*
X390355Y155315D01*
X390355Y156725D01*
X401365Y156725D01*
X401365Y155315D01*
X401365Y160315D02*
X390355Y160315D01*
X390355Y161725D01*
X401365Y161725D01*
X401365Y160315D01*
X401365Y165315D02*
X390355Y165315D01*
X390355Y166725D01*
X401365Y166725D01*
X401365Y165315D01*
X401365Y170315D02*
X390355Y170315D01*
X390355Y171725D01*
X401365Y171725D01*
X401365Y170315D01*
X401365Y175315D02*
X390355Y175315D01*
X390355Y176725D01*
X401365Y176725D01*
X401365Y175315D01*
X401365Y180315D02*
X390355Y180315D01*
X390355Y181725D01*
X401365Y181725D01*
X401365Y180315D01*
X401365Y185315D02*
X390355Y185315D01*
X390355Y186725D01*
X401365Y186725D01*
X401365Y185315D01*
X401365Y190315D02*
X390355Y190315D01*
X390355Y191725D01*
X401365Y191725D01*
X401365Y190315D01*
X401365Y195315D02*
X390355Y195315D01*
X390355Y196725D01*
X401365Y196725D01*
X401365Y195315D01*
X401365Y200315D02*
X390355Y200315D01*
X390355Y201725D01*
X401365Y201725D01*
X401365Y200315D01*
X401365Y205315D02*
X390355Y205315D01*
X390355Y206725D01*
X401365Y206725D01*
X401365Y205315D01*
X401365Y210315D02*
X390355Y210315D01*
X390355Y211725D01*
X401365Y211725D01*
X401365Y210315D01*
X401365Y215315D02*
X390355Y215315D01*
X390355Y216725D01*
X401365Y216725D01*
X401365Y215315D01*
X401365Y220315D02*
X390355Y220315D01*
X390355Y221725D01*
X401365Y221725D01*
X401365Y220315D01*
X401365Y225315D02*
X390355Y225315D01*
X390355Y226725D01*
X401365Y226725D01*
X401365Y225315D01*
X401365Y230315D02*
X390355Y230315D01*
X390355Y231725D01*
X401365Y231725D01*
X401365Y230315D01*
X401365Y235315D02*
X390355Y235315D01*
X390355Y236725D01*
X401365Y236725D01*
X401365Y235315D01*
X401365Y240315D02*
X390355Y240315D01*
X390355Y241725D01*
X401365Y241725D01*
X401365Y240315D01*
X401365Y245315D02*
X390355Y245315D01*
X390355Y246725D01*
X401365Y246725D01*
X401365Y245315D01*
X401365Y250315D02*
X390355Y250315D01*
X390355Y251725D01*
X401365Y251725D01*
X401365Y250315D01*
X401365Y255315D02*
X390355Y255315D01*
X390355Y256725D01*
X401365Y256725D01*
X401365Y255315D01*
X401365Y260315D02*
X390355Y260315D01*
X390355Y261725D01*
X401365Y261725D01*
X401365Y260315D01*
X401365Y265315D02*
X390355Y265315D01*
X390355Y266725D01*
X401365Y266725D01*
X401365Y265315D01*
X401365Y270315D02*
X390355Y270315D01*
X390355Y271725D01*
X401365Y271725D01*
X401365Y270315D01*
X401365Y275315D02*
X390355Y275315D01*
X390355Y276725D01*
X401365Y276725D01*
X401365Y275315D01*
X401365Y280315D02*
X390355Y280315D01*
X390355Y281725D01*
X401365Y281725D01*
X401365Y280315D01*
X401365Y285315D02*
X390355Y285315D01*
X390355Y286725D01*
X401365Y286725D01*
X401365Y285315D01*
X401365Y290315D02*
X390355Y290315D01*
X390355Y291725D01*
X401365Y291725D01*
X401365Y290315D01*
X401365Y295315D02*
X390355Y295315D01*
X390355Y296725D01*
X401365Y296725D01*
X401365Y295315D01*
X401365Y300315D02*
X390355Y300315D01*
X390355Y301725D01*
X401365Y301725D01*
X401365Y300315D01*
X401365Y305315D02*
X390355Y305315D01*
X390355Y306725D01*
X401365Y306725D01*
X401365Y305315D01*
X401365Y310315D02*
X390355Y310315D01*
X390355Y311725D01*
X401365Y311725D01*
X401365Y310315D01*
D26*
X749628Y286952D03*
X749628Y291952D03*
X749628Y296952D03*
X749628Y301952D03*
X749628Y306952D03*
X749628Y311952D03*
X749628Y316952D03*
X749628Y321952D03*
X749628Y326952D03*
X749628Y331952D03*
X749628Y336952D03*
X749628Y341952D03*
D27*
X795428Y314452D03*
X826428Y314452D03*
D12*
X205740Y364340D03*
X205740Y377340D03*
D22*
X571500Y149940D03*
X571500Y159940D03*
X541020Y149940D03*
X541020Y159940D03*
X510540Y149940D03*
X510540Y159940D03*
D20*
X612145Y427990D03*
X622295Y427990D03*
X590545Y427990D03*
X580395Y427990D03*
D28*
X744979Y458470D03*
X702821Y458470D03*
D29*
X665640Y499720D03*
X665640Y480720D03*
X686640Y490220D03*
D30*
X665480Y513085D03*
X665480Y523235D03*
D31*
X829620Y440880D02*
X836620Y440880D01*
X829620Y440880D02*
X829620Y447880D01*
X836620Y447880D01*
X836620Y440880D01*
X836620Y443730D02*
X829620Y443730D01*
X829620Y446580D02*
X836620Y446580D01*
X836620Y423340D02*
X829620Y423340D01*
X829620Y430340D01*
X836620Y430340D01*
X836620Y423340D01*
X836620Y426190D02*
X829620Y426190D01*
X829620Y429040D02*
X836620Y429040D01*
D20*
X782315Y452120D03*
X772165Y452120D03*
D32*
X194310Y477520D03*
D33*
X179960Y487020D03*
X179960Y477520D03*
X179960Y468020D03*
X208660Y468020D03*
X208660Y477520D03*
X208660Y487020D03*
D34*
X222124Y487680D03*
X237616Y487680D03*
D20*
X191775Y502920D03*
X201925Y502920D03*
D35*
X180340Y499344D03*
X180340Y509036D03*
D34*
X222124Y467360D03*
X237616Y467360D03*
D36*
X218440Y508000D03*
X180340Y344170D03*
X154940Y344170D03*
X335280Y369570D03*
X161290Y378460D03*
D37*
X523960Y435060D03*
X523960Y423460D03*
X512360Y423460D03*
X512360Y435060D03*
D38*
X499560Y439010D03*
X499560Y432510D03*
X499560Y426010D03*
X499560Y419510D03*
D39*
X508410Y410660D03*
X514910Y410660D03*
X521410Y410660D03*
X527910Y410660D03*
D38*
X536760Y419510D03*
X536760Y426010D03*
X536760Y432510D03*
X536760Y439010D03*
D39*
X527910Y447860D03*
X521410Y447860D03*
X514910Y447860D03*
X508410Y447860D03*
M02*
