G04 EAGLE Gerber RS-274X export*
G75*
%MOMM*%
%FSLAX34Y34*%
%LPD*%
%IN*%
%IPPOS*%
%AMOC8*
5,1,8,0,0,1.08239X$1,22.5*%
G01*
%ADD10C,0.254000*%


D10*
X3810Y57150D02*
X3926Y54494D01*
X4273Y51857D01*
X4849Y49261D01*
X5648Y46725D01*
X6666Y44269D01*
X7894Y41910D01*
X9322Y39667D01*
X10941Y37558D01*
X12737Y35597D01*
X14698Y33801D01*
X16807Y32182D01*
X19050Y30754D01*
X21409Y29526D01*
X23865Y28508D01*
X26401Y27709D01*
X28997Y27133D01*
X31634Y26786D01*
X34290Y26670D01*
X824230Y26670D01*
X826939Y26844D01*
X829623Y27253D01*
X832262Y27895D01*
X834834Y28764D01*
X837320Y29854D01*
X839702Y31156D01*
X841962Y32661D01*
X844082Y34358D01*
X846046Y36232D01*
X847839Y38271D01*
X849447Y40458D01*
X850859Y42777D01*
X852063Y45211D01*
X853051Y47740D01*
X853814Y50345D01*
X854348Y53007D01*
X854647Y55706D01*
X854710Y58420D01*
X854710Y557530D01*
X854594Y560187D01*
X854247Y562823D01*
X853671Y565419D01*
X852872Y567955D01*
X851854Y570411D01*
X850626Y572770D01*
X849198Y575013D01*
X847579Y577122D01*
X845783Y579083D01*
X843822Y580879D01*
X841713Y582498D01*
X839470Y583926D01*
X837111Y585154D01*
X834655Y586172D01*
X832119Y586971D01*
X829523Y587547D01*
X826887Y587894D01*
X824230Y588010D01*
X34290Y588010D01*
X31634Y587894D01*
X28997Y587547D01*
X26401Y586971D01*
X23865Y586172D01*
X21409Y585154D01*
X19050Y583926D01*
X16807Y582498D01*
X14698Y580879D01*
X12737Y579083D01*
X10941Y577122D01*
X9322Y575013D01*
X7894Y572770D01*
X6666Y570411D01*
X5648Y567955D01*
X4849Y565419D01*
X4273Y562823D01*
X3926Y560187D01*
X3810Y557530D01*
X3810Y57150D01*
X814678Y357152D02*
X814690Y356869D01*
X814727Y356588D01*
X814789Y356311D01*
X814874Y356040D01*
X814983Y355779D01*
X815113Y355527D01*
X815266Y355288D01*
X815438Y355063D01*
X815630Y354854D01*
X815839Y354662D01*
X816064Y354490D01*
X816303Y354337D01*
X816555Y354207D01*
X816816Y354098D01*
X817087Y354013D01*
X817364Y353951D01*
X817645Y353914D01*
X817928Y353902D01*
X823928Y353902D01*
X824211Y353914D01*
X824492Y353951D01*
X824769Y354013D01*
X825040Y354098D01*
X825302Y354207D01*
X825553Y354337D01*
X825792Y354490D01*
X826017Y354662D01*
X826226Y354854D01*
X826418Y355063D01*
X826590Y355288D01*
X826743Y355527D01*
X826874Y355779D01*
X826982Y356040D01*
X827067Y356311D01*
X827129Y356588D01*
X827166Y356869D01*
X827178Y357152D01*
X827166Y357435D01*
X827129Y357716D01*
X827067Y357993D01*
X826982Y358264D01*
X826874Y358526D01*
X826743Y358777D01*
X826590Y359016D01*
X826418Y359241D01*
X826226Y359450D01*
X826017Y359642D01*
X825792Y359814D01*
X825553Y359967D01*
X825302Y360098D01*
X825040Y360206D01*
X824769Y360291D01*
X824492Y360353D01*
X824211Y360390D01*
X823928Y360402D01*
X817928Y360402D01*
X817645Y360390D01*
X817364Y360353D01*
X817087Y360291D01*
X816816Y360206D01*
X816555Y360098D01*
X816303Y359967D01*
X816064Y359814D01*
X815839Y359642D01*
X815630Y359450D01*
X815438Y359241D01*
X815266Y359016D01*
X815113Y358777D01*
X814983Y358526D01*
X814874Y358264D01*
X814789Y357993D01*
X814727Y357716D01*
X814690Y357435D01*
X814678Y357152D01*
X767378Y271752D02*
X767390Y271469D01*
X767427Y271188D01*
X767489Y270911D01*
X767574Y270640D01*
X767683Y270379D01*
X767813Y270127D01*
X767966Y269888D01*
X768138Y269663D01*
X768330Y269454D01*
X768539Y269262D01*
X768764Y269090D01*
X769003Y268937D01*
X769255Y268807D01*
X769516Y268698D01*
X769787Y268613D01*
X770064Y268551D01*
X770345Y268514D01*
X770628Y268502D01*
X776628Y268502D01*
X776911Y268514D01*
X777192Y268551D01*
X777469Y268613D01*
X777740Y268698D01*
X778002Y268807D01*
X778253Y268937D01*
X778492Y269090D01*
X778717Y269262D01*
X778926Y269454D01*
X779118Y269663D01*
X779290Y269888D01*
X779443Y270127D01*
X779574Y270379D01*
X779682Y270640D01*
X779767Y270911D01*
X779829Y271188D01*
X779866Y271469D01*
X779878Y271752D01*
X779866Y272035D01*
X779829Y272316D01*
X779767Y272593D01*
X779682Y272864D01*
X779574Y273126D01*
X779443Y273377D01*
X779290Y273616D01*
X779118Y273841D01*
X778926Y274050D01*
X778717Y274242D01*
X778492Y274414D01*
X778253Y274567D01*
X778002Y274698D01*
X777740Y274806D01*
X777469Y274891D01*
X777192Y274953D01*
X776911Y274990D01*
X776628Y275002D01*
X770628Y275002D01*
X770345Y274990D01*
X770064Y274953D01*
X769787Y274891D01*
X769516Y274806D01*
X769255Y274698D01*
X769003Y274567D01*
X768764Y274414D01*
X768539Y274242D01*
X768330Y274050D01*
X768138Y273841D01*
X767966Y273616D01*
X767813Y273377D01*
X767683Y273126D01*
X767574Y272864D01*
X767489Y272593D01*
X767427Y272316D01*
X767390Y272035D01*
X767378Y271752D01*
X814678Y271752D02*
X814690Y271469D01*
X814727Y271188D01*
X814789Y270911D01*
X814874Y270640D01*
X814983Y270379D01*
X815113Y270127D01*
X815266Y269888D01*
X815438Y269663D01*
X815630Y269454D01*
X815839Y269262D01*
X816064Y269090D01*
X816303Y268937D01*
X816555Y268807D01*
X816816Y268698D01*
X817087Y268613D01*
X817364Y268551D01*
X817645Y268514D01*
X817928Y268502D01*
X823928Y268502D01*
X824211Y268514D01*
X824492Y268551D01*
X824769Y268613D01*
X825040Y268698D01*
X825302Y268807D01*
X825553Y268937D01*
X825792Y269090D01*
X826017Y269262D01*
X826226Y269454D01*
X826418Y269663D01*
X826590Y269888D01*
X826743Y270127D01*
X826874Y270379D01*
X826982Y270640D01*
X827067Y270911D01*
X827129Y271188D01*
X827166Y271469D01*
X827178Y271752D01*
X827166Y272035D01*
X827129Y272316D01*
X827067Y272593D01*
X826982Y272864D01*
X826874Y273126D01*
X826743Y273377D01*
X826590Y273616D01*
X826418Y273841D01*
X826226Y274050D01*
X826017Y274242D01*
X825792Y274414D01*
X825553Y274567D01*
X825302Y274698D01*
X825040Y274806D01*
X824769Y274891D01*
X824492Y274953D01*
X824211Y274990D01*
X823928Y275002D01*
X817928Y275002D01*
X817645Y274990D01*
X817364Y274953D01*
X817087Y274891D01*
X816816Y274806D01*
X816555Y274698D01*
X816303Y274567D01*
X816064Y274414D01*
X815839Y274242D01*
X815630Y274050D01*
X815438Y273841D01*
X815266Y273616D01*
X815113Y273377D01*
X814983Y273126D01*
X814874Y272864D01*
X814789Y272593D01*
X814727Y272316D01*
X814690Y272035D01*
X814678Y271752D01*
X767378Y357152D02*
X767390Y356869D01*
X767427Y356588D01*
X767489Y356311D01*
X767574Y356040D01*
X767683Y355779D01*
X767813Y355527D01*
X767966Y355288D01*
X768138Y355063D01*
X768330Y354854D01*
X768539Y354662D01*
X768764Y354490D01*
X769003Y354337D01*
X769255Y354207D01*
X769516Y354098D01*
X769787Y354013D01*
X770064Y353951D01*
X770345Y353914D01*
X770628Y353902D01*
X776628Y353902D01*
X776911Y353914D01*
X777192Y353951D01*
X777469Y354013D01*
X777740Y354098D01*
X778002Y354207D01*
X778253Y354337D01*
X778492Y354490D01*
X778717Y354662D01*
X778926Y354854D01*
X779118Y355063D01*
X779290Y355288D01*
X779443Y355527D01*
X779574Y355779D01*
X779682Y356040D01*
X779767Y356311D01*
X779829Y356588D01*
X779866Y356869D01*
X779878Y357152D01*
X779866Y357435D01*
X779829Y357716D01*
X779767Y357993D01*
X779682Y358264D01*
X779574Y358526D01*
X779443Y358777D01*
X779290Y359016D01*
X779118Y359241D01*
X778926Y359450D01*
X778717Y359642D01*
X778492Y359814D01*
X778253Y359967D01*
X778002Y360098D01*
X777740Y360206D01*
X777469Y360291D01*
X777192Y360353D01*
X776911Y360390D01*
X776628Y360402D01*
X770628Y360402D01*
X770345Y360390D01*
X770064Y360353D01*
X769787Y360291D01*
X769516Y360206D01*
X769255Y360098D01*
X769003Y359967D01*
X768764Y359814D01*
X768539Y359642D01*
X768330Y359450D01*
X768138Y359241D01*
X767966Y359016D01*
X767813Y358777D01*
X767683Y358526D01*
X767574Y358264D01*
X767489Y357993D01*
X767427Y357716D01*
X767390Y357435D01*
X767378Y357152D01*
M02*
