G04 EAGLE Gerber RS-274X export*
G75*
%MOMM*%
%FSLAX34Y34*%
%LPD*%
%INSilkscreen Bottom*%
%IPPOS*%
%AMOC8*
5,1,8,0,0,1.08239X$1,22.5*%
G01*
%ADD10C,0.127000*%
%ADD11C,0.203200*%
%ADD12C,0.152400*%
%ADD13C,0.050800*%
%ADD14R,0.508000X1.143000*%
%ADD15C,0.076200*%
%ADD16R,0.300000X0.599900*%
%ADD17C,0.500000*%
%ADD18C,0.120000*%


D10*
X584115Y60889D02*
X584117Y60778D01*
X584123Y60668D01*
X584133Y60557D01*
X584147Y60447D01*
X584164Y60338D01*
X584186Y60229D01*
X584211Y60121D01*
X584241Y60015D01*
X584274Y59909D01*
X584311Y59804D01*
X584351Y59701D01*
X584396Y59600D01*
X584443Y59500D01*
X584495Y59401D01*
X584550Y59305D01*
X584608Y59211D01*
X584669Y59119D01*
X584734Y59029D01*
X584802Y58941D01*
X584873Y58856D01*
X584947Y58774D01*
X585024Y58694D01*
X585104Y58617D01*
X585186Y58543D01*
X585271Y58472D01*
X585359Y58404D01*
X585449Y58339D01*
X585541Y58278D01*
X585635Y58220D01*
X585731Y58165D01*
X585830Y58113D01*
X585930Y58066D01*
X586031Y58021D01*
X586134Y57981D01*
X586239Y57944D01*
X586345Y57911D01*
X586451Y57881D01*
X586559Y57856D01*
X586668Y57834D01*
X586777Y57817D01*
X586887Y57803D01*
X586998Y57793D01*
X587108Y57787D01*
X587219Y57785D01*
X587376Y57787D01*
X587533Y57793D01*
X587689Y57802D01*
X587846Y57815D01*
X588002Y57832D01*
X588157Y57852D01*
X588312Y57877D01*
X588467Y57905D01*
X588620Y57936D01*
X588773Y57972D01*
X588925Y58011D01*
X589076Y58053D01*
X589226Y58100D01*
X589375Y58149D01*
X589522Y58203D01*
X589669Y58260D01*
X589814Y58320D01*
X589957Y58384D01*
X590099Y58451D01*
X590239Y58522D01*
X590377Y58596D01*
X590514Y58673D01*
X590649Y58753D01*
X590781Y58837D01*
X590912Y58924D01*
X591041Y59014D01*
X591167Y59107D01*
X591291Y59202D01*
X591413Y59301D01*
X591532Y59403D01*
X591649Y59508D01*
X591764Y59615D01*
X591876Y59725D01*
X591487Y68651D02*
X591485Y68762D01*
X591479Y68872D01*
X591469Y68983D01*
X591455Y69093D01*
X591438Y69202D01*
X591416Y69311D01*
X591391Y69419D01*
X591361Y69525D01*
X591328Y69631D01*
X591291Y69736D01*
X591251Y69839D01*
X591206Y69940D01*
X591159Y70040D01*
X591107Y70139D01*
X591052Y70235D01*
X590994Y70329D01*
X590933Y70421D01*
X590868Y70511D01*
X590800Y70599D01*
X590729Y70684D01*
X590655Y70766D01*
X590578Y70846D01*
X590498Y70923D01*
X590416Y70997D01*
X590331Y71068D01*
X590243Y71136D01*
X590153Y71201D01*
X590061Y71262D01*
X589967Y71320D01*
X589871Y71375D01*
X589772Y71427D01*
X589672Y71474D01*
X589571Y71519D01*
X589468Y71559D01*
X589363Y71596D01*
X589257Y71629D01*
X589151Y71659D01*
X589043Y71684D01*
X588934Y71706D01*
X588825Y71723D01*
X588715Y71737D01*
X588604Y71747D01*
X588494Y71753D01*
X588383Y71755D01*
X588233Y71753D01*
X588083Y71747D01*
X587934Y71738D01*
X587785Y71724D01*
X587636Y71707D01*
X587488Y71686D01*
X587340Y71661D01*
X587193Y71632D01*
X587047Y71599D01*
X586901Y71563D01*
X586757Y71523D01*
X586613Y71480D01*
X586471Y71432D01*
X586330Y71381D01*
X586191Y71326D01*
X586053Y71268D01*
X585916Y71207D01*
X585781Y71141D01*
X585648Y71073D01*
X585517Y71001D01*
X585387Y70925D01*
X585260Y70846D01*
X585135Y70764D01*
X585011Y70679D01*
X584890Y70591D01*
X589936Y65935D02*
X590029Y65992D01*
X590120Y66052D01*
X590209Y66115D01*
X590295Y66181D01*
X590380Y66251D01*
X590461Y66323D01*
X590541Y66398D01*
X590617Y66476D01*
X590691Y66556D01*
X590762Y66639D01*
X590831Y66724D01*
X590896Y66811D01*
X590958Y66901D01*
X591017Y66993D01*
X591073Y67087D01*
X591125Y67182D01*
X591174Y67280D01*
X591220Y67379D01*
X591262Y67479D01*
X591301Y67581D01*
X591336Y67685D01*
X591368Y67789D01*
X591396Y67895D01*
X591420Y68001D01*
X591441Y68108D01*
X591458Y68216D01*
X591471Y68324D01*
X591480Y68433D01*
X591486Y68542D01*
X591488Y68651D01*
X585666Y63605D02*
X585573Y63548D01*
X585482Y63488D01*
X585393Y63425D01*
X585307Y63359D01*
X585222Y63289D01*
X585141Y63217D01*
X585061Y63142D01*
X584985Y63064D01*
X584911Y62984D01*
X584840Y62901D01*
X584772Y62816D01*
X584706Y62729D01*
X584644Y62639D01*
X584585Y62547D01*
X584529Y62453D01*
X584477Y62358D01*
X584428Y62260D01*
X584382Y62161D01*
X584340Y62061D01*
X584301Y61959D01*
X584266Y61855D01*
X584234Y61751D01*
X584206Y61645D01*
X584182Y61539D01*
X584161Y61432D01*
X584144Y61324D01*
X584131Y61216D01*
X584122Y61107D01*
X584116Y60998D01*
X584114Y60889D01*
X585667Y63606D02*
X589935Y65934D01*
X578323Y67098D02*
X578323Y60113D01*
X578321Y60019D01*
X578315Y59926D01*
X578306Y59832D01*
X578293Y59740D01*
X578276Y59647D01*
X578255Y59556D01*
X578231Y59465D01*
X578203Y59376D01*
X578172Y59287D01*
X578137Y59201D01*
X578098Y59115D01*
X578056Y59031D01*
X578011Y58949D01*
X577963Y58869D01*
X577911Y58791D01*
X577856Y58714D01*
X577798Y58641D01*
X577738Y58569D01*
X577674Y58500D01*
X577608Y58434D01*
X577539Y58370D01*
X577467Y58310D01*
X577394Y58252D01*
X577317Y58197D01*
X577239Y58145D01*
X577159Y58097D01*
X577077Y58052D01*
X576993Y58010D01*
X576907Y57971D01*
X576821Y57936D01*
X576732Y57905D01*
X576643Y57877D01*
X576552Y57853D01*
X576461Y57832D01*
X576368Y57815D01*
X576276Y57802D01*
X576182Y57793D01*
X576089Y57787D01*
X575995Y57785D01*
X572115Y57785D01*
X572115Y67098D01*
X565476Y67098D02*
X565476Y53128D01*
X565476Y67098D02*
X561596Y67098D01*
X561500Y67096D01*
X561404Y67090D01*
X561308Y67080D01*
X561213Y67066D01*
X561118Y67048D01*
X561025Y67027D01*
X560932Y67001D01*
X560840Y66972D01*
X560750Y66939D01*
X560661Y66902D01*
X560574Y66861D01*
X560488Y66817D01*
X560404Y66770D01*
X560323Y66719D01*
X560243Y66665D01*
X560166Y66607D01*
X560091Y66546D01*
X560019Y66483D01*
X559950Y66416D01*
X559883Y66347D01*
X559820Y66275D01*
X559759Y66200D01*
X559701Y66123D01*
X559647Y66043D01*
X559596Y65962D01*
X559549Y65878D01*
X559505Y65792D01*
X559464Y65705D01*
X559427Y65616D01*
X559394Y65526D01*
X559365Y65434D01*
X559339Y65342D01*
X559318Y65248D01*
X559300Y65153D01*
X559286Y65058D01*
X559276Y64962D01*
X559270Y64866D01*
X559268Y64770D01*
X559267Y64770D02*
X559267Y60113D01*
X559268Y60113D02*
X559270Y60019D01*
X559276Y59926D01*
X559285Y59832D01*
X559298Y59740D01*
X559315Y59647D01*
X559336Y59556D01*
X559360Y59465D01*
X559388Y59376D01*
X559419Y59287D01*
X559454Y59200D01*
X559493Y59115D01*
X559535Y59031D01*
X559580Y58949D01*
X559628Y58869D01*
X559680Y58791D01*
X559735Y58714D01*
X559793Y58641D01*
X559853Y58569D01*
X559917Y58500D01*
X559983Y58434D01*
X560052Y58370D01*
X560124Y58310D01*
X560197Y58252D01*
X560274Y58197D01*
X560352Y58145D01*
X560432Y58097D01*
X560514Y58052D01*
X560598Y58010D01*
X560684Y57971D01*
X560771Y57936D01*
X560859Y57905D01*
X560948Y57877D01*
X561039Y57853D01*
X561130Y57832D01*
X561223Y57815D01*
X561315Y57802D01*
X561409Y57793D01*
X561502Y57787D01*
X561596Y57785D01*
X565476Y57785D01*
X553157Y53128D02*
X553157Y67098D01*
X549276Y67098D01*
X549180Y67096D01*
X549084Y67090D01*
X548988Y67080D01*
X548893Y67066D01*
X548798Y67048D01*
X548705Y67027D01*
X548612Y67001D01*
X548520Y66972D01*
X548430Y66939D01*
X548341Y66902D01*
X548254Y66861D01*
X548168Y66817D01*
X548084Y66770D01*
X548003Y66719D01*
X547923Y66665D01*
X547846Y66607D01*
X547771Y66546D01*
X547699Y66483D01*
X547630Y66416D01*
X547563Y66347D01*
X547500Y66275D01*
X547439Y66200D01*
X547381Y66123D01*
X547327Y66043D01*
X547276Y65962D01*
X547229Y65878D01*
X547185Y65792D01*
X547144Y65705D01*
X547107Y65616D01*
X547074Y65526D01*
X547045Y65434D01*
X547019Y65342D01*
X546998Y65248D01*
X546980Y65153D01*
X546966Y65058D01*
X546956Y64962D01*
X546950Y64866D01*
X546948Y64770D01*
X546948Y60113D01*
X546950Y60019D01*
X546956Y59926D01*
X546965Y59832D01*
X546978Y59740D01*
X546995Y59647D01*
X547016Y59556D01*
X547040Y59465D01*
X547068Y59376D01*
X547099Y59287D01*
X547134Y59200D01*
X547173Y59115D01*
X547215Y59031D01*
X547260Y58949D01*
X547308Y58869D01*
X547360Y58791D01*
X547415Y58714D01*
X547473Y58641D01*
X547533Y58569D01*
X547597Y58500D01*
X547663Y58434D01*
X547732Y58370D01*
X547804Y58310D01*
X547877Y58252D01*
X547954Y58197D01*
X548032Y58145D01*
X548112Y58097D01*
X548194Y58052D01*
X548278Y58010D01*
X548364Y57971D01*
X548451Y57936D01*
X548539Y57905D01*
X548628Y57877D01*
X548719Y57853D01*
X548810Y57832D01*
X548903Y57815D01*
X548995Y57802D01*
X549089Y57793D01*
X549182Y57787D01*
X549276Y57785D01*
X553157Y57785D01*
X541364Y60889D02*
X541364Y63994D01*
X541362Y64105D01*
X541356Y64215D01*
X541346Y64326D01*
X541332Y64436D01*
X541315Y64545D01*
X541293Y64654D01*
X541268Y64762D01*
X541238Y64868D01*
X541205Y64974D01*
X541168Y65079D01*
X541128Y65182D01*
X541083Y65283D01*
X541036Y65383D01*
X540984Y65482D01*
X540929Y65578D01*
X540871Y65672D01*
X540810Y65764D01*
X540745Y65854D01*
X540677Y65942D01*
X540606Y66027D01*
X540532Y66109D01*
X540455Y66189D01*
X540375Y66266D01*
X540293Y66340D01*
X540208Y66411D01*
X540120Y66479D01*
X540030Y66544D01*
X539938Y66605D01*
X539844Y66663D01*
X539748Y66718D01*
X539649Y66770D01*
X539549Y66817D01*
X539448Y66862D01*
X539345Y66902D01*
X539240Y66939D01*
X539134Y66972D01*
X539028Y67002D01*
X538920Y67027D01*
X538811Y67049D01*
X538702Y67066D01*
X538592Y67080D01*
X538481Y67090D01*
X538371Y67096D01*
X538260Y67098D01*
X538149Y67096D01*
X538039Y67090D01*
X537928Y67080D01*
X537818Y67066D01*
X537709Y67049D01*
X537600Y67027D01*
X537492Y67002D01*
X537386Y66972D01*
X537280Y66939D01*
X537175Y66902D01*
X537072Y66862D01*
X536971Y66817D01*
X536871Y66770D01*
X536772Y66718D01*
X536676Y66663D01*
X536582Y66605D01*
X536490Y66544D01*
X536400Y66479D01*
X536312Y66411D01*
X536227Y66340D01*
X536145Y66266D01*
X536065Y66189D01*
X535988Y66109D01*
X535914Y66027D01*
X535843Y65942D01*
X535775Y65854D01*
X535710Y65764D01*
X535649Y65672D01*
X535591Y65578D01*
X535536Y65482D01*
X535484Y65383D01*
X535437Y65283D01*
X535392Y65182D01*
X535352Y65079D01*
X535315Y64974D01*
X535282Y64868D01*
X535252Y64762D01*
X535227Y64654D01*
X535205Y64545D01*
X535188Y64436D01*
X535174Y64326D01*
X535164Y64215D01*
X535158Y64105D01*
X535156Y63994D01*
X535156Y60889D01*
X535158Y60778D01*
X535164Y60668D01*
X535174Y60557D01*
X535188Y60447D01*
X535205Y60338D01*
X535227Y60229D01*
X535252Y60121D01*
X535282Y60015D01*
X535315Y59909D01*
X535352Y59804D01*
X535392Y59701D01*
X535437Y59600D01*
X535484Y59500D01*
X535536Y59401D01*
X535591Y59305D01*
X535649Y59211D01*
X535710Y59119D01*
X535775Y59029D01*
X535843Y58941D01*
X535914Y58856D01*
X535988Y58774D01*
X536065Y58694D01*
X536145Y58617D01*
X536227Y58543D01*
X536312Y58472D01*
X536400Y58404D01*
X536490Y58339D01*
X536582Y58278D01*
X536676Y58220D01*
X536772Y58165D01*
X536871Y58113D01*
X536971Y58066D01*
X537072Y58021D01*
X537175Y57981D01*
X537280Y57944D01*
X537386Y57911D01*
X537492Y57881D01*
X537600Y57856D01*
X537709Y57834D01*
X537818Y57817D01*
X537928Y57803D01*
X538039Y57793D01*
X538149Y57787D01*
X538260Y57785D01*
X538371Y57787D01*
X538481Y57793D01*
X538592Y57803D01*
X538702Y57817D01*
X538811Y57834D01*
X538920Y57856D01*
X539028Y57881D01*
X539134Y57911D01*
X539240Y57944D01*
X539345Y57981D01*
X539448Y58021D01*
X539549Y58066D01*
X539649Y58113D01*
X539748Y58165D01*
X539844Y58220D01*
X539938Y58278D01*
X540030Y58339D01*
X540120Y58404D01*
X540208Y58472D01*
X540293Y58543D01*
X540375Y58617D01*
X540455Y58694D01*
X540532Y58774D01*
X540606Y58856D01*
X540677Y58941D01*
X540745Y59029D01*
X540810Y59119D01*
X540871Y59211D01*
X540929Y59305D01*
X540984Y59401D01*
X541036Y59500D01*
X541083Y59600D01*
X541128Y59701D01*
X541168Y59804D01*
X541205Y59909D01*
X541238Y60015D01*
X541268Y60121D01*
X541293Y60229D01*
X541315Y60338D01*
X541332Y60447D01*
X541346Y60557D01*
X541356Y60668D01*
X541362Y60778D01*
X541364Y60889D01*
X528964Y57785D02*
X528964Y67098D01*
X524308Y67098D01*
X524308Y65546D01*
X521080Y67098D02*
X516423Y67098D01*
X519528Y71755D02*
X519528Y60113D01*
X519527Y60113D02*
X519525Y60019D01*
X519519Y59926D01*
X519510Y59832D01*
X519497Y59740D01*
X519480Y59647D01*
X519459Y59556D01*
X519435Y59465D01*
X519407Y59376D01*
X519376Y59287D01*
X519341Y59201D01*
X519302Y59115D01*
X519260Y59031D01*
X519215Y58949D01*
X519167Y58869D01*
X519115Y58791D01*
X519060Y58714D01*
X519002Y58641D01*
X518942Y58569D01*
X518878Y58500D01*
X518812Y58434D01*
X518743Y58370D01*
X518671Y58310D01*
X518598Y58252D01*
X518521Y58197D01*
X518443Y58145D01*
X518363Y58097D01*
X518281Y58052D01*
X518197Y58010D01*
X518111Y57971D01*
X518025Y57936D01*
X517936Y57905D01*
X517847Y57877D01*
X517756Y57853D01*
X517665Y57832D01*
X517572Y57815D01*
X517480Y57802D01*
X517386Y57793D01*
X517293Y57787D01*
X517199Y57785D01*
X516423Y57785D01*
X511271Y58949D02*
X511271Y59725D01*
X510495Y59725D01*
X510495Y58949D01*
X511271Y58949D01*
X511271Y65158D02*
X511271Y65934D01*
X510495Y65934D01*
X510495Y65158D01*
X511271Y65158D01*
X497105Y71755D02*
X497105Y57785D01*
X497105Y67098D02*
X493224Y67098D01*
X493128Y67096D01*
X493032Y67090D01*
X492936Y67080D01*
X492841Y67066D01*
X492746Y67048D01*
X492653Y67027D01*
X492560Y67001D01*
X492468Y66972D01*
X492378Y66939D01*
X492289Y66902D01*
X492202Y66861D01*
X492116Y66817D01*
X492032Y66770D01*
X491951Y66719D01*
X491871Y66665D01*
X491794Y66607D01*
X491719Y66546D01*
X491647Y66483D01*
X491578Y66416D01*
X491511Y66347D01*
X491448Y66275D01*
X491387Y66200D01*
X491329Y66123D01*
X491275Y66043D01*
X491224Y65962D01*
X491177Y65878D01*
X491133Y65792D01*
X491092Y65705D01*
X491055Y65616D01*
X491022Y65526D01*
X490993Y65434D01*
X490967Y65342D01*
X490946Y65248D01*
X490928Y65153D01*
X490914Y65058D01*
X490904Y64962D01*
X490898Y64866D01*
X490896Y64770D01*
X490896Y57785D01*
X485946Y67098D02*
X481290Y67098D01*
X484394Y71755D02*
X484394Y60113D01*
X484392Y60019D01*
X484386Y59926D01*
X484377Y59832D01*
X484364Y59740D01*
X484347Y59647D01*
X484326Y59556D01*
X484302Y59465D01*
X484274Y59376D01*
X484243Y59287D01*
X484208Y59201D01*
X484169Y59115D01*
X484127Y59031D01*
X484082Y58949D01*
X484034Y58869D01*
X483982Y58791D01*
X483927Y58714D01*
X483869Y58641D01*
X483809Y58569D01*
X483745Y58500D01*
X483679Y58434D01*
X483610Y58370D01*
X483538Y58310D01*
X483465Y58252D01*
X483388Y58197D01*
X483310Y58145D01*
X483230Y58097D01*
X483148Y58052D01*
X483064Y58010D01*
X482978Y57971D01*
X482892Y57936D01*
X482803Y57905D01*
X482714Y57877D01*
X482623Y57853D01*
X482532Y57832D01*
X482439Y57815D01*
X482347Y57802D01*
X482253Y57793D01*
X482160Y57787D01*
X482066Y57785D01*
X481290Y57785D01*
X477277Y67098D02*
X472620Y67098D01*
X475725Y71755D02*
X475725Y60113D01*
X475724Y60113D02*
X475722Y60019D01*
X475716Y59926D01*
X475707Y59832D01*
X475694Y59740D01*
X475677Y59647D01*
X475656Y59556D01*
X475632Y59465D01*
X475604Y59376D01*
X475573Y59287D01*
X475538Y59201D01*
X475499Y59115D01*
X475457Y59031D01*
X475412Y58949D01*
X475364Y58869D01*
X475312Y58791D01*
X475257Y58714D01*
X475199Y58641D01*
X475139Y58569D01*
X475075Y58500D01*
X475009Y58434D01*
X474940Y58370D01*
X474868Y58310D01*
X474795Y58252D01*
X474718Y58197D01*
X474640Y58145D01*
X474560Y58097D01*
X474478Y58052D01*
X474394Y58010D01*
X474308Y57971D01*
X474222Y57936D01*
X474133Y57905D01*
X474044Y57877D01*
X473953Y57853D01*
X473862Y57832D01*
X473769Y57815D01*
X473677Y57802D01*
X473583Y57793D01*
X473490Y57787D01*
X473396Y57785D01*
X472620Y57785D01*
X466919Y53128D02*
X466919Y67098D01*
X463038Y67098D01*
X462942Y67096D01*
X462846Y67090D01*
X462750Y67080D01*
X462655Y67066D01*
X462560Y67048D01*
X462467Y67027D01*
X462374Y67001D01*
X462282Y66972D01*
X462192Y66939D01*
X462103Y66902D01*
X462016Y66861D01*
X461930Y66817D01*
X461846Y66770D01*
X461765Y66719D01*
X461685Y66665D01*
X461608Y66607D01*
X461533Y66546D01*
X461461Y66483D01*
X461392Y66416D01*
X461325Y66347D01*
X461262Y66275D01*
X461201Y66200D01*
X461143Y66123D01*
X461089Y66043D01*
X461038Y65962D01*
X460991Y65878D01*
X460947Y65792D01*
X460906Y65705D01*
X460869Y65616D01*
X460836Y65526D01*
X460807Y65434D01*
X460781Y65342D01*
X460760Y65248D01*
X460742Y65153D01*
X460728Y65058D01*
X460718Y64962D01*
X460712Y64866D01*
X460710Y64770D01*
X460710Y60113D01*
X460712Y60019D01*
X460718Y59926D01*
X460727Y59832D01*
X460740Y59740D01*
X460757Y59647D01*
X460778Y59556D01*
X460802Y59465D01*
X460830Y59376D01*
X460861Y59287D01*
X460896Y59200D01*
X460935Y59115D01*
X460977Y59031D01*
X461022Y58949D01*
X461070Y58869D01*
X461122Y58791D01*
X461177Y58714D01*
X461235Y58641D01*
X461295Y58569D01*
X461359Y58500D01*
X461425Y58434D01*
X461494Y58370D01*
X461566Y58310D01*
X461639Y58252D01*
X461716Y58197D01*
X461794Y58145D01*
X461874Y58097D01*
X461956Y58052D01*
X462040Y58010D01*
X462126Y57971D01*
X462213Y57936D01*
X462301Y57905D01*
X462390Y57877D01*
X462481Y57853D01*
X462572Y57832D01*
X462665Y57815D01*
X462757Y57802D01*
X462851Y57793D01*
X462944Y57787D01*
X463038Y57785D01*
X466919Y57785D01*
X453963Y63218D02*
X450082Y61666D01*
X453962Y63218D02*
X454044Y63253D01*
X454124Y63291D01*
X454202Y63333D01*
X454278Y63378D01*
X454352Y63426D01*
X454424Y63478D01*
X454494Y63533D01*
X454561Y63591D01*
X454626Y63651D01*
X454687Y63715D01*
X454746Y63781D01*
X454802Y63850D01*
X454855Y63921D01*
X454905Y63994D01*
X454951Y64070D01*
X454995Y64147D01*
X455034Y64226D01*
X455070Y64307D01*
X455103Y64390D01*
X455132Y64474D01*
X455157Y64559D01*
X455178Y64645D01*
X455196Y64732D01*
X455209Y64819D01*
X455219Y64907D01*
X455225Y64996D01*
X455227Y65084D01*
X455225Y65173D01*
X455219Y65261D01*
X455210Y65349D01*
X455196Y65437D01*
X455179Y65524D01*
X455158Y65610D01*
X455133Y65695D01*
X455104Y65779D01*
X455072Y65861D01*
X455036Y65942D01*
X454996Y66022D01*
X454953Y66099D01*
X454907Y66175D01*
X454857Y66248D01*
X454805Y66320D01*
X454749Y66388D01*
X454690Y66455D01*
X454628Y66518D01*
X454564Y66579D01*
X454497Y66637D01*
X454427Y66692D01*
X454355Y66744D01*
X454281Y66792D01*
X454205Y66838D01*
X454127Y66880D01*
X454047Y66918D01*
X453965Y66953D01*
X453882Y66984D01*
X453798Y67012D01*
X453713Y67035D01*
X453627Y67055D01*
X453539Y67072D01*
X453452Y67084D01*
X453363Y67093D01*
X453275Y67097D01*
X453186Y67098D01*
X452974Y67093D01*
X452763Y67082D01*
X452551Y67066D01*
X452341Y67045D01*
X452130Y67019D01*
X451921Y66988D01*
X451712Y66952D01*
X451504Y66912D01*
X451297Y66866D01*
X451091Y66815D01*
X450887Y66759D01*
X450684Y66698D01*
X450482Y66632D01*
X450282Y66562D01*
X450084Y66487D01*
X449888Y66407D01*
X449694Y66322D01*
X450083Y61665D02*
X450001Y61630D01*
X449921Y61592D01*
X449843Y61550D01*
X449767Y61505D01*
X449693Y61457D01*
X449621Y61405D01*
X449551Y61350D01*
X449484Y61292D01*
X449419Y61232D01*
X449358Y61168D01*
X449299Y61102D01*
X449243Y61033D01*
X449190Y60962D01*
X449140Y60889D01*
X449094Y60813D01*
X449050Y60736D01*
X449011Y60657D01*
X448975Y60576D01*
X448942Y60493D01*
X448913Y60409D01*
X448888Y60324D01*
X448867Y60238D01*
X448849Y60151D01*
X448836Y60064D01*
X448826Y59976D01*
X448820Y59887D01*
X448818Y59799D01*
X448820Y59710D01*
X448826Y59622D01*
X448835Y59534D01*
X448849Y59446D01*
X448866Y59359D01*
X448887Y59273D01*
X448912Y59188D01*
X448941Y59104D01*
X448973Y59022D01*
X449009Y58941D01*
X449049Y58861D01*
X449092Y58784D01*
X449138Y58708D01*
X449188Y58635D01*
X449240Y58563D01*
X449296Y58495D01*
X449355Y58428D01*
X449417Y58365D01*
X449481Y58304D01*
X449548Y58246D01*
X449618Y58191D01*
X449690Y58139D01*
X449764Y58091D01*
X449840Y58045D01*
X449918Y58003D01*
X449998Y57965D01*
X450080Y57930D01*
X450163Y57899D01*
X450247Y57871D01*
X450332Y57848D01*
X450418Y57828D01*
X450506Y57811D01*
X450593Y57799D01*
X450682Y57790D01*
X450770Y57786D01*
X450859Y57785D01*
X450858Y57784D02*
X451169Y57792D01*
X451480Y57808D01*
X451790Y57831D01*
X452100Y57861D01*
X452409Y57898D01*
X452718Y57943D01*
X453024Y57995D01*
X453330Y58055D01*
X453634Y58121D01*
X453937Y58195D01*
X454237Y58276D01*
X454536Y58364D01*
X454832Y58459D01*
X455127Y58560D01*
X443285Y58949D02*
X443285Y59725D01*
X442509Y59725D01*
X442509Y58949D01*
X443285Y58949D01*
X443285Y65158D02*
X443285Y65934D01*
X442509Y65934D01*
X442509Y65158D01*
X443285Y65158D01*
X437332Y56233D02*
X431123Y73307D01*
X420172Y73307D02*
X426381Y56233D01*
X412717Y57785D02*
X408836Y57785D01*
X412717Y57785D02*
X412811Y57787D01*
X412904Y57793D01*
X412998Y57802D01*
X413090Y57815D01*
X413183Y57832D01*
X413274Y57853D01*
X413365Y57877D01*
X413454Y57905D01*
X413543Y57936D01*
X413629Y57971D01*
X413715Y58010D01*
X413799Y58052D01*
X413881Y58097D01*
X413961Y58145D01*
X414039Y58197D01*
X414116Y58252D01*
X414189Y58310D01*
X414261Y58370D01*
X414330Y58434D01*
X414396Y58500D01*
X414460Y58569D01*
X414520Y58641D01*
X414578Y58714D01*
X414633Y58791D01*
X414685Y58869D01*
X414733Y58949D01*
X414778Y59031D01*
X414820Y59115D01*
X414859Y59201D01*
X414894Y59287D01*
X414925Y59376D01*
X414953Y59465D01*
X414977Y59556D01*
X414998Y59647D01*
X415015Y59740D01*
X415028Y59832D01*
X415037Y59926D01*
X415043Y60019D01*
X415045Y60113D01*
X415045Y64770D01*
X415043Y64864D01*
X415037Y64957D01*
X415028Y65051D01*
X415015Y65143D01*
X414998Y65236D01*
X414977Y65327D01*
X414953Y65418D01*
X414925Y65507D01*
X414894Y65596D01*
X414859Y65682D01*
X414820Y65768D01*
X414778Y65852D01*
X414733Y65934D01*
X414685Y66014D01*
X414633Y66092D01*
X414578Y66169D01*
X414520Y66242D01*
X414460Y66314D01*
X414396Y66383D01*
X414330Y66449D01*
X414261Y66513D01*
X414189Y66573D01*
X414116Y66631D01*
X414039Y66686D01*
X413961Y66738D01*
X413881Y66786D01*
X413799Y66831D01*
X413715Y66873D01*
X413629Y66912D01*
X413543Y66947D01*
X413454Y66978D01*
X413365Y67006D01*
X413274Y67030D01*
X413183Y67051D01*
X413090Y67068D01*
X412998Y67081D01*
X412904Y67090D01*
X412811Y67096D01*
X412717Y67098D01*
X408836Y67098D01*
X408836Y55457D01*
X408837Y55457D02*
X408839Y55363D01*
X408845Y55270D01*
X408854Y55176D01*
X408867Y55084D01*
X408884Y54991D01*
X408905Y54900D01*
X408929Y54809D01*
X408957Y54720D01*
X408988Y54631D01*
X409023Y54545D01*
X409062Y54459D01*
X409104Y54375D01*
X409149Y54293D01*
X409197Y54213D01*
X409249Y54135D01*
X409304Y54058D01*
X409362Y53985D01*
X409422Y53913D01*
X409486Y53844D01*
X409552Y53778D01*
X409621Y53714D01*
X409693Y53654D01*
X409766Y53596D01*
X409843Y53541D01*
X409921Y53489D01*
X410001Y53441D01*
X410083Y53396D01*
X410167Y53354D01*
X410253Y53315D01*
X410339Y53280D01*
X410428Y53249D01*
X410517Y53221D01*
X410608Y53197D01*
X410699Y53176D01*
X410792Y53159D01*
X410884Y53146D01*
X410978Y53137D01*
X411071Y53131D01*
X411165Y53129D01*
X411165Y53128D02*
X414269Y53128D01*
X402744Y57785D02*
X402744Y67098D01*
X403132Y70979D02*
X403132Y71755D01*
X402356Y71755D01*
X402356Y70979D01*
X403132Y70979D01*
X398340Y67098D02*
X393683Y67098D01*
X396787Y71755D02*
X396787Y60113D01*
X396785Y60019D01*
X396779Y59926D01*
X396770Y59832D01*
X396757Y59740D01*
X396740Y59647D01*
X396719Y59556D01*
X396695Y59465D01*
X396667Y59376D01*
X396636Y59287D01*
X396601Y59201D01*
X396562Y59115D01*
X396520Y59031D01*
X396475Y58949D01*
X396427Y58869D01*
X396375Y58791D01*
X396320Y58714D01*
X396262Y58641D01*
X396202Y58569D01*
X396138Y58500D01*
X396072Y58434D01*
X396003Y58370D01*
X395931Y58310D01*
X395858Y58252D01*
X395781Y58197D01*
X395703Y58145D01*
X395623Y58097D01*
X395541Y58052D01*
X395457Y58010D01*
X395371Y57971D01*
X395285Y57936D01*
X395196Y57905D01*
X395107Y57877D01*
X395016Y57853D01*
X394925Y57832D01*
X394832Y57815D01*
X394740Y57802D01*
X394646Y57793D01*
X394553Y57787D01*
X394459Y57785D01*
X393683Y57785D01*
X388053Y57785D02*
X388053Y71755D01*
X388053Y67098D02*
X384173Y67098D01*
X384077Y67096D01*
X383981Y67090D01*
X383885Y67080D01*
X383790Y67066D01*
X383695Y67048D01*
X383602Y67027D01*
X383509Y67001D01*
X383417Y66972D01*
X383327Y66939D01*
X383238Y66902D01*
X383151Y66861D01*
X383065Y66817D01*
X382981Y66770D01*
X382900Y66719D01*
X382820Y66665D01*
X382743Y66607D01*
X382668Y66546D01*
X382596Y66483D01*
X382527Y66416D01*
X382460Y66347D01*
X382397Y66275D01*
X382336Y66200D01*
X382278Y66123D01*
X382224Y66043D01*
X382173Y65962D01*
X382126Y65878D01*
X382082Y65792D01*
X382041Y65705D01*
X382004Y65616D01*
X381971Y65526D01*
X381942Y65434D01*
X381916Y65342D01*
X381895Y65248D01*
X381877Y65153D01*
X381863Y65058D01*
X381853Y64962D01*
X381847Y64866D01*
X381845Y64770D01*
X381844Y64770D02*
X381844Y57785D01*
X375277Y60113D02*
X375277Y67098D01*
X375277Y60113D02*
X375275Y60019D01*
X375269Y59926D01*
X375260Y59832D01*
X375247Y59740D01*
X375230Y59647D01*
X375209Y59556D01*
X375185Y59465D01*
X375157Y59376D01*
X375126Y59287D01*
X375091Y59201D01*
X375052Y59115D01*
X375010Y59031D01*
X374965Y58949D01*
X374917Y58869D01*
X374865Y58791D01*
X374810Y58714D01*
X374752Y58641D01*
X374692Y58569D01*
X374628Y58500D01*
X374562Y58434D01*
X374493Y58370D01*
X374421Y58310D01*
X374348Y58252D01*
X374271Y58197D01*
X374193Y58145D01*
X374113Y58097D01*
X374031Y58052D01*
X373947Y58010D01*
X373861Y57971D01*
X373775Y57936D01*
X373686Y57905D01*
X373597Y57877D01*
X373506Y57853D01*
X373415Y57832D01*
X373322Y57815D01*
X373230Y57802D01*
X373136Y57793D01*
X373043Y57787D01*
X372949Y57785D01*
X369068Y57785D01*
X369068Y67098D01*
X362430Y71755D02*
X362430Y57785D01*
X358549Y57785D01*
X358453Y57787D01*
X358357Y57793D01*
X358261Y57803D01*
X358166Y57817D01*
X358071Y57835D01*
X357978Y57856D01*
X357885Y57882D01*
X357793Y57911D01*
X357703Y57944D01*
X357614Y57981D01*
X357527Y58022D01*
X357441Y58066D01*
X357357Y58113D01*
X357276Y58164D01*
X357196Y58218D01*
X357119Y58276D01*
X357044Y58337D01*
X356972Y58400D01*
X356903Y58467D01*
X356836Y58536D01*
X356773Y58608D01*
X356712Y58683D01*
X356654Y58760D01*
X356600Y58840D01*
X356549Y58921D01*
X356502Y59005D01*
X356458Y59091D01*
X356417Y59178D01*
X356380Y59267D01*
X356347Y59357D01*
X356318Y59449D01*
X356292Y59541D01*
X356271Y59635D01*
X356253Y59730D01*
X356239Y59825D01*
X356229Y59921D01*
X356223Y60017D01*
X356221Y60113D01*
X356221Y64770D01*
X356223Y64864D01*
X356229Y64957D01*
X356238Y65051D01*
X356251Y65143D01*
X356268Y65236D01*
X356289Y65327D01*
X356313Y65418D01*
X356341Y65507D01*
X356372Y65596D01*
X356407Y65683D01*
X356446Y65768D01*
X356488Y65852D01*
X356533Y65934D01*
X356581Y66014D01*
X356633Y66092D01*
X356688Y66169D01*
X356746Y66242D01*
X356806Y66314D01*
X356870Y66383D01*
X356936Y66449D01*
X357005Y66513D01*
X357077Y66573D01*
X357150Y66631D01*
X357227Y66686D01*
X357305Y66738D01*
X357385Y66786D01*
X357467Y66831D01*
X357551Y66873D01*
X357637Y66912D01*
X357724Y66947D01*
X357812Y66978D01*
X357901Y67006D01*
X357992Y67030D01*
X358083Y67051D01*
X358176Y67068D01*
X358268Y67081D01*
X358362Y67090D01*
X358455Y67096D01*
X358549Y67098D01*
X362430Y67098D01*
X351115Y58561D02*
X351115Y57785D01*
X351115Y58561D02*
X350339Y58561D01*
X350339Y57785D01*
X351115Y57785D01*
X342818Y57785D02*
X339714Y57785D01*
X342818Y57785D02*
X342912Y57787D01*
X343005Y57793D01*
X343099Y57802D01*
X343191Y57815D01*
X343284Y57832D01*
X343375Y57853D01*
X343466Y57877D01*
X343555Y57905D01*
X343644Y57936D01*
X343730Y57971D01*
X343816Y58010D01*
X343900Y58052D01*
X343982Y58097D01*
X344062Y58145D01*
X344140Y58197D01*
X344217Y58252D01*
X344290Y58310D01*
X344362Y58370D01*
X344431Y58434D01*
X344497Y58500D01*
X344561Y58569D01*
X344621Y58641D01*
X344679Y58714D01*
X344734Y58791D01*
X344786Y58869D01*
X344834Y58949D01*
X344879Y59031D01*
X344921Y59115D01*
X344960Y59201D01*
X344995Y59287D01*
X345026Y59376D01*
X345054Y59465D01*
X345078Y59556D01*
X345099Y59647D01*
X345116Y59740D01*
X345129Y59832D01*
X345138Y59926D01*
X345144Y60019D01*
X345146Y60113D01*
X345146Y64770D01*
X345144Y64864D01*
X345138Y64957D01*
X345129Y65051D01*
X345116Y65143D01*
X345099Y65236D01*
X345078Y65327D01*
X345054Y65418D01*
X345026Y65507D01*
X344995Y65596D01*
X344960Y65682D01*
X344921Y65768D01*
X344879Y65852D01*
X344834Y65934D01*
X344786Y66014D01*
X344734Y66092D01*
X344679Y66169D01*
X344621Y66242D01*
X344561Y66314D01*
X344497Y66383D01*
X344431Y66449D01*
X344362Y66513D01*
X344290Y66573D01*
X344217Y66631D01*
X344140Y66686D01*
X344062Y66738D01*
X343982Y66786D01*
X343900Y66831D01*
X343816Y66873D01*
X343730Y66912D01*
X343644Y66947D01*
X343555Y66978D01*
X343466Y67006D01*
X343375Y67030D01*
X343284Y67051D01*
X343191Y67068D01*
X343099Y67081D01*
X343005Y67090D01*
X342912Y67096D01*
X342818Y67098D01*
X339714Y67098D01*
X334668Y63994D02*
X334668Y60889D01*
X334668Y63994D02*
X334666Y64105D01*
X334660Y64215D01*
X334650Y64326D01*
X334636Y64436D01*
X334619Y64545D01*
X334597Y64654D01*
X334572Y64762D01*
X334542Y64868D01*
X334509Y64974D01*
X334472Y65079D01*
X334432Y65182D01*
X334387Y65283D01*
X334340Y65383D01*
X334288Y65482D01*
X334233Y65578D01*
X334175Y65672D01*
X334114Y65764D01*
X334049Y65854D01*
X333981Y65942D01*
X333910Y66027D01*
X333836Y66109D01*
X333759Y66189D01*
X333679Y66266D01*
X333597Y66340D01*
X333512Y66411D01*
X333424Y66479D01*
X333334Y66544D01*
X333242Y66605D01*
X333148Y66663D01*
X333052Y66718D01*
X332953Y66770D01*
X332853Y66817D01*
X332752Y66862D01*
X332649Y66902D01*
X332544Y66939D01*
X332438Y66972D01*
X332332Y67002D01*
X332224Y67027D01*
X332115Y67049D01*
X332006Y67066D01*
X331896Y67080D01*
X331785Y67090D01*
X331675Y67096D01*
X331564Y67098D01*
X331453Y67096D01*
X331343Y67090D01*
X331232Y67080D01*
X331122Y67066D01*
X331013Y67049D01*
X330904Y67027D01*
X330796Y67002D01*
X330690Y66972D01*
X330584Y66939D01*
X330479Y66902D01*
X330376Y66862D01*
X330275Y66817D01*
X330175Y66770D01*
X330076Y66718D01*
X329980Y66663D01*
X329886Y66605D01*
X329794Y66544D01*
X329704Y66479D01*
X329616Y66411D01*
X329531Y66340D01*
X329449Y66266D01*
X329369Y66189D01*
X329292Y66109D01*
X329218Y66027D01*
X329147Y65942D01*
X329079Y65854D01*
X329014Y65764D01*
X328953Y65672D01*
X328895Y65578D01*
X328840Y65482D01*
X328788Y65383D01*
X328741Y65283D01*
X328696Y65182D01*
X328656Y65079D01*
X328619Y64974D01*
X328586Y64868D01*
X328556Y64762D01*
X328531Y64654D01*
X328509Y64545D01*
X328492Y64436D01*
X328478Y64326D01*
X328468Y64215D01*
X328462Y64105D01*
X328460Y63994D01*
X328459Y63994D02*
X328459Y60889D01*
X328460Y60889D02*
X328462Y60778D01*
X328468Y60668D01*
X328478Y60557D01*
X328492Y60447D01*
X328509Y60338D01*
X328531Y60229D01*
X328556Y60121D01*
X328586Y60015D01*
X328619Y59909D01*
X328656Y59804D01*
X328696Y59701D01*
X328741Y59600D01*
X328788Y59500D01*
X328840Y59401D01*
X328895Y59305D01*
X328953Y59211D01*
X329014Y59119D01*
X329079Y59029D01*
X329147Y58941D01*
X329218Y58856D01*
X329292Y58774D01*
X329369Y58694D01*
X329449Y58617D01*
X329531Y58543D01*
X329616Y58472D01*
X329704Y58404D01*
X329794Y58339D01*
X329886Y58278D01*
X329980Y58220D01*
X330076Y58165D01*
X330175Y58113D01*
X330275Y58066D01*
X330376Y58021D01*
X330479Y57981D01*
X330584Y57944D01*
X330690Y57911D01*
X330796Y57881D01*
X330904Y57856D01*
X331013Y57834D01*
X331122Y57817D01*
X331232Y57803D01*
X331343Y57793D01*
X331453Y57787D01*
X331564Y57785D01*
X331675Y57787D01*
X331785Y57793D01*
X331896Y57803D01*
X332006Y57817D01*
X332115Y57834D01*
X332224Y57856D01*
X332332Y57881D01*
X332438Y57911D01*
X332544Y57944D01*
X332649Y57981D01*
X332752Y58021D01*
X332853Y58066D01*
X332953Y58113D01*
X333052Y58165D01*
X333148Y58220D01*
X333242Y58278D01*
X333334Y58339D01*
X333424Y58404D01*
X333512Y58472D01*
X333597Y58543D01*
X333679Y58617D01*
X333759Y58694D01*
X333836Y58774D01*
X333910Y58856D01*
X333981Y58941D01*
X334049Y59029D01*
X334114Y59119D01*
X334175Y59211D01*
X334233Y59305D01*
X334288Y59401D01*
X334340Y59500D01*
X334387Y59600D01*
X334432Y59701D01*
X334472Y59804D01*
X334509Y59909D01*
X334542Y60015D01*
X334572Y60121D01*
X334597Y60229D01*
X334619Y60338D01*
X334636Y60447D01*
X334650Y60557D01*
X334660Y60668D01*
X334666Y60778D01*
X334668Y60889D01*
X322075Y57785D02*
X322075Y67098D01*
X315090Y67098D01*
X314996Y67096D01*
X314903Y67090D01*
X314809Y67081D01*
X314717Y67068D01*
X314624Y67051D01*
X314533Y67030D01*
X314442Y67006D01*
X314353Y66978D01*
X314264Y66947D01*
X314178Y66912D01*
X314092Y66873D01*
X314008Y66831D01*
X313926Y66786D01*
X313846Y66738D01*
X313768Y66686D01*
X313691Y66631D01*
X313618Y66573D01*
X313546Y66513D01*
X313477Y66449D01*
X313411Y66383D01*
X313347Y66314D01*
X313287Y66242D01*
X313229Y66169D01*
X313174Y66092D01*
X313122Y66014D01*
X313074Y65934D01*
X313029Y65852D01*
X312987Y65768D01*
X312948Y65682D01*
X312913Y65596D01*
X312882Y65507D01*
X312854Y65418D01*
X312830Y65327D01*
X312809Y65236D01*
X312792Y65143D01*
X312779Y65051D01*
X312770Y64957D01*
X312764Y64864D01*
X312762Y64770D01*
X312762Y57785D01*
X317419Y57785D02*
X317419Y67098D01*
X306835Y56233D02*
X300626Y73307D01*
X295756Y67098D02*
X295756Y55457D01*
X295758Y55363D01*
X295764Y55270D01*
X295773Y55176D01*
X295786Y55084D01*
X295803Y54991D01*
X295824Y54900D01*
X295848Y54809D01*
X295876Y54720D01*
X295907Y54631D01*
X295942Y54545D01*
X295981Y54459D01*
X296023Y54375D01*
X296068Y54293D01*
X296116Y54213D01*
X296168Y54135D01*
X296223Y54058D01*
X296281Y53985D01*
X296341Y53913D01*
X296405Y53844D01*
X296471Y53778D01*
X296540Y53714D01*
X296612Y53654D01*
X296685Y53596D01*
X296762Y53541D01*
X296840Y53489D01*
X296920Y53441D01*
X297002Y53396D01*
X297086Y53354D01*
X297172Y53315D01*
X297258Y53280D01*
X297347Y53249D01*
X297436Y53221D01*
X297527Y53197D01*
X297618Y53176D01*
X297711Y53159D01*
X297803Y53146D01*
X297897Y53137D01*
X297990Y53131D01*
X298084Y53129D01*
X298084Y53128D02*
X298860Y53128D01*
X296144Y70979D02*
X296144Y71755D01*
X295368Y71755D01*
X295368Y70979D01*
X296144Y70979D01*
X289223Y67098D02*
X289223Y57785D01*
X289223Y67098D02*
X282238Y67098D01*
X282144Y67096D01*
X282051Y67090D01*
X281957Y67081D01*
X281865Y67068D01*
X281772Y67051D01*
X281681Y67030D01*
X281590Y67006D01*
X281501Y66978D01*
X281412Y66947D01*
X281326Y66912D01*
X281240Y66873D01*
X281156Y66831D01*
X281074Y66786D01*
X280994Y66738D01*
X280916Y66686D01*
X280839Y66631D01*
X280766Y66573D01*
X280694Y66513D01*
X280625Y66449D01*
X280559Y66383D01*
X280495Y66314D01*
X280435Y66242D01*
X280377Y66169D01*
X280322Y66092D01*
X280270Y66014D01*
X280222Y65934D01*
X280177Y65852D01*
X280135Y65768D01*
X280096Y65682D01*
X280061Y65596D01*
X280030Y65507D01*
X280002Y65418D01*
X279978Y65327D01*
X279957Y65236D01*
X279940Y65143D01*
X279927Y65051D01*
X279918Y64957D01*
X279912Y64864D01*
X279910Y64770D01*
X279910Y57785D01*
X284566Y57785D02*
X284566Y67098D01*
X272362Y63218D02*
X268481Y61666D01*
X272361Y63218D02*
X272443Y63253D01*
X272523Y63291D01*
X272601Y63333D01*
X272677Y63378D01*
X272751Y63426D01*
X272823Y63478D01*
X272893Y63533D01*
X272960Y63591D01*
X273025Y63651D01*
X273086Y63715D01*
X273145Y63781D01*
X273201Y63850D01*
X273254Y63921D01*
X273304Y63994D01*
X273350Y64070D01*
X273394Y64147D01*
X273433Y64226D01*
X273469Y64307D01*
X273502Y64390D01*
X273531Y64474D01*
X273556Y64559D01*
X273577Y64645D01*
X273595Y64732D01*
X273608Y64819D01*
X273618Y64907D01*
X273624Y64996D01*
X273626Y65084D01*
X273624Y65173D01*
X273618Y65261D01*
X273609Y65349D01*
X273595Y65437D01*
X273578Y65524D01*
X273557Y65610D01*
X273532Y65695D01*
X273503Y65779D01*
X273471Y65861D01*
X273435Y65942D01*
X273395Y66022D01*
X273352Y66099D01*
X273306Y66175D01*
X273256Y66248D01*
X273204Y66320D01*
X273148Y66388D01*
X273089Y66455D01*
X273027Y66518D01*
X272963Y66579D01*
X272896Y66637D01*
X272826Y66692D01*
X272754Y66744D01*
X272680Y66792D01*
X272604Y66838D01*
X272526Y66880D01*
X272446Y66918D01*
X272364Y66953D01*
X272281Y66984D01*
X272197Y67012D01*
X272112Y67035D01*
X272026Y67055D01*
X271938Y67072D01*
X271851Y67084D01*
X271762Y67093D01*
X271674Y67097D01*
X271585Y67098D01*
X271373Y67093D01*
X271162Y67082D01*
X270950Y67066D01*
X270740Y67045D01*
X270529Y67019D01*
X270320Y66988D01*
X270111Y66952D01*
X269903Y66912D01*
X269696Y66866D01*
X269490Y66815D01*
X269286Y66759D01*
X269083Y66698D01*
X268881Y66632D01*
X268681Y66562D01*
X268483Y66487D01*
X268287Y66407D01*
X268093Y66322D01*
X268482Y61665D02*
X268400Y61630D01*
X268320Y61592D01*
X268242Y61550D01*
X268166Y61505D01*
X268092Y61457D01*
X268020Y61405D01*
X267950Y61350D01*
X267883Y61292D01*
X267818Y61232D01*
X267757Y61168D01*
X267698Y61102D01*
X267642Y61033D01*
X267589Y60962D01*
X267539Y60889D01*
X267493Y60813D01*
X267449Y60736D01*
X267410Y60657D01*
X267374Y60576D01*
X267341Y60493D01*
X267312Y60409D01*
X267287Y60324D01*
X267266Y60238D01*
X267248Y60151D01*
X267235Y60064D01*
X267225Y59976D01*
X267219Y59887D01*
X267217Y59799D01*
X267219Y59710D01*
X267225Y59622D01*
X267234Y59534D01*
X267248Y59446D01*
X267265Y59359D01*
X267286Y59273D01*
X267311Y59188D01*
X267340Y59104D01*
X267372Y59022D01*
X267408Y58941D01*
X267448Y58861D01*
X267491Y58784D01*
X267537Y58708D01*
X267587Y58635D01*
X267639Y58563D01*
X267695Y58495D01*
X267754Y58428D01*
X267816Y58365D01*
X267880Y58304D01*
X267947Y58246D01*
X268017Y58191D01*
X268089Y58139D01*
X268163Y58091D01*
X268239Y58045D01*
X268317Y58003D01*
X268397Y57965D01*
X268479Y57930D01*
X268562Y57899D01*
X268646Y57871D01*
X268731Y57848D01*
X268817Y57828D01*
X268905Y57811D01*
X268992Y57799D01*
X269081Y57790D01*
X269169Y57786D01*
X269258Y57785D01*
X269257Y57784D02*
X269568Y57792D01*
X269879Y57808D01*
X270189Y57831D01*
X270499Y57861D01*
X270808Y57898D01*
X271117Y57943D01*
X271423Y57995D01*
X271729Y58055D01*
X272033Y58121D01*
X272336Y58195D01*
X272636Y58276D01*
X272935Y58364D01*
X273231Y58459D01*
X273526Y58560D01*
X259318Y57785D02*
X256214Y57785D01*
X259318Y57785D02*
X259412Y57787D01*
X259505Y57793D01*
X259599Y57802D01*
X259691Y57815D01*
X259784Y57832D01*
X259875Y57853D01*
X259966Y57877D01*
X260055Y57905D01*
X260144Y57936D01*
X260230Y57971D01*
X260316Y58010D01*
X260400Y58052D01*
X260482Y58097D01*
X260562Y58145D01*
X260640Y58197D01*
X260717Y58252D01*
X260790Y58310D01*
X260862Y58370D01*
X260931Y58434D01*
X260997Y58500D01*
X261061Y58569D01*
X261121Y58641D01*
X261179Y58714D01*
X261234Y58791D01*
X261286Y58869D01*
X261334Y58949D01*
X261379Y59031D01*
X261421Y59115D01*
X261460Y59201D01*
X261495Y59287D01*
X261526Y59376D01*
X261554Y59465D01*
X261578Y59556D01*
X261599Y59647D01*
X261616Y59740D01*
X261629Y59832D01*
X261638Y59926D01*
X261644Y60019D01*
X261646Y60113D01*
X261646Y64770D01*
X261644Y64864D01*
X261638Y64957D01*
X261629Y65051D01*
X261616Y65143D01*
X261599Y65236D01*
X261578Y65327D01*
X261554Y65418D01*
X261526Y65507D01*
X261495Y65596D01*
X261460Y65682D01*
X261421Y65768D01*
X261379Y65852D01*
X261334Y65934D01*
X261286Y66014D01*
X261234Y66092D01*
X261179Y66169D01*
X261121Y66242D01*
X261061Y66314D01*
X260997Y66383D01*
X260931Y66449D01*
X260862Y66513D01*
X260790Y66573D01*
X260717Y66631D01*
X260640Y66686D01*
X260562Y66738D01*
X260482Y66786D01*
X260400Y66831D01*
X260316Y66873D01*
X260230Y66912D01*
X260144Y66947D01*
X260055Y66978D01*
X259966Y67006D01*
X259875Y67030D01*
X259784Y67051D01*
X259691Y67068D01*
X259599Y67081D01*
X259505Y67090D01*
X259412Y67096D01*
X259318Y67098D01*
X256214Y67098D01*
X250004Y63218D02*
X246123Y61666D01*
X250003Y63218D02*
X250085Y63253D01*
X250165Y63291D01*
X250243Y63333D01*
X250319Y63378D01*
X250393Y63426D01*
X250465Y63478D01*
X250535Y63533D01*
X250602Y63591D01*
X250667Y63651D01*
X250728Y63715D01*
X250787Y63781D01*
X250843Y63850D01*
X250896Y63921D01*
X250946Y63994D01*
X250992Y64070D01*
X251036Y64147D01*
X251075Y64226D01*
X251111Y64307D01*
X251144Y64390D01*
X251173Y64474D01*
X251198Y64559D01*
X251219Y64645D01*
X251237Y64732D01*
X251250Y64819D01*
X251260Y64907D01*
X251266Y64996D01*
X251268Y65084D01*
X251266Y65173D01*
X251260Y65261D01*
X251251Y65349D01*
X251237Y65437D01*
X251220Y65524D01*
X251199Y65610D01*
X251174Y65695D01*
X251145Y65779D01*
X251113Y65861D01*
X251077Y65942D01*
X251037Y66022D01*
X250994Y66099D01*
X250948Y66175D01*
X250898Y66248D01*
X250846Y66320D01*
X250790Y66388D01*
X250731Y66455D01*
X250669Y66518D01*
X250605Y66579D01*
X250538Y66637D01*
X250468Y66692D01*
X250396Y66744D01*
X250322Y66792D01*
X250246Y66838D01*
X250168Y66880D01*
X250088Y66918D01*
X250006Y66953D01*
X249923Y66984D01*
X249839Y67012D01*
X249754Y67035D01*
X249668Y67055D01*
X249580Y67072D01*
X249493Y67084D01*
X249404Y67093D01*
X249316Y67097D01*
X249227Y67098D01*
X249228Y67098D02*
X249016Y67093D01*
X248805Y67082D01*
X248593Y67066D01*
X248383Y67045D01*
X248172Y67019D01*
X247963Y66988D01*
X247754Y66952D01*
X247546Y66912D01*
X247339Y66866D01*
X247133Y66815D01*
X246929Y66759D01*
X246726Y66698D01*
X246524Y66632D01*
X246324Y66562D01*
X246126Y66487D01*
X245930Y66407D01*
X245736Y66322D01*
X246124Y61665D02*
X246042Y61630D01*
X245962Y61592D01*
X245884Y61550D01*
X245808Y61505D01*
X245734Y61457D01*
X245662Y61405D01*
X245592Y61350D01*
X245525Y61292D01*
X245460Y61232D01*
X245399Y61168D01*
X245340Y61102D01*
X245284Y61033D01*
X245231Y60962D01*
X245181Y60889D01*
X245135Y60813D01*
X245091Y60736D01*
X245052Y60657D01*
X245016Y60576D01*
X244983Y60493D01*
X244954Y60409D01*
X244929Y60324D01*
X244908Y60238D01*
X244890Y60151D01*
X244877Y60064D01*
X244867Y59976D01*
X244861Y59887D01*
X244859Y59799D01*
X244861Y59710D01*
X244867Y59622D01*
X244876Y59534D01*
X244890Y59446D01*
X244907Y59359D01*
X244928Y59273D01*
X244953Y59188D01*
X244982Y59104D01*
X245014Y59022D01*
X245050Y58941D01*
X245090Y58861D01*
X245133Y58784D01*
X245179Y58708D01*
X245229Y58635D01*
X245281Y58563D01*
X245337Y58495D01*
X245396Y58428D01*
X245458Y58365D01*
X245522Y58304D01*
X245589Y58246D01*
X245659Y58191D01*
X245731Y58139D01*
X245805Y58091D01*
X245881Y58045D01*
X245959Y58003D01*
X246039Y57965D01*
X246121Y57930D01*
X246204Y57899D01*
X246288Y57871D01*
X246373Y57848D01*
X246459Y57828D01*
X246547Y57811D01*
X246634Y57799D01*
X246723Y57790D01*
X246811Y57786D01*
X246900Y57785D01*
X246900Y57784D02*
X247211Y57792D01*
X247522Y57808D01*
X247832Y57831D01*
X248142Y57861D01*
X248451Y57898D01*
X248760Y57943D01*
X249066Y57995D01*
X249372Y58055D01*
X249676Y58121D01*
X249979Y58195D01*
X250279Y58276D01*
X250578Y58364D01*
X250874Y58459D01*
X251169Y58560D01*
X239128Y60113D02*
X239128Y71755D01*
X239128Y60113D02*
X239126Y60019D01*
X239120Y59926D01*
X239111Y59832D01*
X239098Y59740D01*
X239081Y59647D01*
X239060Y59556D01*
X239036Y59465D01*
X239008Y59376D01*
X238977Y59287D01*
X238942Y59201D01*
X238903Y59115D01*
X238861Y59031D01*
X238816Y58949D01*
X238768Y58869D01*
X238716Y58791D01*
X238661Y58714D01*
X238603Y58641D01*
X238543Y58569D01*
X238479Y58500D01*
X238413Y58434D01*
X238344Y58370D01*
X238272Y58310D01*
X238199Y58252D01*
X238122Y58197D01*
X238044Y58145D01*
X237964Y58097D01*
X237882Y58052D01*
X237798Y58010D01*
X237712Y57971D01*
X237626Y57936D01*
X237537Y57905D01*
X237448Y57877D01*
X237357Y57853D01*
X237266Y57832D01*
X237173Y57815D01*
X237081Y57802D01*
X236987Y57793D01*
X236894Y57787D01*
X236800Y57785D01*
X229747Y57785D02*
X225866Y57785D01*
X229747Y57785D02*
X229841Y57787D01*
X229934Y57793D01*
X230028Y57802D01*
X230120Y57815D01*
X230213Y57832D01*
X230304Y57853D01*
X230395Y57877D01*
X230484Y57905D01*
X230573Y57936D01*
X230659Y57971D01*
X230745Y58010D01*
X230829Y58052D01*
X230911Y58097D01*
X230991Y58145D01*
X231069Y58197D01*
X231146Y58252D01*
X231219Y58310D01*
X231291Y58370D01*
X231360Y58434D01*
X231426Y58500D01*
X231490Y58569D01*
X231550Y58641D01*
X231608Y58714D01*
X231663Y58791D01*
X231715Y58869D01*
X231763Y58949D01*
X231808Y59031D01*
X231850Y59115D01*
X231889Y59201D01*
X231924Y59287D01*
X231955Y59376D01*
X231983Y59465D01*
X232007Y59556D01*
X232028Y59647D01*
X232045Y59740D01*
X232058Y59832D01*
X232067Y59926D01*
X232073Y60019D01*
X232075Y60113D01*
X232075Y64770D01*
X232073Y64864D01*
X232067Y64957D01*
X232058Y65051D01*
X232045Y65143D01*
X232028Y65236D01*
X232007Y65327D01*
X231983Y65418D01*
X231955Y65507D01*
X231924Y65596D01*
X231889Y65682D01*
X231850Y65768D01*
X231808Y65852D01*
X231763Y65934D01*
X231715Y66014D01*
X231663Y66092D01*
X231608Y66169D01*
X231550Y66242D01*
X231490Y66314D01*
X231426Y66383D01*
X231360Y66449D01*
X231291Y66513D01*
X231219Y66573D01*
X231146Y66631D01*
X231069Y66686D01*
X230991Y66738D01*
X230911Y66786D01*
X230829Y66831D01*
X230745Y66873D01*
X230659Y66912D01*
X230573Y66947D01*
X230484Y66978D01*
X230395Y67006D01*
X230304Y67030D01*
X230213Y67051D01*
X230120Y67068D01*
X230028Y67081D01*
X229934Y67090D01*
X229841Y67096D01*
X229747Y67098D01*
X225866Y67098D01*
X225866Y55457D01*
X225867Y55457D02*
X225869Y55363D01*
X225875Y55270D01*
X225884Y55176D01*
X225897Y55084D01*
X225914Y54991D01*
X225935Y54900D01*
X225959Y54809D01*
X225987Y54720D01*
X226018Y54631D01*
X226053Y54545D01*
X226092Y54459D01*
X226134Y54375D01*
X226179Y54293D01*
X226227Y54213D01*
X226279Y54135D01*
X226334Y54058D01*
X226392Y53985D01*
X226452Y53913D01*
X226516Y53844D01*
X226582Y53778D01*
X226651Y53714D01*
X226723Y53654D01*
X226796Y53596D01*
X226873Y53541D01*
X226951Y53489D01*
X227031Y53441D01*
X227113Y53396D01*
X227197Y53354D01*
X227283Y53315D01*
X227369Y53280D01*
X227458Y53249D01*
X227547Y53221D01*
X227638Y53197D01*
X227729Y53176D01*
X227822Y53159D01*
X227914Y53146D01*
X228008Y53137D01*
X228101Y53131D01*
X228195Y53129D01*
X228195Y53128D02*
X231299Y53128D01*
X219148Y57785D02*
X219148Y67098D01*
X214491Y67098D01*
X214491Y65546D01*
X210102Y63994D02*
X210102Y60889D01*
X210102Y63994D02*
X210100Y64105D01*
X210094Y64215D01*
X210084Y64326D01*
X210070Y64436D01*
X210053Y64545D01*
X210031Y64654D01*
X210006Y64762D01*
X209976Y64868D01*
X209943Y64974D01*
X209906Y65079D01*
X209866Y65182D01*
X209821Y65283D01*
X209774Y65383D01*
X209722Y65482D01*
X209667Y65578D01*
X209609Y65672D01*
X209548Y65764D01*
X209483Y65854D01*
X209415Y65942D01*
X209344Y66027D01*
X209270Y66109D01*
X209193Y66189D01*
X209113Y66266D01*
X209031Y66340D01*
X208946Y66411D01*
X208858Y66479D01*
X208768Y66544D01*
X208676Y66605D01*
X208582Y66663D01*
X208486Y66718D01*
X208387Y66770D01*
X208287Y66817D01*
X208186Y66862D01*
X208083Y66902D01*
X207978Y66939D01*
X207872Y66972D01*
X207766Y67002D01*
X207658Y67027D01*
X207549Y67049D01*
X207440Y67066D01*
X207330Y67080D01*
X207219Y67090D01*
X207109Y67096D01*
X206998Y67098D01*
X206887Y67096D01*
X206777Y67090D01*
X206666Y67080D01*
X206556Y67066D01*
X206447Y67049D01*
X206338Y67027D01*
X206230Y67002D01*
X206124Y66972D01*
X206018Y66939D01*
X205913Y66902D01*
X205810Y66862D01*
X205709Y66817D01*
X205609Y66770D01*
X205510Y66718D01*
X205414Y66663D01*
X205320Y66605D01*
X205228Y66544D01*
X205138Y66479D01*
X205050Y66411D01*
X204965Y66340D01*
X204883Y66266D01*
X204803Y66189D01*
X204726Y66109D01*
X204652Y66027D01*
X204581Y65942D01*
X204513Y65854D01*
X204448Y65764D01*
X204387Y65672D01*
X204329Y65578D01*
X204274Y65482D01*
X204222Y65383D01*
X204175Y65283D01*
X204130Y65182D01*
X204090Y65079D01*
X204053Y64974D01*
X204020Y64868D01*
X203990Y64762D01*
X203965Y64654D01*
X203943Y64545D01*
X203926Y64436D01*
X203912Y64326D01*
X203902Y64215D01*
X203896Y64105D01*
X203894Y63994D01*
X203894Y60889D01*
X203896Y60778D01*
X203902Y60668D01*
X203912Y60557D01*
X203926Y60447D01*
X203943Y60338D01*
X203965Y60229D01*
X203990Y60121D01*
X204020Y60015D01*
X204053Y59909D01*
X204090Y59804D01*
X204130Y59701D01*
X204175Y59600D01*
X204222Y59500D01*
X204274Y59401D01*
X204329Y59305D01*
X204387Y59211D01*
X204448Y59119D01*
X204513Y59029D01*
X204581Y58941D01*
X204652Y58856D01*
X204726Y58774D01*
X204803Y58694D01*
X204883Y58617D01*
X204965Y58543D01*
X205050Y58472D01*
X205138Y58404D01*
X205228Y58339D01*
X205320Y58278D01*
X205414Y58220D01*
X205510Y58165D01*
X205609Y58113D01*
X205709Y58066D01*
X205810Y58021D01*
X205913Y57981D01*
X206018Y57944D01*
X206124Y57911D01*
X206230Y57881D01*
X206338Y57856D01*
X206447Y57834D01*
X206556Y57817D01*
X206666Y57803D01*
X206777Y57793D01*
X206887Y57787D01*
X206998Y57785D01*
X207109Y57787D01*
X207219Y57793D01*
X207330Y57803D01*
X207440Y57817D01*
X207549Y57834D01*
X207658Y57856D01*
X207766Y57881D01*
X207872Y57911D01*
X207978Y57944D01*
X208083Y57981D01*
X208186Y58021D01*
X208287Y58066D01*
X208387Y58113D01*
X208486Y58165D01*
X208582Y58220D01*
X208676Y58278D01*
X208768Y58339D01*
X208858Y58404D01*
X208946Y58472D01*
X209031Y58543D01*
X209113Y58617D01*
X209193Y58694D01*
X209270Y58774D01*
X209344Y58856D01*
X209415Y58941D01*
X209483Y59029D01*
X209548Y59119D01*
X209609Y59211D01*
X209667Y59305D01*
X209722Y59401D01*
X209774Y59500D01*
X209821Y59600D01*
X209866Y59701D01*
X209906Y59804D01*
X209943Y59909D01*
X209976Y60015D01*
X210006Y60121D01*
X210031Y60229D01*
X210053Y60338D01*
X210070Y60447D01*
X210084Y60557D01*
X210094Y60668D01*
X210100Y60778D01*
X210102Y60889D01*
X197783Y60113D02*
X197783Y67098D01*
X197783Y60113D02*
X197781Y60019D01*
X197775Y59926D01*
X197766Y59832D01*
X197753Y59740D01*
X197736Y59647D01*
X197715Y59556D01*
X197691Y59465D01*
X197663Y59376D01*
X197632Y59287D01*
X197597Y59201D01*
X197558Y59115D01*
X197516Y59031D01*
X197471Y58949D01*
X197423Y58869D01*
X197371Y58791D01*
X197316Y58714D01*
X197258Y58641D01*
X197198Y58569D01*
X197134Y58500D01*
X197068Y58434D01*
X196999Y58370D01*
X196927Y58310D01*
X196854Y58252D01*
X196777Y58197D01*
X196699Y58145D01*
X196619Y58097D01*
X196537Y58052D01*
X196453Y58010D01*
X196367Y57971D01*
X196281Y57936D01*
X196192Y57905D01*
X196103Y57877D01*
X196012Y57853D01*
X195921Y57832D01*
X195828Y57815D01*
X195736Y57802D01*
X195642Y57793D01*
X195549Y57787D01*
X195455Y57785D01*
X191574Y57785D01*
X191574Y67098D01*
X184936Y67098D02*
X184936Y53128D01*
X184936Y67098D02*
X181055Y67098D01*
X180959Y67096D01*
X180863Y67090D01*
X180767Y67080D01*
X180672Y67066D01*
X180577Y67048D01*
X180484Y67027D01*
X180391Y67001D01*
X180299Y66972D01*
X180209Y66939D01*
X180120Y66902D01*
X180033Y66861D01*
X179947Y66817D01*
X179863Y66770D01*
X179782Y66719D01*
X179702Y66665D01*
X179625Y66607D01*
X179550Y66546D01*
X179478Y66483D01*
X179409Y66416D01*
X179342Y66347D01*
X179279Y66275D01*
X179218Y66200D01*
X179160Y66123D01*
X179106Y66043D01*
X179055Y65962D01*
X179008Y65878D01*
X178964Y65792D01*
X178923Y65705D01*
X178886Y65616D01*
X178853Y65526D01*
X178824Y65434D01*
X178798Y65342D01*
X178777Y65248D01*
X178759Y65153D01*
X178745Y65058D01*
X178735Y64962D01*
X178729Y64866D01*
X178727Y64770D01*
X178727Y60113D01*
X178729Y60019D01*
X178735Y59926D01*
X178744Y59832D01*
X178757Y59740D01*
X178774Y59647D01*
X178795Y59556D01*
X178819Y59465D01*
X178847Y59376D01*
X178878Y59287D01*
X178913Y59200D01*
X178952Y59115D01*
X178994Y59031D01*
X179039Y58949D01*
X179087Y58869D01*
X179139Y58791D01*
X179194Y58714D01*
X179252Y58641D01*
X179312Y58569D01*
X179376Y58500D01*
X179442Y58434D01*
X179511Y58370D01*
X179583Y58310D01*
X179656Y58252D01*
X179733Y58197D01*
X179811Y58145D01*
X179891Y58097D01*
X179973Y58052D01*
X180057Y58010D01*
X180143Y57971D01*
X180230Y57936D01*
X180318Y57905D01*
X180407Y57877D01*
X180498Y57853D01*
X180589Y57832D01*
X180682Y57815D01*
X180774Y57802D01*
X180868Y57793D01*
X180961Y57787D01*
X181055Y57785D01*
X184936Y57785D01*
X173600Y56233D02*
X167391Y73307D01*
X162016Y71755D02*
X162016Y60113D01*
X162014Y60019D01*
X162008Y59926D01*
X161999Y59832D01*
X161986Y59740D01*
X161969Y59647D01*
X161948Y59556D01*
X161924Y59465D01*
X161896Y59376D01*
X161865Y59287D01*
X161830Y59201D01*
X161791Y59115D01*
X161749Y59031D01*
X161704Y58949D01*
X161656Y58869D01*
X161604Y58791D01*
X161549Y58714D01*
X161491Y58641D01*
X161431Y58569D01*
X161367Y58500D01*
X161301Y58434D01*
X161232Y58370D01*
X161160Y58310D01*
X161087Y58252D01*
X161010Y58197D01*
X160932Y58145D01*
X160852Y58097D01*
X160770Y58052D01*
X160686Y58010D01*
X160600Y57971D01*
X160514Y57936D01*
X160425Y57905D01*
X160336Y57877D01*
X160245Y57853D01*
X160154Y57832D01*
X160061Y57815D01*
X159969Y57802D01*
X159875Y57793D01*
X159782Y57787D01*
X159688Y57785D01*
X154982Y57785D02*
X154982Y67098D01*
X155370Y70979D02*
X155370Y71755D01*
X154594Y71755D01*
X154594Y70979D01*
X155370Y70979D01*
X148889Y71755D02*
X148889Y57785D01*
X145009Y57785D01*
X144913Y57787D01*
X144817Y57793D01*
X144721Y57803D01*
X144626Y57817D01*
X144531Y57835D01*
X144438Y57856D01*
X144345Y57882D01*
X144253Y57911D01*
X144163Y57944D01*
X144074Y57981D01*
X143987Y58022D01*
X143901Y58066D01*
X143817Y58113D01*
X143736Y58164D01*
X143656Y58218D01*
X143579Y58276D01*
X143504Y58337D01*
X143432Y58400D01*
X143363Y58467D01*
X143296Y58536D01*
X143233Y58608D01*
X143172Y58683D01*
X143114Y58760D01*
X143060Y58840D01*
X143009Y58921D01*
X142962Y59005D01*
X142918Y59091D01*
X142877Y59178D01*
X142840Y59267D01*
X142807Y59357D01*
X142778Y59449D01*
X142752Y59541D01*
X142731Y59635D01*
X142713Y59730D01*
X142699Y59825D01*
X142689Y59921D01*
X142683Y60017D01*
X142681Y60113D01*
X142680Y60113D02*
X142680Y64770D01*
X142681Y64770D02*
X142683Y64864D01*
X142689Y64957D01*
X142698Y65051D01*
X142711Y65143D01*
X142728Y65236D01*
X142749Y65327D01*
X142773Y65418D01*
X142801Y65507D01*
X142832Y65596D01*
X142867Y65683D01*
X142906Y65768D01*
X142948Y65852D01*
X142993Y65934D01*
X143041Y66014D01*
X143093Y66092D01*
X143148Y66169D01*
X143206Y66242D01*
X143266Y66314D01*
X143330Y66383D01*
X143396Y66449D01*
X143465Y66513D01*
X143537Y66573D01*
X143610Y66631D01*
X143687Y66686D01*
X143765Y66738D01*
X143845Y66786D01*
X143927Y66831D01*
X144011Y66873D01*
X144097Y66912D01*
X144184Y66947D01*
X144272Y66978D01*
X144361Y67006D01*
X144452Y67030D01*
X144543Y67051D01*
X144636Y67068D01*
X144728Y67081D01*
X144822Y67090D01*
X144915Y67096D01*
X145009Y67098D01*
X148889Y67098D01*
X136570Y67098D02*
X136570Y53128D01*
X136570Y67098D02*
X132689Y67098D01*
X132593Y67096D01*
X132497Y67090D01*
X132401Y67080D01*
X132306Y67066D01*
X132211Y67048D01*
X132118Y67027D01*
X132025Y67001D01*
X131933Y66972D01*
X131843Y66939D01*
X131754Y66902D01*
X131667Y66861D01*
X131581Y66817D01*
X131497Y66770D01*
X131416Y66719D01*
X131336Y66665D01*
X131259Y66607D01*
X131184Y66546D01*
X131112Y66483D01*
X131043Y66416D01*
X130976Y66347D01*
X130913Y66275D01*
X130852Y66200D01*
X130794Y66123D01*
X130740Y66043D01*
X130689Y65962D01*
X130642Y65878D01*
X130598Y65792D01*
X130557Y65705D01*
X130520Y65616D01*
X130487Y65526D01*
X130458Y65434D01*
X130432Y65342D01*
X130411Y65248D01*
X130393Y65153D01*
X130379Y65058D01*
X130369Y64962D01*
X130363Y64866D01*
X130361Y64770D01*
X130361Y60113D01*
X130363Y60019D01*
X130369Y59926D01*
X130378Y59832D01*
X130391Y59740D01*
X130408Y59647D01*
X130429Y59556D01*
X130453Y59465D01*
X130481Y59376D01*
X130512Y59287D01*
X130547Y59200D01*
X130586Y59115D01*
X130628Y59031D01*
X130673Y58949D01*
X130721Y58869D01*
X130773Y58791D01*
X130828Y58714D01*
X130886Y58641D01*
X130946Y58569D01*
X131010Y58500D01*
X131076Y58434D01*
X131145Y58370D01*
X131217Y58310D01*
X131290Y58252D01*
X131367Y58197D01*
X131445Y58145D01*
X131525Y58097D01*
X131607Y58052D01*
X131691Y58010D01*
X131777Y57971D01*
X131864Y57936D01*
X131952Y57905D01*
X132041Y57877D01*
X132132Y57853D01*
X132223Y57832D01*
X132316Y57815D01*
X132408Y57802D01*
X132502Y57793D01*
X132595Y57787D01*
X132689Y57785D01*
X136570Y57785D01*
X122132Y63218D02*
X118640Y63218D01*
X122132Y63217D02*
X122235Y63215D01*
X122337Y63209D01*
X122440Y63200D01*
X122542Y63186D01*
X122643Y63169D01*
X122744Y63147D01*
X122843Y63122D01*
X122942Y63093D01*
X123039Y63061D01*
X123136Y63025D01*
X123230Y62985D01*
X123324Y62942D01*
X123415Y62895D01*
X123505Y62845D01*
X123593Y62791D01*
X123678Y62734D01*
X123762Y62674D01*
X123843Y62611D01*
X123921Y62544D01*
X123997Y62475D01*
X124071Y62403D01*
X124141Y62329D01*
X124209Y62251D01*
X124274Y62171D01*
X124335Y62089D01*
X124394Y62005D01*
X124449Y61918D01*
X124501Y61829D01*
X124550Y61739D01*
X124595Y61646D01*
X124636Y61552D01*
X124674Y61457D01*
X124709Y61360D01*
X124739Y61262D01*
X124766Y61162D01*
X124789Y61062D01*
X124809Y60961D01*
X124824Y60860D01*
X124836Y60758D01*
X124844Y60655D01*
X124848Y60552D01*
X124848Y60450D01*
X124844Y60347D01*
X124836Y60244D01*
X124824Y60142D01*
X124809Y60041D01*
X124789Y59940D01*
X124766Y59840D01*
X124739Y59740D01*
X124709Y59642D01*
X124674Y59545D01*
X124636Y59450D01*
X124595Y59356D01*
X124550Y59263D01*
X124501Y59173D01*
X124449Y59084D01*
X124394Y58997D01*
X124335Y58913D01*
X124274Y58831D01*
X124209Y58751D01*
X124141Y58673D01*
X124071Y58599D01*
X123997Y58527D01*
X123921Y58458D01*
X123843Y58391D01*
X123762Y58328D01*
X123678Y58268D01*
X123593Y58211D01*
X123505Y58157D01*
X123415Y58107D01*
X123324Y58060D01*
X123230Y58017D01*
X123136Y57977D01*
X123039Y57941D01*
X122942Y57909D01*
X122843Y57880D01*
X122744Y57855D01*
X122643Y57833D01*
X122542Y57816D01*
X122440Y57802D01*
X122337Y57793D01*
X122235Y57787D01*
X122132Y57785D01*
X118640Y57785D01*
X118640Y64770D01*
X118642Y64864D01*
X118648Y64957D01*
X118657Y65051D01*
X118670Y65143D01*
X118687Y65236D01*
X118708Y65327D01*
X118732Y65418D01*
X118760Y65507D01*
X118791Y65596D01*
X118826Y65683D01*
X118865Y65768D01*
X118907Y65852D01*
X118952Y65934D01*
X119000Y66014D01*
X119052Y66092D01*
X119107Y66169D01*
X119165Y66242D01*
X119225Y66314D01*
X119289Y66383D01*
X119355Y66449D01*
X119424Y66513D01*
X119496Y66573D01*
X119569Y66631D01*
X119646Y66686D01*
X119724Y66738D01*
X119804Y66786D01*
X119886Y66831D01*
X119970Y66873D01*
X120056Y66912D01*
X120143Y66947D01*
X120231Y66978D01*
X120320Y67006D01*
X120411Y67030D01*
X120502Y67051D01*
X120595Y67068D01*
X120687Y67081D01*
X120781Y67090D01*
X120874Y67096D01*
X120968Y67098D01*
X124073Y67098D01*
X112001Y67098D02*
X112001Y57785D01*
X112001Y67098D02*
X108121Y67098D01*
X108025Y67096D01*
X107929Y67090D01*
X107833Y67080D01*
X107738Y67066D01*
X107643Y67048D01*
X107550Y67027D01*
X107457Y67001D01*
X107365Y66972D01*
X107275Y66939D01*
X107186Y66902D01*
X107099Y66861D01*
X107013Y66817D01*
X106929Y66770D01*
X106848Y66719D01*
X106768Y66665D01*
X106691Y66607D01*
X106616Y66546D01*
X106544Y66483D01*
X106475Y66416D01*
X106408Y66347D01*
X106345Y66275D01*
X106284Y66200D01*
X106226Y66123D01*
X106172Y66043D01*
X106121Y65962D01*
X106074Y65878D01*
X106030Y65792D01*
X105989Y65705D01*
X105952Y65616D01*
X105919Y65526D01*
X105890Y65434D01*
X105864Y65342D01*
X105843Y65248D01*
X105825Y65153D01*
X105811Y65058D01*
X105801Y64962D01*
X105795Y64866D01*
X105793Y64770D01*
X105793Y57785D01*
X93544Y57785D02*
X93544Y71755D01*
X93544Y57785D02*
X97425Y57785D01*
X97519Y57787D01*
X97612Y57793D01*
X97706Y57802D01*
X97798Y57815D01*
X97891Y57832D01*
X97982Y57853D01*
X98073Y57877D01*
X98162Y57905D01*
X98251Y57936D01*
X98337Y57971D01*
X98423Y58010D01*
X98507Y58052D01*
X98589Y58097D01*
X98669Y58145D01*
X98747Y58197D01*
X98824Y58252D01*
X98897Y58310D01*
X98969Y58370D01*
X99038Y58434D01*
X99104Y58500D01*
X99168Y58569D01*
X99228Y58641D01*
X99286Y58714D01*
X99341Y58791D01*
X99393Y58869D01*
X99441Y58949D01*
X99486Y59031D01*
X99528Y59115D01*
X99567Y59201D01*
X99602Y59287D01*
X99633Y59376D01*
X99661Y59465D01*
X99685Y59556D01*
X99706Y59647D01*
X99723Y59740D01*
X99736Y59832D01*
X99745Y59926D01*
X99751Y60019D01*
X99753Y60113D01*
X99753Y64770D01*
X99751Y64864D01*
X99745Y64957D01*
X99736Y65051D01*
X99723Y65143D01*
X99706Y65236D01*
X99685Y65327D01*
X99661Y65418D01*
X99633Y65507D01*
X99602Y65596D01*
X99567Y65682D01*
X99528Y65768D01*
X99486Y65852D01*
X99441Y65934D01*
X99393Y66014D01*
X99341Y66092D01*
X99286Y66169D01*
X99228Y66242D01*
X99168Y66314D01*
X99104Y66383D01*
X99038Y66449D01*
X98969Y66513D01*
X98897Y66573D01*
X98824Y66631D01*
X98747Y66686D01*
X98669Y66738D01*
X98589Y66786D01*
X98507Y66831D01*
X98423Y66873D01*
X98337Y66912D01*
X98251Y66947D01*
X98162Y66978D01*
X98073Y67006D01*
X97982Y67030D01*
X97891Y67051D01*
X97798Y67068D01*
X97706Y67081D01*
X97612Y67090D01*
X97519Y67096D01*
X97425Y67098D01*
X93544Y67098D01*
X84717Y63218D02*
X81224Y63218D01*
X84717Y63217D02*
X84820Y63215D01*
X84922Y63209D01*
X85025Y63200D01*
X85127Y63186D01*
X85228Y63169D01*
X85329Y63147D01*
X85428Y63122D01*
X85527Y63093D01*
X85624Y63061D01*
X85721Y63025D01*
X85815Y62985D01*
X85909Y62942D01*
X86000Y62895D01*
X86090Y62845D01*
X86178Y62791D01*
X86263Y62734D01*
X86347Y62674D01*
X86428Y62611D01*
X86506Y62544D01*
X86582Y62475D01*
X86656Y62403D01*
X86726Y62329D01*
X86794Y62251D01*
X86859Y62171D01*
X86920Y62089D01*
X86979Y62005D01*
X87034Y61918D01*
X87086Y61829D01*
X87135Y61739D01*
X87180Y61646D01*
X87221Y61552D01*
X87259Y61457D01*
X87294Y61360D01*
X87324Y61262D01*
X87351Y61162D01*
X87374Y61062D01*
X87394Y60961D01*
X87409Y60860D01*
X87421Y60758D01*
X87429Y60655D01*
X87433Y60552D01*
X87433Y60450D01*
X87429Y60347D01*
X87421Y60244D01*
X87409Y60142D01*
X87394Y60041D01*
X87374Y59940D01*
X87351Y59840D01*
X87324Y59740D01*
X87294Y59642D01*
X87259Y59545D01*
X87221Y59450D01*
X87180Y59356D01*
X87135Y59263D01*
X87086Y59173D01*
X87034Y59084D01*
X86979Y58997D01*
X86920Y58913D01*
X86859Y58831D01*
X86794Y58751D01*
X86726Y58673D01*
X86656Y58599D01*
X86582Y58527D01*
X86506Y58458D01*
X86428Y58391D01*
X86347Y58328D01*
X86263Y58268D01*
X86178Y58211D01*
X86090Y58157D01*
X86000Y58107D01*
X85909Y58060D01*
X85815Y58017D01*
X85721Y57977D01*
X85624Y57941D01*
X85527Y57909D01*
X85428Y57880D01*
X85329Y57855D01*
X85228Y57833D01*
X85127Y57816D01*
X85025Y57802D01*
X84922Y57793D01*
X84820Y57787D01*
X84717Y57785D01*
X81224Y57785D01*
X81224Y64770D01*
X81225Y64770D02*
X81227Y64864D01*
X81233Y64957D01*
X81242Y65051D01*
X81255Y65143D01*
X81272Y65236D01*
X81293Y65327D01*
X81317Y65418D01*
X81345Y65507D01*
X81376Y65596D01*
X81411Y65683D01*
X81450Y65768D01*
X81492Y65852D01*
X81537Y65934D01*
X81585Y66014D01*
X81637Y66092D01*
X81692Y66169D01*
X81750Y66242D01*
X81810Y66314D01*
X81874Y66383D01*
X81940Y66449D01*
X82009Y66513D01*
X82081Y66573D01*
X82154Y66631D01*
X82231Y66686D01*
X82309Y66738D01*
X82389Y66786D01*
X82471Y66831D01*
X82555Y66873D01*
X82641Y66912D01*
X82728Y66947D01*
X82816Y66978D01*
X82905Y67006D01*
X82996Y67030D01*
X83087Y67051D01*
X83180Y67068D01*
X83272Y67081D01*
X83366Y67090D01*
X83459Y67096D01*
X83553Y67098D01*
X86657Y67098D01*
X507659Y45508D02*
X507659Y36195D01*
X507659Y45508D02*
X500674Y45508D01*
X500580Y45506D01*
X500487Y45500D01*
X500393Y45491D01*
X500301Y45478D01*
X500208Y45461D01*
X500117Y45440D01*
X500026Y45416D01*
X499937Y45388D01*
X499848Y45357D01*
X499762Y45322D01*
X499676Y45283D01*
X499592Y45241D01*
X499510Y45196D01*
X499430Y45148D01*
X499352Y45096D01*
X499275Y45041D01*
X499202Y44983D01*
X499130Y44923D01*
X499061Y44859D01*
X498995Y44793D01*
X498931Y44724D01*
X498871Y44652D01*
X498813Y44579D01*
X498758Y44502D01*
X498706Y44424D01*
X498658Y44344D01*
X498613Y44262D01*
X498571Y44178D01*
X498532Y44092D01*
X498497Y44006D01*
X498466Y43917D01*
X498438Y43828D01*
X498414Y43737D01*
X498393Y43646D01*
X498376Y43553D01*
X498363Y43461D01*
X498354Y43367D01*
X498348Y43274D01*
X498346Y43180D01*
X498345Y43180D02*
X498345Y36195D01*
X503002Y36195D02*
X503002Y45508D01*
X489316Y41628D02*
X485824Y41628D01*
X489316Y41627D02*
X489419Y41625D01*
X489521Y41619D01*
X489624Y41610D01*
X489726Y41596D01*
X489827Y41579D01*
X489928Y41557D01*
X490027Y41532D01*
X490126Y41503D01*
X490223Y41471D01*
X490320Y41435D01*
X490414Y41395D01*
X490508Y41352D01*
X490599Y41305D01*
X490689Y41255D01*
X490777Y41201D01*
X490862Y41144D01*
X490946Y41084D01*
X491027Y41021D01*
X491105Y40954D01*
X491181Y40885D01*
X491255Y40813D01*
X491325Y40739D01*
X491393Y40661D01*
X491458Y40581D01*
X491519Y40499D01*
X491578Y40415D01*
X491633Y40328D01*
X491685Y40239D01*
X491734Y40149D01*
X491779Y40056D01*
X491820Y39962D01*
X491858Y39867D01*
X491893Y39770D01*
X491923Y39672D01*
X491950Y39572D01*
X491973Y39472D01*
X491993Y39371D01*
X492008Y39270D01*
X492020Y39168D01*
X492028Y39065D01*
X492032Y38962D01*
X492032Y38860D01*
X492028Y38757D01*
X492020Y38654D01*
X492008Y38552D01*
X491993Y38451D01*
X491973Y38350D01*
X491950Y38250D01*
X491923Y38150D01*
X491893Y38052D01*
X491858Y37955D01*
X491820Y37860D01*
X491779Y37766D01*
X491734Y37673D01*
X491685Y37583D01*
X491633Y37494D01*
X491578Y37407D01*
X491519Y37323D01*
X491458Y37241D01*
X491393Y37161D01*
X491325Y37083D01*
X491255Y37009D01*
X491181Y36937D01*
X491105Y36868D01*
X491027Y36801D01*
X490946Y36738D01*
X490862Y36678D01*
X490777Y36621D01*
X490689Y36567D01*
X490599Y36517D01*
X490508Y36470D01*
X490414Y36427D01*
X490320Y36387D01*
X490223Y36351D01*
X490126Y36319D01*
X490027Y36290D01*
X489928Y36265D01*
X489827Y36243D01*
X489726Y36226D01*
X489624Y36212D01*
X489521Y36203D01*
X489419Y36197D01*
X489316Y36195D01*
X485824Y36195D01*
X485824Y43180D01*
X485826Y43274D01*
X485832Y43367D01*
X485841Y43461D01*
X485854Y43553D01*
X485871Y43646D01*
X485892Y43737D01*
X485916Y43828D01*
X485944Y43917D01*
X485975Y44006D01*
X486010Y44093D01*
X486049Y44178D01*
X486091Y44262D01*
X486136Y44344D01*
X486184Y44424D01*
X486236Y44502D01*
X486291Y44579D01*
X486349Y44652D01*
X486409Y44724D01*
X486473Y44793D01*
X486539Y44859D01*
X486608Y44923D01*
X486680Y44983D01*
X486753Y45041D01*
X486830Y45096D01*
X486908Y45148D01*
X486988Y45196D01*
X487070Y45241D01*
X487154Y45283D01*
X487240Y45322D01*
X487327Y45357D01*
X487415Y45388D01*
X487504Y45416D01*
X487595Y45440D01*
X487686Y45461D01*
X487779Y45478D01*
X487871Y45491D01*
X487965Y45500D01*
X488058Y45506D01*
X488152Y45508D01*
X491257Y45508D01*
X480803Y45508D02*
X476146Y45508D01*
X479251Y50165D02*
X479251Y38523D01*
X479250Y38523D02*
X479248Y38429D01*
X479242Y38336D01*
X479233Y38242D01*
X479220Y38150D01*
X479203Y38057D01*
X479182Y37966D01*
X479158Y37875D01*
X479130Y37786D01*
X479099Y37697D01*
X479064Y37611D01*
X479025Y37525D01*
X478983Y37441D01*
X478938Y37359D01*
X478890Y37279D01*
X478838Y37201D01*
X478783Y37124D01*
X478725Y37051D01*
X478665Y36979D01*
X478601Y36910D01*
X478535Y36844D01*
X478466Y36780D01*
X478394Y36720D01*
X478321Y36662D01*
X478244Y36607D01*
X478166Y36555D01*
X478086Y36507D01*
X478004Y36462D01*
X477920Y36420D01*
X477834Y36381D01*
X477748Y36346D01*
X477659Y36315D01*
X477570Y36287D01*
X477479Y36263D01*
X477388Y36242D01*
X477295Y36225D01*
X477203Y36212D01*
X477109Y36203D01*
X477016Y36197D01*
X476922Y36195D01*
X476146Y36195D01*
X472133Y45508D02*
X467477Y45508D01*
X470581Y50165D02*
X470581Y38523D01*
X470579Y38429D01*
X470573Y38336D01*
X470564Y38242D01*
X470551Y38150D01*
X470534Y38057D01*
X470513Y37966D01*
X470489Y37875D01*
X470461Y37786D01*
X470430Y37697D01*
X470395Y37611D01*
X470356Y37525D01*
X470314Y37441D01*
X470269Y37359D01*
X470221Y37279D01*
X470169Y37201D01*
X470114Y37124D01*
X470056Y37051D01*
X469996Y36979D01*
X469932Y36910D01*
X469866Y36844D01*
X469797Y36780D01*
X469725Y36720D01*
X469652Y36662D01*
X469575Y36607D01*
X469497Y36555D01*
X469417Y36507D01*
X469335Y36462D01*
X469251Y36420D01*
X469165Y36381D01*
X469079Y36346D01*
X468990Y36315D01*
X468901Y36287D01*
X468810Y36263D01*
X468719Y36242D01*
X468626Y36225D01*
X468534Y36212D01*
X468440Y36203D01*
X468347Y36197D01*
X468253Y36195D01*
X467477Y36195D01*
X461847Y36195D02*
X461847Y50165D01*
X461847Y45508D02*
X457966Y45508D01*
X457870Y45506D01*
X457774Y45500D01*
X457678Y45490D01*
X457583Y45476D01*
X457488Y45458D01*
X457395Y45437D01*
X457302Y45411D01*
X457210Y45382D01*
X457120Y45349D01*
X457031Y45312D01*
X456944Y45271D01*
X456858Y45227D01*
X456774Y45180D01*
X456693Y45129D01*
X456613Y45075D01*
X456536Y45017D01*
X456461Y44956D01*
X456389Y44893D01*
X456320Y44826D01*
X456253Y44757D01*
X456190Y44685D01*
X456129Y44610D01*
X456071Y44533D01*
X456017Y44453D01*
X455966Y44372D01*
X455919Y44288D01*
X455875Y44202D01*
X455834Y44115D01*
X455797Y44026D01*
X455764Y43936D01*
X455735Y43844D01*
X455709Y43752D01*
X455688Y43658D01*
X455670Y43563D01*
X455656Y43468D01*
X455646Y43372D01*
X455640Y43276D01*
X455638Y43180D01*
X455638Y36195D01*
X447199Y36195D02*
X443318Y36195D01*
X447199Y36195D02*
X447293Y36197D01*
X447386Y36203D01*
X447480Y36212D01*
X447572Y36225D01*
X447665Y36242D01*
X447756Y36263D01*
X447847Y36287D01*
X447936Y36315D01*
X448025Y36346D01*
X448111Y36381D01*
X448197Y36420D01*
X448281Y36462D01*
X448363Y36507D01*
X448443Y36555D01*
X448521Y36607D01*
X448598Y36662D01*
X448671Y36720D01*
X448743Y36780D01*
X448812Y36844D01*
X448878Y36910D01*
X448942Y36979D01*
X449002Y37051D01*
X449060Y37124D01*
X449115Y37201D01*
X449167Y37279D01*
X449215Y37359D01*
X449260Y37441D01*
X449302Y37525D01*
X449341Y37611D01*
X449376Y37697D01*
X449407Y37786D01*
X449435Y37875D01*
X449459Y37966D01*
X449480Y38057D01*
X449497Y38150D01*
X449510Y38242D01*
X449519Y38336D01*
X449525Y38429D01*
X449527Y38523D01*
X449527Y42404D01*
X449525Y42515D01*
X449519Y42625D01*
X449509Y42736D01*
X449495Y42846D01*
X449478Y42955D01*
X449456Y43064D01*
X449431Y43172D01*
X449401Y43278D01*
X449368Y43384D01*
X449331Y43489D01*
X449291Y43592D01*
X449246Y43693D01*
X449199Y43793D01*
X449147Y43892D01*
X449092Y43988D01*
X449034Y44082D01*
X448973Y44174D01*
X448908Y44264D01*
X448840Y44352D01*
X448769Y44437D01*
X448695Y44519D01*
X448618Y44599D01*
X448538Y44676D01*
X448456Y44750D01*
X448371Y44821D01*
X448283Y44889D01*
X448193Y44954D01*
X448101Y45015D01*
X448007Y45073D01*
X447911Y45128D01*
X447812Y45180D01*
X447712Y45227D01*
X447611Y45272D01*
X447508Y45312D01*
X447403Y45349D01*
X447297Y45382D01*
X447191Y45412D01*
X447083Y45437D01*
X446974Y45459D01*
X446865Y45476D01*
X446755Y45490D01*
X446644Y45500D01*
X446534Y45506D01*
X446423Y45508D01*
X446312Y45506D01*
X446202Y45500D01*
X446091Y45490D01*
X445981Y45476D01*
X445872Y45459D01*
X445763Y45437D01*
X445655Y45412D01*
X445549Y45382D01*
X445443Y45349D01*
X445338Y45312D01*
X445235Y45272D01*
X445134Y45227D01*
X445034Y45180D01*
X444935Y45128D01*
X444839Y45073D01*
X444745Y45015D01*
X444653Y44954D01*
X444563Y44889D01*
X444475Y44821D01*
X444390Y44750D01*
X444308Y44676D01*
X444228Y44599D01*
X444151Y44519D01*
X444077Y44437D01*
X444006Y44352D01*
X443938Y44264D01*
X443873Y44174D01*
X443812Y44082D01*
X443754Y43988D01*
X443699Y43892D01*
X443647Y43793D01*
X443600Y43693D01*
X443555Y43592D01*
X443515Y43489D01*
X443478Y43384D01*
X443445Y43278D01*
X443415Y43172D01*
X443390Y43064D01*
X443368Y42955D01*
X443351Y42846D01*
X443337Y42736D01*
X443327Y42625D01*
X443321Y42515D01*
X443319Y42404D01*
X443318Y42404D02*
X443318Y40852D01*
X449527Y40852D01*
X437847Y45508D02*
X435519Y36195D01*
X433190Y42404D01*
X430862Y36195D01*
X428534Y45508D01*
X423540Y36971D02*
X423540Y36195D01*
X423540Y36971D02*
X422764Y36971D01*
X422764Y36195D01*
X423540Y36195D01*
X417050Y36195D02*
X417050Y45508D01*
X412394Y45508D01*
X412394Y43956D01*
X408483Y36971D02*
X408483Y36195D01*
X408483Y36971D02*
X407707Y36971D01*
X407707Y36195D01*
X408483Y36195D01*
X402002Y36195D02*
X402002Y50165D01*
X402002Y36195D02*
X398122Y36195D01*
X398026Y36197D01*
X397930Y36203D01*
X397834Y36213D01*
X397739Y36227D01*
X397644Y36245D01*
X397551Y36266D01*
X397458Y36292D01*
X397366Y36321D01*
X397276Y36354D01*
X397187Y36391D01*
X397100Y36432D01*
X397014Y36476D01*
X396930Y36523D01*
X396849Y36574D01*
X396769Y36628D01*
X396692Y36686D01*
X396617Y36747D01*
X396545Y36810D01*
X396476Y36877D01*
X396409Y36946D01*
X396346Y37018D01*
X396285Y37093D01*
X396227Y37170D01*
X396173Y37250D01*
X396122Y37331D01*
X396075Y37415D01*
X396031Y37501D01*
X395990Y37588D01*
X395953Y37677D01*
X395920Y37767D01*
X395891Y37859D01*
X395865Y37951D01*
X395844Y38045D01*
X395826Y38140D01*
X395812Y38235D01*
X395802Y38331D01*
X395796Y38427D01*
X395794Y38523D01*
X395793Y38523D02*
X395793Y43180D01*
X395794Y43180D02*
X395796Y43274D01*
X395802Y43367D01*
X395811Y43461D01*
X395824Y43553D01*
X395841Y43646D01*
X395862Y43737D01*
X395886Y43828D01*
X395914Y43917D01*
X395945Y44006D01*
X395980Y44093D01*
X396019Y44178D01*
X396061Y44262D01*
X396106Y44344D01*
X396154Y44424D01*
X396206Y44502D01*
X396261Y44579D01*
X396319Y44652D01*
X396379Y44724D01*
X396443Y44793D01*
X396509Y44859D01*
X396578Y44923D01*
X396650Y44983D01*
X396723Y45041D01*
X396800Y45096D01*
X396878Y45148D01*
X396958Y45196D01*
X397040Y45241D01*
X397124Y45283D01*
X397210Y45322D01*
X397297Y45357D01*
X397385Y45388D01*
X397474Y45416D01*
X397565Y45440D01*
X397656Y45461D01*
X397749Y45478D01*
X397841Y45491D01*
X397935Y45500D01*
X398028Y45506D01*
X398122Y45508D01*
X402002Y45508D01*
X389754Y45508D02*
X389754Y38523D01*
X389752Y38429D01*
X389746Y38336D01*
X389737Y38242D01*
X389724Y38150D01*
X389707Y38057D01*
X389686Y37966D01*
X389662Y37875D01*
X389634Y37786D01*
X389603Y37697D01*
X389568Y37611D01*
X389529Y37525D01*
X389487Y37441D01*
X389442Y37359D01*
X389394Y37279D01*
X389342Y37201D01*
X389287Y37124D01*
X389229Y37051D01*
X389169Y36979D01*
X389105Y36910D01*
X389039Y36844D01*
X388970Y36780D01*
X388898Y36720D01*
X388825Y36662D01*
X388748Y36607D01*
X388670Y36555D01*
X388590Y36507D01*
X388508Y36462D01*
X388424Y36420D01*
X388338Y36381D01*
X388252Y36346D01*
X388163Y36315D01*
X388074Y36287D01*
X387983Y36263D01*
X387892Y36242D01*
X387799Y36225D01*
X387707Y36212D01*
X387613Y36203D01*
X387520Y36197D01*
X387426Y36195D01*
X383545Y36195D01*
X383545Y45508D01*
X376978Y45508D02*
X376978Y36195D01*
X376978Y45508D02*
X373097Y45508D01*
X373001Y45506D01*
X372905Y45500D01*
X372809Y45490D01*
X372714Y45476D01*
X372619Y45458D01*
X372526Y45437D01*
X372433Y45411D01*
X372341Y45382D01*
X372251Y45349D01*
X372162Y45312D01*
X372075Y45271D01*
X371989Y45227D01*
X371905Y45180D01*
X371824Y45129D01*
X371744Y45075D01*
X371667Y45017D01*
X371592Y44956D01*
X371520Y44893D01*
X371451Y44826D01*
X371384Y44757D01*
X371321Y44685D01*
X371260Y44610D01*
X371202Y44533D01*
X371148Y44453D01*
X371097Y44372D01*
X371050Y44288D01*
X371006Y44202D01*
X370965Y44115D01*
X370928Y44026D01*
X370895Y43936D01*
X370866Y43844D01*
X370840Y43752D01*
X370819Y43658D01*
X370801Y43563D01*
X370787Y43468D01*
X370777Y43372D01*
X370771Y43276D01*
X370769Y43180D01*
X370769Y36195D01*
X365819Y45508D02*
X361163Y45508D01*
X364267Y50165D02*
X364267Y38523D01*
X364265Y38429D01*
X364259Y38336D01*
X364250Y38242D01*
X364237Y38150D01*
X364220Y38057D01*
X364199Y37966D01*
X364175Y37875D01*
X364147Y37786D01*
X364116Y37697D01*
X364081Y37611D01*
X364042Y37525D01*
X364000Y37441D01*
X363955Y37359D01*
X363907Y37279D01*
X363855Y37201D01*
X363800Y37124D01*
X363742Y37051D01*
X363682Y36979D01*
X363618Y36910D01*
X363552Y36844D01*
X363483Y36780D01*
X363411Y36720D01*
X363338Y36662D01*
X363261Y36607D01*
X363183Y36555D01*
X363103Y36507D01*
X363021Y36462D01*
X362937Y36420D01*
X362851Y36381D01*
X362765Y36346D01*
X362676Y36315D01*
X362587Y36287D01*
X362496Y36263D01*
X362405Y36242D01*
X362312Y36225D01*
X362220Y36212D01*
X362126Y36203D01*
X362033Y36197D01*
X361939Y36195D01*
X361163Y36195D01*
X356079Y36195D02*
X356079Y45508D01*
X356467Y49389D02*
X356467Y50165D01*
X355690Y50165D01*
X355690Y49389D01*
X356467Y49389D01*
X350057Y45508D02*
X350057Y36195D01*
X350057Y45508D02*
X346177Y45508D01*
X346081Y45506D01*
X345985Y45500D01*
X345889Y45490D01*
X345794Y45476D01*
X345699Y45458D01*
X345606Y45437D01*
X345513Y45411D01*
X345421Y45382D01*
X345331Y45349D01*
X345242Y45312D01*
X345155Y45271D01*
X345069Y45227D01*
X344985Y45180D01*
X344904Y45129D01*
X344824Y45075D01*
X344747Y45017D01*
X344672Y44956D01*
X344600Y44893D01*
X344531Y44826D01*
X344464Y44757D01*
X344401Y44685D01*
X344340Y44610D01*
X344282Y44533D01*
X344228Y44453D01*
X344177Y44372D01*
X344130Y44288D01*
X344086Y44202D01*
X344045Y44115D01*
X344008Y44026D01*
X343975Y43936D01*
X343946Y43844D01*
X343920Y43752D01*
X343899Y43658D01*
X343881Y43563D01*
X343867Y43468D01*
X343857Y43372D01*
X343851Y43276D01*
X343849Y43180D01*
X343848Y43180D02*
X343848Y36195D01*
X335481Y36195D02*
X331600Y36195D01*
X335481Y36195D02*
X335575Y36197D01*
X335668Y36203D01*
X335762Y36212D01*
X335854Y36225D01*
X335947Y36242D01*
X336038Y36263D01*
X336129Y36287D01*
X336218Y36315D01*
X336307Y36346D01*
X336393Y36381D01*
X336479Y36420D01*
X336563Y36462D01*
X336645Y36507D01*
X336725Y36555D01*
X336803Y36607D01*
X336880Y36662D01*
X336953Y36720D01*
X337025Y36780D01*
X337094Y36844D01*
X337160Y36910D01*
X337224Y36979D01*
X337284Y37051D01*
X337342Y37124D01*
X337397Y37201D01*
X337449Y37279D01*
X337497Y37359D01*
X337542Y37441D01*
X337584Y37525D01*
X337623Y37611D01*
X337658Y37697D01*
X337689Y37786D01*
X337717Y37875D01*
X337741Y37966D01*
X337762Y38057D01*
X337779Y38150D01*
X337792Y38242D01*
X337801Y38336D01*
X337807Y38429D01*
X337809Y38523D01*
X337809Y43180D01*
X337807Y43274D01*
X337801Y43367D01*
X337792Y43461D01*
X337779Y43553D01*
X337762Y43646D01*
X337741Y43737D01*
X337717Y43828D01*
X337689Y43917D01*
X337658Y44006D01*
X337623Y44092D01*
X337584Y44178D01*
X337542Y44262D01*
X337497Y44344D01*
X337449Y44424D01*
X337397Y44502D01*
X337342Y44579D01*
X337284Y44652D01*
X337224Y44724D01*
X337160Y44793D01*
X337094Y44859D01*
X337025Y44923D01*
X336953Y44983D01*
X336880Y45041D01*
X336803Y45096D01*
X336725Y45148D01*
X336645Y45196D01*
X336563Y45241D01*
X336479Y45283D01*
X336393Y45322D01*
X336307Y45357D01*
X336218Y45388D01*
X336129Y45416D01*
X336038Y45440D01*
X335947Y45461D01*
X335854Y45478D01*
X335762Y45491D01*
X335668Y45500D01*
X335575Y45506D01*
X335481Y45508D01*
X331600Y45508D01*
X331600Y33867D01*
X331602Y33773D01*
X331608Y33680D01*
X331617Y33586D01*
X331630Y33494D01*
X331647Y33401D01*
X331668Y33310D01*
X331692Y33219D01*
X331720Y33130D01*
X331751Y33041D01*
X331786Y32955D01*
X331825Y32869D01*
X331867Y32785D01*
X331912Y32703D01*
X331960Y32623D01*
X332012Y32545D01*
X332067Y32468D01*
X332125Y32395D01*
X332185Y32323D01*
X332249Y32254D01*
X332315Y32188D01*
X332384Y32124D01*
X332456Y32064D01*
X332529Y32006D01*
X332606Y31951D01*
X332684Y31899D01*
X332764Y31851D01*
X332846Y31806D01*
X332930Y31764D01*
X333016Y31725D01*
X333102Y31690D01*
X333191Y31659D01*
X333280Y31631D01*
X333371Y31607D01*
X333462Y31586D01*
X333555Y31569D01*
X333647Y31556D01*
X333741Y31547D01*
X333834Y31541D01*
X333928Y31539D01*
X333928Y31538D02*
X337033Y31538D01*
X318207Y47837D02*
X315879Y47837D01*
X318207Y47836D02*
X318301Y47834D01*
X318394Y47828D01*
X318488Y47819D01*
X318580Y47806D01*
X318673Y47789D01*
X318764Y47768D01*
X318855Y47744D01*
X318944Y47716D01*
X319033Y47685D01*
X319119Y47650D01*
X319205Y47611D01*
X319289Y47569D01*
X319371Y47524D01*
X319451Y47476D01*
X319529Y47424D01*
X319606Y47369D01*
X319679Y47311D01*
X319751Y47251D01*
X319820Y47187D01*
X319886Y47121D01*
X319950Y47052D01*
X320010Y46980D01*
X320068Y46907D01*
X320123Y46830D01*
X320175Y46752D01*
X320223Y46672D01*
X320268Y46590D01*
X320310Y46506D01*
X320349Y46420D01*
X320384Y46334D01*
X320415Y46245D01*
X320443Y46156D01*
X320467Y46065D01*
X320488Y45974D01*
X320505Y45881D01*
X320518Y45789D01*
X320527Y45695D01*
X320533Y45602D01*
X320535Y45508D01*
X320535Y40852D01*
X320533Y40757D01*
X320527Y40662D01*
X320518Y40568D01*
X320504Y40474D01*
X320487Y40380D01*
X320466Y40288D01*
X320441Y40196D01*
X320412Y40106D01*
X320380Y40016D01*
X320344Y39928D01*
X320304Y39842D01*
X320262Y39757D01*
X320215Y39674D01*
X320165Y39593D01*
X320112Y39515D01*
X320056Y39438D01*
X319997Y39364D01*
X319935Y39292D01*
X319870Y39223D01*
X319802Y39156D01*
X319732Y39093D01*
X319658Y39032D01*
X319583Y38974D01*
X319505Y38920D01*
X319425Y38868D01*
X319343Y38820D01*
X319260Y38776D01*
X319174Y38734D01*
X319087Y38697D01*
X318998Y38663D01*
X318908Y38632D01*
X318817Y38605D01*
X318725Y38582D01*
X318632Y38563D01*
X318538Y38548D01*
X318444Y38536D01*
X318349Y38528D01*
X318254Y38524D01*
X318160Y38524D01*
X318065Y38528D01*
X317970Y38536D01*
X317876Y38548D01*
X317782Y38563D01*
X317689Y38582D01*
X317597Y38605D01*
X317506Y38632D01*
X317416Y38663D01*
X317327Y38697D01*
X317240Y38734D01*
X317154Y38776D01*
X317071Y38820D01*
X316989Y38868D01*
X316909Y38920D01*
X316831Y38974D01*
X316756Y39032D01*
X316682Y39093D01*
X316612Y39156D01*
X316544Y39223D01*
X316479Y39292D01*
X316417Y39364D01*
X316358Y39438D01*
X316302Y39515D01*
X316249Y39593D01*
X316199Y39674D01*
X316152Y39757D01*
X316110Y39842D01*
X316070Y39928D01*
X316034Y40016D01*
X316002Y40106D01*
X315973Y40196D01*
X315948Y40288D01*
X315927Y40380D01*
X315910Y40474D01*
X315896Y40568D01*
X315887Y40662D01*
X315881Y40757D01*
X315879Y40852D01*
X315879Y40464D02*
X315879Y47837D01*
X315878Y40464D02*
X315876Y40377D01*
X315870Y40290D01*
X315860Y40204D01*
X315847Y40118D01*
X315829Y40032D01*
X315808Y39948D01*
X315783Y39865D01*
X315754Y39782D01*
X315722Y39702D01*
X315686Y39622D01*
X315646Y39545D01*
X315603Y39469D01*
X315557Y39395D01*
X315507Y39324D01*
X315455Y39254D01*
X315399Y39188D01*
X315340Y39123D01*
X315279Y39062D01*
X315214Y39003D01*
X315148Y38947D01*
X315078Y38895D01*
X315007Y38845D01*
X314933Y38799D01*
X314857Y38756D01*
X314780Y38716D01*
X314700Y38680D01*
X314620Y38648D01*
X314537Y38619D01*
X314454Y38594D01*
X314370Y38573D01*
X314284Y38555D01*
X314198Y38542D01*
X314112Y38532D01*
X314025Y38526D01*
X313938Y38524D01*
X313851Y38526D01*
X313764Y38532D01*
X313678Y38542D01*
X313592Y38555D01*
X313506Y38573D01*
X313422Y38594D01*
X313339Y38619D01*
X313256Y38648D01*
X313176Y38680D01*
X313096Y38716D01*
X313019Y38756D01*
X312943Y38799D01*
X312869Y38845D01*
X312798Y38895D01*
X312728Y38947D01*
X312662Y39003D01*
X312597Y39062D01*
X312536Y39123D01*
X312477Y39188D01*
X312421Y39254D01*
X312369Y39324D01*
X312319Y39395D01*
X312273Y39469D01*
X312230Y39545D01*
X312190Y39622D01*
X312154Y39702D01*
X312122Y39782D01*
X312093Y39865D01*
X312068Y39948D01*
X312047Y40032D01*
X312029Y40118D01*
X312016Y40204D01*
X312006Y40290D01*
X312000Y40377D01*
X311998Y40464D01*
X311998Y46284D01*
X312000Y46440D01*
X312006Y46596D01*
X312016Y46752D01*
X312029Y46907D01*
X312047Y47062D01*
X312068Y47217D01*
X312094Y47371D01*
X312123Y47524D01*
X312156Y47676D01*
X312193Y47828D01*
X312234Y47979D01*
X312278Y48128D01*
X312326Y48277D01*
X312378Y48424D01*
X312434Y48570D01*
X312493Y48714D01*
X312556Y48857D01*
X312623Y48998D01*
X312693Y49138D01*
X312766Y49275D01*
X312843Y49411D01*
X312923Y49545D01*
X313007Y49677D01*
X313094Y49806D01*
X313184Y49934D01*
X313277Y50059D01*
X313374Y50181D01*
X313473Y50302D01*
X313575Y50419D01*
X313681Y50534D01*
X313789Y50647D01*
X313900Y50756D01*
X314014Y50863D01*
X314130Y50967D01*
X314249Y51068D01*
X314371Y51166D01*
X314495Y51261D01*
X314621Y51353D01*
X314749Y51441D01*
X314880Y51526D01*
X315013Y51608D01*
X315148Y51687D01*
X315284Y51762D01*
X315423Y51834D01*
X315563Y51902D01*
X315705Y51967D01*
X315849Y52028D01*
X315994Y52085D01*
X316141Y52139D01*
X316288Y52189D01*
X316437Y52235D01*
X316587Y52278D01*
X316739Y52317D01*
X316891Y52352D01*
X317044Y52383D01*
X317197Y52410D01*
X317351Y52434D01*
X317506Y52453D01*
X317662Y52469D01*
X317817Y52481D01*
X317973Y52489D01*
X318129Y52493D01*
X318285Y52493D01*
X318441Y52489D01*
X318597Y52481D01*
X318752Y52469D01*
X318908Y52453D01*
X319063Y52434D01*
X319217Y52410D01*
X319370Y52383D01*
X319523Y52352D01*
X319675Y52317D01*
X319827Y52278D01*
X319977Y52235D01*
X320126Y52189D01*
X320273Y52139D01*
X320420Y52085D01*
X320565Y52028D01*
X320709Y51967D01*
X320851Y51902D01*
X320991Y51834D01*
X321130Y51762D01*
X321266Y51687D01*
X321401Y51608D01*
X321534Y51526D01*
X321665Y51441D01*
X321793Y51353D01*
X321919Y51261D01*
X322043Y51166D01*
X322165Y51068D01*
X322284Y50967D01*
X322400Y50863D01*
X322514Y50756D01*
X322625Y50647D01*
X322733Y50534D01*
X322839Y50419D01*
X322941Y50302D01*
X323040Y50181D01*
X323137Y50059D01*
X323230Y49934D01*
X323320Y49806D01*
X323407Y49677D01*
X323491Y49545D01*
X323571Y49411D01*
X323648Y49275D01*
X323721Y49138D01*
X323791Y48998D01*
X323858Y48857D01*
X323921Y48714D01*
X323980Y48570D01*
X324036Y48424D01*
X324088Y48277D01*
X324136Y48128D01*
X324180Y47979D01*
X324221Y47828D01*
X324258Y47676D01*
X324291Y47524D01*
X324320Y47371D01*
X324346Y47217D01*
X324367Y47062D01*
X324385Y46907D01*
X324398Y46752D01*
X324408Y46596D01*
X324414Y46440D01*
X324416Y46284D01*
X324416Y39688D01*
X324414Y39537D01*
X324408Y39386D01*
X324398Y39235D01*
X324385Y39085D01*
X324367Y38935D01*
X324346Y38785D01*
X324320Y38636D01*
X324291Y38488D01*
X324258Y38340D01*
X324221Y38194D01*
X324181Y38048D01*
X324137Y37904D01*
X324089Y37761D01*
X324037Y37619D01*
X323981Y37478D01*
X323922Y37339D01*
X323860Y37202D01*
X323794Y37066D01*
X323724Y36932D01*
X323651Y36799D01*
X323574Y36669D01*
X323495Y36541D01*
X323411Y36415D01*
X323325Y36291D01*
X323235Y36169D01*
X323143Y36050D01*
X323047Y35933D01*
X322948Y35818D01*
X322847Y35707D01*
X322742Y35598D01*
X322635Y35491D01*
X322525Y35388D01*
X322412Y35287D01*
X322297Y35189D01*
X322179Y35095D01*
X322059Y35003D01*
X321937Y34914D01*
X321812Y34829D01*
X321685Y34747D01*
X321556Y34668D01*
X321425Y34593D01*
X321292Y34521D01*
X321158Y34453D01*
X321021Y34388D01*
X320883Y34326D01*
X320744Y34269D01*
X320602Y34214D01*
X320460Y34164D01*
X320316Y34117D01*
X320172Y34074D01*
X320026Y34035D01*
X319879Y33999D01*
X319731Y33967D01*
X319583Y33940D01*
X319433Y33916D01*
X319284Y33895D01*
X319134Y33879D01*
X318983Y33867D01*
X302693Y36195D02*
X305798Y45508D01*
X299589Y45508D02*
X302693Y36195D01*
X291746Y41628D02*
X288253Y41628D01*
X291746Y41627D02*
X291849Y41625D01*
X291951Y41619D01*
X292054Y41610D01*
X292156Y41596D01*
X292257Y41579D01*
X292358Y41557D01*
X292457Y41532D01*
X292556Y41503D01*
X292653Y41471D01*
X292750Y41435D01*
X292844Y41395D01*
X292938Y41352D01*
X293029Y41305D01*
X293119Y41255D01*
X293207Y41201D01*
X293292Y41144D01*
X293376Y41084D01*
X293457Y41021D01*
X293535Y40954D01*
X293611Y40885D01*
X293685Y40813D01*
X293755Y40739D01*
X293823Y40661D01*
X293888Y40581D01*
X293949Y40499D01*
X294008Y40415D01*
X294063Y40328D01*
X294115Y40239D01*
X294164Y40149D01*
X294209Y40056D01*
X294250Y39962D01*
X294288Y39867D01*
X294323Y39770D01*
X294353Y39672D01*
X294380Y39572D01*
X294403Y39472D01*
X294423Y39371D01*
X294438Y39270D01*
X294450Y39168D01*
X294458Y39065D01*
X294462Y38962D01*
X294462Y38860D01*
X294458Y38757D01*
X294450Y38654D01*
X294438Y38552D01*
X294423Y38451D01*
X294403Y38350D01*
X294380Y38250D01*
X294353Y38150D01*
X294323Y38052D01*
X294288Y37955D01*
X294250Y37860D01*
X294209Y37766D01*
X294164Y37673D01*
X294115Y37583D01*
X294063Y37494D01*
X294008Y37407D01*
X293949Y37323D01*
X293888Y37241D01*
X293823Y37161D01*
X293755Y37083D01*
X293685Y37009D01*
X293611Y36937D01*
X293535Y36868D01*
X293457Y36801D01*
X293376Y36738D01*
X293292Y36678D01*
X293207Y36621D01*
X293119Y36567D01*
X293029Y36517D01*
X292938Y36470D01*
X292844Y36427D01*
X292750Y36387D01*
X292653Y36351D01*
X292556Y36319D01*
X292457Y36290D01*
X292358Y36265D01*
X292257Y36243D01*
X292156Y36226D01*
X292054Y36212D01*
X291951Y36203D01*
X291849Y36197D01*
X291746Y36195D01*
X288253Y36195D01*
X288253Y43180D01*
X288255Y43274D01*
X288261Y43367D01*
X288270Y43461D01*
X288283Y43553D01*
X288300Y43646D01*
X288321Y43737D01*
X288345Y43828D01*
X288373Y43917D01*
X288404Y44006D01*
X288439Y44093D01*
X288478Y44178D01*
X288520Y44262D01*
X288565Y44344D01*
X288613Y44424D01*
X288665Y44502D01*
X288720Y44579D01*
X288778Y44652D01*
X288838Y44724D01*
X288902Y44793D01*
X288968Y44859D01*
X289037Y44923D01*
X289109Y44983D01*
X289182Y45041D01*
X289259Y45096D01*
X289337Y45148D01*
X289417Y45196D01*
X289499Y45241D01*
X289583Y45283D01*
X289669Y45322D01*
X289756Y45357D01*
X289844Y45388D01*
X289933Y45416D01*
X290024Y45440D01*
X290115Y45461D01*
X290208Y45478D01*
X290300Y45491D01*
X290394Y45500D01*
X290487Y45506D01*
X290581Y45508D01*
X293686Y45508D01*
X281615Y45508D02*
X281615Y36195D01*
X281615Y45508D02*
X277734Y45508D01*
X277638Y45506D01*
X277542Y45500D01*
X277446Y45490D01*
X277351Y45476D01*
X277256Y45458D01*
X277163Y45437D01*
X277070Y45411D01*
X276978Y45382D01*
X276888Y45349D01*
X276799Y45312D01*
X276712Y45271D01*
X276626Y45227D01*
X276542Y45180D01*
X276461Y45129D01*
X276381Y45075D01*
X276304Y45017D01*
X276229Y44956D01*
X276157Y44893D01*
X276088Y44826D01*
X276021Y44757D01*
X275958Y44685D01*
X275897Y44610D01*
X275839Y44533D01*
X275785Y44453D01*
X275734Y44372D01*
X275687Y44288D01*
X275643Y44202D01*
X275602Y44115D01*
X275565Y44026D01*
X275532Y43936D01*
X275503Y43844D01*
X275477Y43752D01*
X275456Y43658D01*
X275438Y43563D01*
X275424Y43468D01*
X275414Y43372D01*
X275408Y43276D01*
X275406Y43180D01*
X275406Y36195D01*
X263157Y36195D02*
X263157Y50165D01*
X263157Y36195D02*
X267038Y36195D01*
X267132Y36197D01*
X267225Y36203D01*
X267319Y36212D01*
X267411Y36225D01*
X267504Y36242D01*
X267595Y36263D01*
X267686Y36287D01*
X267775Y36315D01*
X267864Y36346D01*
X267950Y36381D01*
X268036Y36420D01*
X268120Y36462D01*
X268202Y36507D01*
X268282Y36555D01*
X268360Y36607D01*
X268437Y36662D01*
X268510Y36720D01*
X268582Y36780D01*
X268651Y36844D01*
X268717Y36910D01*
X268781Y36979D01*
X268841Y37051D01*
X268899Y37124D01*
X268954Y37201D01*
X269006Y37279D01*
X269054Y37359D01*
X269099Y37441D01*
X269141Y37525D01*
X269180Y37611D01*
X269215Y37697D01*
X269246Y37786D01*
X269274Y37875D01*
X269298Y37966D01*
X269319Y38057D01*
X269336Y38150D01*
X269349Y38242D01*
X269358Y38336D01*
X269364Y38429D01*
X269366Y38523D01*
X269366Y43180D01*
X269364Y43274D01*
X269358Y43367D01*
X269349Y43461D01*
X269336Y43553D01*
X269319Y43646D01*
X269298Y43737D01*
X269274Y43828D01*
X269246Y43917D01*
X269215Y44006D01*
X269180Y44092D01*
X269141Y44178D01*
X269099Y44262D01*
X269054Y44344D01*
X269006Y44424D01*
X268954Y44502D01*
X268899Y44579D01*
X268841Y44652D01*
X268781Y44724D01*
X268717Y44793D01*
X268651Y44859D01*
X268582Y44923D01*
X268510Y44983D01*
X268437Y45041D01*
X268360Y45096D01*
X268282Y45148D01*
X268202Y45196D01*
X268120Y45241D01*
X268036Y45283D01*
X267950Y45322D01*
X267864Y45357D01*
X267775Y45388D01*
X267686Y45416D01*
X267595Y45440D01*
X267504Y45461D01*
X267411Y45478D01*
X267319Y45491D01*
X267225Y45500D01*
X267132Y45506D01*
X267038Y45508D01*
X263157Y45508D01*
X254647Y36195D02*
X250766Y36195D01*
X254647Y36195D02*
X254741Y36197D01*
X254834Y36203D01*
X254928Y36212D01*
X255020Y36225D01*
X255113Y36242D01*
X255204Y36263D01*
X255295Y36287D01*
X255384Y36315D01*
X255473Y36346D01*
X255559Y36381D01*
X255645Y36420D01*
X255729Y36462D01*
X255811Y36507D01*
X255891Y36555D01*
X255969Y36607D01*
X256046Y36662D01*
X256119Y36720D01*
X256191Y36780D01*
X256260Y36844D01*
X256326Y36910D01*
X256390Y36979D01*
X256450Y37051D01*
X256508Y37124D01*
X256563Y37201D01*
X256615Y37279D01*
X256663Y37359D01*
X256708Y37441D01*
X256750Y37525D01*
X256789Y37611D01*
X256824Y37697D01*
X256855Y37786D01*
X256883Y37875D01*
X256907Y37966D01*
X256928Y38057D01*
X256945Y38150D01*
X256958Y38242D01*
X256967Y38336D01*
X256973Y38429D01*
X256975Y38523D01*
X256975Y42404D01*
X256973Y42515D01*
X256967Y42625D01*
X256957Y42736D01*
X256943Y42846D01*
X256926Y42955D01*
X256904Y43064D01*
X256879Y43172D01*
X256849Y43278D01*
X256816Y43384D01*
X256779Y43489D01*
X256739Y43592D01*
X256694Y43693D01*
X256647Y43793D01*
X256595Y43892D01*
X256540Y43988D01*
X256482Y44082D01*
X256421Y44174D01*
X256356Y44264D01*
X256288Y44352D01*
X256217Y44437D01*
X256143Y44519D01*
X256066Y44599D01*
X255986Y44676D01*
X255904Y44750D01*
X255819Y44821D01*
X255731Y44889D01*
X255641Y44954D01*
X255549Y45015D01*
X255455Y45073D01*
X255359Y45128D01*
X255260Y45180D01*
X255160Y45227D01*
X255059Y45272D01*
X254956Y45312D01*
X254851Y45349D01*
X254745Y45382D01*
X254639Y45412D01*
X254531Y45437D01*
X254422Y45459D01*
X254313Y45476D01*
X254203Y45490D01*
X254092Y45500D01*
X253982Y45506D01*
X253871Y45508D01*
X253760Y45506D01*
X253650Y45500D01*
X253539Y45490D01*
X253429Y45476D01*
X253320Y45459D01*
X253211Y45437D01*
X253103Y45412D01*
X252997Y45382D01*
X252891Y45349D01*
X252786Y45312D01*
X252683Y45272D01*
X252582Y45227D01*
X252482Y45180D01*
X252383Y45128D01*
X252287Y45073D01*
X252193Y45015D01*
X252101Y44954D01*
X252011Y44889D01*
X251923Y44821D01*
X251838Y44750D01*
X251756Y44676D01*
X251676Y44599D01*
X251599Y44519D01*
X251525Y44437D01*
X251454Y44352D01*
X251386Y44264D01*
X251321Y44174D01*
X251260Y44082D01*
X251202Y43988D01*
X251147Y43892D01*
X251095Y43793D01*
X251048Y43693D01*
X251003Y43592D01*
X250963Y43489D01*
X250926Y43384D01*
X250893Y43278D01*
X250863Y43172D01*
X250838Y43064D01*
X250816Y42955D01*
X250799Y42846D01*
X250785Y42736D01*
X250775Y42625D01*
X250769Y42515D01*
X250767Y42404D01*
X250766Y42404D02*
X250766Y40852D01*
X256975Y40852D01*
X244575Y36195D02*
X244575Y45508D01*
X239918Y45508D01*
X239918Y43956D01*
X235002Y50165D02*
X235002Y36195D01*
X231122Y36195D01*
X231026Y36197D01*
X230930Y36203D01*
X230834Y36213D01*
X230739Y36227D01*
X230644Y36245D01*
X230551Y36266D01*
X230458Y36292D01*
X230366Y36321D01*
X230276Y36354D01*
X230187Y36391D01*
X230100Y36432D01*
X230014Y36476D01*
X229930Y36523D01*
X229849Y36574D01*
X229769Y36628D01*
X229692Y36686D01*
X229617Y36747D01*
X229545Y36810D01*
X229476Y36877D01*
X229409Y36946D01*
X229346Y37018D01*
X229285Y37093D01*
X229227Y37170D01*
X229173Y37250D01*
X229122Y37331D01*
X229075Y37415D01*
X229031Y37501D01*
X228990Y37588D01*
X228953Y37677D01*
X228920Y37767D01*
X228891Y37859D01*
X228865Y37951D01*
X228844Y38045D01*
X228826Y38140D01*
X228812Y38235D01*
X228802Y38331D01*
X228796Y38427D01*
X228794Y38523D01*
X228794Y43180D01*
X228796Y43274D01*
X228802Y43367D01*
X228811Y43461D01*
X228824Y43553D01*
X228841Y43646D01*
X228862Y43737D01*
X228886Y43828D01*
X228914Y43917D01*
X228945Y44006D01*
X228980Y44093D01*
X229019Y44178D01*
X229061Y44262D01*
X229106Y44344D01*
X229154Y44424D01*
X229206Y44502D01*
X229261Y44579D01*
X229319Y44652D01*
X229379Y44724D01*
X229443Y44793D01*
X229509Y44859D01*
X229578Y44923D01*
X229650Y44983D01*
X229723Y45041D01*
X229800Y45096D01*
X229878Y45148D01*
X229958Y45196D01*
X230040Y45241D01*
X230124Y45283D01*
X230210Y45322D01*
X230297Y45357D01*
X230385Y45388D01*
X230474Y45416D01*
X230565Y45440D01*
X230656Y45461D01*
X230749Y45478D01*
X230841Y45491D01*
X230935Y45500D01*
X231028Y45506D01*
X231122Y45508D01*
X235002Y45508D01*
X223300Y45508D02*
X223300Y36195D01*
X223688Y49389D02*
X223688Y50165D01*
X222912Y50165D01*
X222912Y49389D01*
X223688Y49389D01*
X217558Y50165D02*
X217558Y38523D01*
X217556Y38429D01*
X217550Y38336D01*
X217541Y38242D01*
X217528Y38150D01*
X217511Y38057D01*
X217490Y37966D01*
X217466Y37875D01*
X217438Y37786D01*
X217407Y37697D01*
X217372Y37611D01*
X217333Y37525D01*
X217291Y37441D01*
X217246Y37359D01*
X217198Y37279D01*
X217146Y37201D01*
X217091Y37124D01*
X217033Y37051D01*
X216973Y36979D01*
X216909Y36910D01*
X216843Y36844D01*
X216774Y36780D01*
X216702Y36720D01*
X216629Y36662D01*
X216552Y36607D01*
X216474Y36555D01*
X216394Y36507D01*
X216312Y36462D01*
X216228Y36420D01*
X216142Y36381D01*
X216056Y36346D01*
X215967Y36315D01*
X215878Y36287D01*
X215787Y36263D01*
X215696Y36242D01*
X215603Y36225D01*
X215511Y36212D01*
X215417Y36203D01*
X215324Y36197D01*
X215230Y36195D01*
X211595Y45508D02*
X206939Y45508D01*
X210043Y50165D02*
X210043Y38523D01*
X210041Y38429D01*
X210035Y38336D01*
X210026Y38242D01*
X210013Y38150D01*
X209996Y38057D01*
X209975Y37966D01*
X209951Y37875D01*
X209923Y37786D01*
X209892Y37697D01*
X209857Y37611D01*
X209818Y37525D01*
X209776Y37441D01*
X209731Y37359D01*
X209683Y37279D01*
X209631Y37201D01*
X209576Y37124D01*
X209518Y37051D01*
X209458Y36979D01*
X209394Y36910D01*
X209328Y36844D01*
X209259Y36780D01*
X209187Y36720D01*
X209114Y36662D01*
X209037Y36607D01*
X208959Y36555D01*
X208879Y36507D01*
X208797Y36462D01*
X208713Y36420D01*
X208627Y36381D01*
X208541Y36346D01*
X208452Y36315D01*
X208363Y36287D01*
X208272Y36263D01*
X208181Y36242D01*
X208088Y36225D01*
X207996Y36212D01*
X207902Y36203D01*
X207809Y36197D01*
X207715Y36195D01*
X206939Y36195D01*
X202243Y36195D02*
X202243Y36971D01*
X201467Y36971D01*
X201467Y36195D01*
X202243Y36195D01*
X193961Y36195D02*
X190081Y36195D01*
X193961Y36195D02*
X194055Y36197D01*
X194148Y36203D01*
X194242Y36212D01*
X194334Y36225D01*
X194427Y36242D01*
X194518Y36263D01*
X194609Y36287D01*
X194698Y36315D01*
X194787Y36346D01*
X194873Y36381D01*
X194959Y36420D01*
X195043Y36462D01*
X195125Y36507D01*
X195205Y36555D01*
X195283Y36607D01*
X195360Y36662D01*
X195433Y36720D01*
X195505Y36780D01*
X195574Y36844D01*
X195640Y36910D01*
X195704Y36979D01*
X195764Y37051D01*
X195822Y37124D01*
X195877Y37201D01*
X195929Y37279D01*
X195977Y37359D01*
X196022Y37441D01*
X196064Y37525D01*
X196103Y37611D01*
X196138Y37697D01*
X196169Y37786D01*
X196197Y37875D01*
X196221Y37966D01*
X196242Y38057D01*
X196259Y38150D01*
X196272Y38242D01*
X196281Y38336D01*
X196287Y38429D01*
X196289Y38523D01*
X196290Y38523D02*
X196290Y42404D01*
X196289Y42404D02*
X196287Y42515D01*
X196281Y42625D01*
X196271Y42736D01*
X196257Y42846D01*
X196240Y42955D01*
X196218Y43064D01*
X196193Y43172D01*
X196163Y43278D01*
X196130Y43384D01*
X196093Y43489D01*
X196053Y43592D01*
X196008Y43693D01*
X195961Y43793D01*
X195909Y43892D01*
X195854Y43988D01*
X195796Y44082D01*
X195735Y44174D01*
X195670Y44264D01*
X195602Y44352D01*
X195531Y44437D01*
X195457Y44519D01*
X195380Y44599D01*
X195300Y44676D01*
X195218Y44750D01*
X195133Y44821D01*
X195045Y44889D01*
X194955Y44954D01*
X194863Y45015D01*
X194769Y45073D01*
X194673Y45128D01*
X194574Y45180D01*
X194474Y45227D01*
X194373Y45272D01*
X194270Y45312D01*
X194165Y45349D01*
X194059Y45382D01*
X193953Y45412D01*
X193845Y45437D01*
X193736Y45459D01*
X193627Y45476D01*
X193517Y45490D01*
X193406Y45500D01*
X193296Y45506D01*
X193185Y45508D01*
X193074Y45506D01*
X192964Y45500D01*
X192853Y45490D01*
X192743Y45476D01*
X192634Y45459D01*
X192525Y45437D01*
X192417Y45412D01*
X192311Y45382D01*
X192205Y45349D01*
X192100Y45312D01*
X191997Y45272D01*
X191896Y45227D01*
X191796Y45180D01*
X191697Y45128D01*
X191601Y45073D01*
X191507Y45015D01*
X191415Y44954D01*
X191325Y44889D01*
X191237Y44821D01*
X191152Y44750D01*
X191070Y44676D01*
X190990Y44599D01*
X190913Y44519D01*
X190839Y44437D01*
X190768Y44352D01*
X190700Y44264D01*
X190635Y44174D01*
X190574Y44082D01*
X190516Y43988D01*
X190461Y43892D01*
X190409Y43793D01*
X190362Y43693D01*
X190317Y43592D01*
X190277Y43489D01*
X190240Y43384D01*
X190207Y43278D01*
X190177Y43172D01*
X190152Y43064D01*
X190130Y42955D01*
X190113Y42846D01*
X190099Y42736D01*
X190089Y42625D01*
X190083Y42515D01*
X190081Y42404D01*
X190081Y40852D01*
X196290Y40852D01*
X178289Y36195D02*
X178289Y50165D01*
X178289Y36195D02*
X182169Y36195D01*
X182263Y36197D01*
X182356Y36203D01*
X182450Y36212D01*
X182542Y36225D01*
X182635Y36242D01*
X182726Y36263D01*
X182817Y36287D01*
X182906Y36315D01*
X182995Y36346D01*
X183081Y36381D01*
X183167Y36420D01*
X183251Y36462D01*
X183333Y36507D01*
X183413Y36555D01*
X183491Y36607D01*
X183568Y36662D01*
X183641Y36720D01*
X183713Y36780D01*
X183782Y36844D01*
X183848Y36910D01*
X183912Y36979D01*
X183972Y37051D01*
X184030Y37124D01*
X184085Y37201D01*
X184137Y37279D01*
X184185Y37359D01*
X184230Y37441D01*
X184272Y37525D01*
X184311Y37611D01*
X184346Y37697D01*
X184377Y37786D01*
X184405Y37875D01*
X184429Y37966D01*
X184450Y38057D01*
X184467Y38150D01*
X184480Y38242D01*
X184489Y38336D01*
X184495Y38429D01*
X184497Y38523D01*
X184498Y38523D02*
X184498Y43180D01*
X184497Y43180D02*
X184495Y43274D01*
X184489Y43367D01*
X184480Y43461D01*
X184467Y43553D01*
X184450Y43646D01*
X184429Y43737D01*
X184405Y43828D01*
X184377Y43917D01*
X184346Y44006D01*
X184311Y44092D01*
X184272Y44178D01*
X184230Y44262D01*
X184185Y44344D01*
X184137Y44424D01*
X184085Y44502D01*
X184030Y44579D01*
X183972Y44652D01*
X183912Y44724D01*
X183848Y44793D01*
X183782Y44859D01*
X183713Y44923D01*
X183641Y44983D01*
X183568Y45041D01*
X183491Y45096D01*
X183413Y45148D01*
X183333Y45196D01*
X183251Y45241D01*
X183167Y45283D01*
X183081Y45322D01*
X182995Y45357D01*
X182906Y45388D01*
X182817Y45416D01*
X182726Y45440D01*
X182635Y45461D01*
X182542Y45478D01*
X182450Y45491D01*
X182356Y45500D01*
X182263Y45506D01*
X182169Y45508D01*
X178289Y45508D01*
X171650Y45508D02*
X171650Y38523D01*
X171648Y38429D01*
X171642Y38336D01*
X171633Y38242D01*
X171620Y38150D01*
X171603Y38057D01*
X171582Y37966D01*
X171558Y37875D01*
X171530Y37786D01*
X171499Y37697D01*
X171464Y37611D01*
X171425Y37525D01*
X171383Y37441D01*
X171338Y37359D01*
X171290Y37279D01*
X171238Y37201D01*
X171183Y37124D01*
X171125Y37051D01*
X171065Y36979D01*
X171001Y36910D01*
X170935Y36844D01*
X170866Y36780D01*
X170794Y36720D01*
X170721Y36662D01*
X170644Y36607D01*
X170566Y36555D01*
X170486Y36507D01*
X170404Y36462D01*
X170320Y36420D01*
X170234Y36381D01*
X170148Y36346D01*
X170059Y36315D01*
X169970Y36287D01*
X169879Y36263D01*
X169788Y36242D01*
X169695Y36225D01*
X169603Y36212D01*
X169509Y36203D01*
X169416Y36197D01*
X169322Y36195D01*
X165441Y36195D01*
X165441Y45508D01*
X560781Y78105D02*
X560781Y92075D01*
X556901Y92075D01*
X556778Y92073D01*
X556655Y92067D01*
X556532Y92057D01*
X556410Y92044D01*
X556288Y92026D01*
X556167Y92005D01*
X556046Y91980D01*
X555926Y91951D01*
X555808Y91918D01*
X555690Y91881D01*
X555574Y91841D01*
X555459Y91797D01*
X555345Y91749D01*
X555233Y91698D01*
X555123Y91644D01*
X555014Y91585D01*
X554907Y91524D01*
X554803Y91459D01*
X554700Y91391D01*
X554600Y91319D01*
X554502Y91245D01*
X554406Y91167D01*
X554313Y91086D01*
X554223Y91003D01*
X554135Y90916D01*
X554050Y90827D01*
X553968Y90736D01*
X553889Y90641D01*
X553813Y90544D01*
X553740Y90445D01*
X553670Y90344D01*
X553603Y90240D01*
X553540Y90135D01*
X553480Y90027D01*
X553424Y89917D01*
X553371Y89806D01*
X553321Y89693D01*
X553276Y89579D01*
X553233Y89463D01*
X553195Y89346D01*
X553160Y89228D01*
X553129Y89109D01*
X553102Y88989D01*
X553079Y88868D01*
X553060Y88746D01*
X553044Y88624D01*
X553032Y88502D01*
X553024Y88379D01*
X553020Y88256D01*
X553020Y88132D01*
X553024Y88009D01*
X553032Y87886D01*
X553044Y87764D01*
X553060Y87642D01*
X553079Y87520D01*
X553102Y87399D01*
X553129Y87279D01*
X553160Y87160D01*
X553195Y87042D01*
X553233Y86925D01*
X553276Y86809D01*
X553321Y86695D01*
X553371Y86582D01*
X553424Y86471D01*
X553480Y86361D01*
X553540Y86254D01*
X553603Y86148D01*
X553670Y86044D01*
X553740Y85943D01*
X553813Y85844D01*
X553889Y85747D01*
X553968Y85652D01*
X554050Y85561D01*
X554135Y85472D01*
X554223Y85385D01*
X554313Y85302D01*
X554406Y85221D01*
X554502Y85143D01*
X554600Y85069D01*
X554700Y84997D01*
X554803Y84929D01*
X554907Y84864D01*
X555014Y84803D01*
X555123Y84744D01*
X555233Y84690D01*
X555345Y84639D01*
X555459Y84591D01*
X555574Y84547D01*
X555690Y84507D01*
X555808Y84470D01*
X555926Y84437D01*
X556046Y84408D01*
X556167Y84383D01*
X556288Y84362D01*
X556410Y84344D01*
X556532Y84331D01*
X556655Y84321D01*
X556778Y84315D01*
X556901Y84313D01*
X556901Y84314D02*
X560781Y84314D01*
X547354Y87418D02*
X547354Y78105D01*
X547354Y87418D02*
X542697Y87418D01*
X542697Y85866D01*
X538308Y84314D02*
X538308Y81209D01*
X538308Y84314D02*
X538306Y84425D01*
X538300Y84535D01*
X538290Y84646D01*
X538276Y84756D01*
X538259Y84865D01*
X538237Y84974D01*
X538212Y85082D01*
X538182Y85188D01*
X538149Y85294D01*
X538112Y85399D01*
X538072Y85502D01*
X538027Y85603D01*
X537980Y85703D01*
X537928Y85802D01*
X537873Y85898D01*
X537815Y85992D01*
X537754Y86084D01*
X537689Y86174D01*
X537621Y86262D01*
X537550Y86347D01*
X537476Y86429D01*
X537399Y86509D01*
X537319Y86586D01*
X537237Y86660D01*
X537152Y86731D01*
X537064Y86799D01*
X536974Y86864D01*
X536882Y86925D01*
X536788Y86983D01*
X536692Y87038D01*
X536593Y87090D01*
X536493Y87137D01*
X536392Y87182D01*
X536289Y87222D01*
X536184Y87259D01*
X536078Y87292D01*
X535972Y87322D01*
X535864Y87347D01*
X535755Y87369D01*
X535646Y87386D01*
X535536Y87400D01*
X535425Y87410D01*
X535315Y87416D01*
X535204Y87418D01*
X535093Y87416D01*
X534983Y87410D01*
X534872Y87400D01*
X534762Y87386D01*
X534653Y87369D01*
X534544Y87347D01*
X534436Y87322D01*
X534330Y87292D01*
X534224Y87259D01*
X534119Y87222D01*
X534016Y87182D01*
X533915Y87137D01*
X533815Y87090D01*
X533716Y87038D01*
X533620Y86983D01*
X533526Y86925D01*
X533434Y86864D01*
X533344Y86799D01*
X533256Y86731D01*
X533171Y86660D01*
X533089Y86586D01*
X533009Y86509D01*
X532932Y86429D01*
X532858Y86347D01*
X532787Y86262D01*
X532719Y86174D01*
X532654Y86084D01*
X532593Y85992D01*
X532535Y85898D01*
X532480Y85802D01*
X532428Y85703D01*
X532381Y85603D01*
X532336Y85502D01*
X532296Y85399D01*
X532259Y85294D01*
X532226Y85188D01*
X532196Y85082D01*
X532171Y84974D01*
X532149Y84865D01*
X532132Y84756D01*
X532118Y84646D01*
X532108Y84535D01*
X532102Y84425D01*
X532100Y84314D01*
X532100Y81209D01*
X532102Y81098D01*
X532108Y80988D01*
X532118Y80877D01*
X532132Y80767D01*
X532149Y80658D01*
X532171Y80549D01*
X532196Y80441D01*
X532226Y80335D01*
X532259Y80229D01*
X532296Y80124D01*
X532336Y80021D01*
X532381Y79920D01*
X532428Y79820D01*
X532480Y79721D01*
X532535Y79625D01*
X532593Y79531D01*
X532654Y79439D01*
X532719Y79349D01*
X532787Y79261D01*
X532858Y79176D01*
X532932Y79094D01*
X533009Y79014D01*
X533089Y78937D01*
X533171Y78863D01*
X533256Y78792D01*
X533344Y78724D01*
X533434Y78659D01*
X533526Y78598D01*
X533620Y78540D01*
X533716Y78485D01*
X533815Y78433D01*
X533915Y78386D01*
X534016Y78341D01*
X534119Y78301D01*
X534224Y78264D01*
X534330Y78231D01*
X534436Y78201D01*
X534544Y78176D01*
X534653Y78154D01*
X534762Y78137D01*
X534872Y78123D01*
X534983Y78113D01*
X535093Y78107D01*
X535204Y78105D01*
X535315Y78107D01*
X535425Y78113D01*
X535536Y78123D01*
X535646Y78137D01*
X535755Y78154D01*
X535864Y78176D01*
X535972Y78201D01*
X536078Y78231D01*
X536184Y78264D01*
X536289Y78301D01*
X536392Y78341D01*
X536493Y78386D01*
X536593Y78433D01*
X536692Y78485D01*
X536788Y78540D01*
X536882Y78598D01*
X536974Y78659D01*
X537064Y78724D01*
X537152Y78792D01*
X537237Y78863D01*
X537319Y78937D01*
X537399Y79014D01*
X537476Y79094D01*
X537550Y79176D01*
X537621Y79261D01*
X537689Y79349D01*
X537754Y79439D01*
X537815Y79531D01*
X537873Y79625D01*
X537928Y79721D01*
X537980Y79820D01*
X538027Y79920D01*
X538072Y80021D01*
X538112Y80124D01*
X538149Y80229D01*
X538182Y80335D01*
X538212Y80441D01*
X538237Y80549D01*
X538259Y80658D01*
X538276Y80767D01*
X538290Y80877D01*
X538300Y80988D01*
X538306Y81098D01*
X538308Y81209D01*
X526773Y75777D02*
X526773Y87418D01*
X526774Y75777D02*
X526776Y75683D01*
X526782Y75590D01*
X526791Y75496D01*
X526804Y75404D01*
X526821Y75311D01*
X526842Y75220D01*
X526866Y75129D01*
X526894Y75040D01*
X526925Y74951D01*
X526960Y74865D01*
X526999Y74779D01*
X527041Y74695D01*
X527086Y74613D01*
X527134Y74533D01*
X527186Y74455D01*
X527241Y74378D01*
X527299Y74305D01*
X527359Y74233D01*
X527423Y74164D01*
X527489Y74098D01*
X527558Y74034D01*
X527630Y73974D01*
X527703Y73916D01*
X527780Y73861D01*
X527858Y73809D01*
X527938Y73761D01*
X528020Y73716D01*
X528104Y73674D01*
X528190Y73635D01*
X528276Y73600D01*
X528365Y73569D01*
X528454Y73541D01*
X528545Y73517D01*
X528636Y73496D01*
X528729Y73479D01*
X528821Y73466D01*
X528915Y73457D01*
X529008Y73451D01*
X529102Y73449D01*
X529102Y73448D02*
X529878Y73448D01*
X527162Y91299D02*
X527162Y92075D01*
X526385Y92075D01*
X526385Y91299D01*
X527162Y91299D01*
X518641Y78105D02*
X514761Y78105D01*
X518641Y78105D02*
X518735Y78107D01*
X518828Y78113D01*
X518922Y78122D01*
X519014Y78135D01*
X519107Y78152D01*
X519198Y78173D01*
X519289Y78197D01*
X519378Y78225D01*
X519467Y78256D01*
X519553Y78291D01*
X519639Y78330D01*
X519723Y78372D01*
X519805Y78417D01*
X519885Y78465D01*
X519963Y78517D01*
X520040Y78572D01*
X520113Y78630D01*
X520185Y78690D01*
X520254Y78754D01*
X520320Y78820D01*
X520384Y78889D01*
X520444Y78961D01*
X520502Y79034D01*
X520557Y79111D01*
X520609Y79189D01*
X520657Y79269D01*
X520702Y79351D01*
X520744Y79435D01*
X520783Y79521D01*
X520818Y79607D01*
X520849Y79696D01*
X520877Y79785D01*
X520901Y79876D01*
X520922Y79967D01*
X520939Y80060D01*
X520952Y80152D01*
X520961Y80246D01*
X520967Y80339D01*
X520969Y80433D01*
X520970Y80433D02*
X520970Y84314D01*
X520969Y84314D02*
X520967Y84425D01*
X520961Y84535D01*
X520951Y84646D01*
X520937Y84756D01*
X520920Y84865D01*
X520898Y84974D01*
X520873Y85082D01*
X520843Y85188D01*
X520810Y85294D01*
X520773Y85399D01*
X520733Y85502D01*
X520688Y85603D01*
X520641Y85703D01*
X520589Y85802D01*
X520534Y85898D01*
X520476Y85992D01*
X520415Y86084D01*
X520350Y86174D01*
X520282Y86262D01*
X520211Y86347D01*
X520137Y86429D01*
X520060Y86509D01*
X519980Y86586D01*
X519898Y86660D01*
X519813Y86731D01*
X519725Y86799D01*
X519635Y86864D01*
X519543Y86925D01*
X519449Y86983D01*
X519353Y87038D01*
X519254Y87090D01*
X519154Y87137D01*
X519053Y87182D01*
X518950Y87222D01*
X518845Y87259D01*
X518739Y87292D01*
X518633Y87322D01*
X518525Y87347D01*
X518416Y87369D01*
X518307Y87386D01*
X518197Y87400D01*
X518086Y87410D01*
X517976Y87416D01*
X517865Y87418D01*
X517754Y87416D01*
X517644Y87410D01*
X517533Y87400D01*
X517423Y87386D01*
X517314Y87369D01*
X517205Y87347D01*
X517097Y87322D01*
X516991Y87292D01*
X516885Y87259D01*
X516780Y87222D01*
X516677Y87182D01*
X516576Y87137D01*
X516476Y87090D01*
X516377Y87038D01*
X516281Y86983D01*
X516187Y86925D01*
X516095Y86864D01*
X516005Y86799D01*
X515917Y86731D01*
X515832Y86660D01*
X515750Y86586D01*
X515670Y86509D01*
X515593Y86429D01*
X515519Y86347D01*
X515448Y86262D01*
X515380Y86174D01*
X515315Y86084D01*
X515254Y85992D01*
X515196Y85898D01*
X515141Y85802D01*
X515089Y85703D01*
X515042Y85603D01*
X514997Y85502D01*
X514957Y85399D01*
X514920Y85294D01*
X514887Y85188D01*
X514857Y85082D01*
X514832Y84974D01*
X514810Y84865D01*
X514793Y84756D01*
X514779Y84646D01*
X514769Y84535D01*
X514763Y84425D01*
X514761Y84314D01*
X514761Y82762D01*
X520970Y82762D01*
X506762Y78105D02*
X503657Y78105D01*
X506762Y78105D02*
X506856Y78107D01*
X506949Y78113D01*
X507043Y78122D01*
X507135Y78135D01*
X507228Y78152D01*
X507319Y78173D01*
X507410Y78197D01*
X507499Y78225D01*
X507588Y78256D01*
X507674Y78291D01*
X507760Y78330D01*
X507844Y78372D01*
X507926Y78417D01*
X508006Y78465D01*
X508084Y78517D01*
X508161Y78572D01*
X508234Y78630D01*
X508306Y78690D01*
X508375Y78754D01*
X508441Y78820D01*
X508505Y78889D01*
X508565Y78961D01*
X508623Y79034D01*
X508678Y79111D01*
X508730Y79189D01*
X508778Y79269D01*
X508823Y79351D01*
X508865Y79435D01*
X508904Y79521D01*
X508939Y79607D01*
X508970Y79696D01*
X508998Y79785D01*
X509022Y79876D01*
X509043Y79967D01*
X509060Y80060D01*
X509073Y80152D01*
X509082Y80246D01*
X509088Y80339D01*
X509090Y80433D01*
X509090Y85090D01*
X509088Y85184D01*
X509082Y85277D01*
X509073Y85371D01*
X509060Y85463D01*
X509043Y85556D01*
X509022Y85647D01*
X508998Y85738D01*
X508970Y85827D01*
X508939Y85916D01*
X508904Y86002D01*
X508865Y86088D01*
X508823Y86172D01*
X508778Y86254D01*
X508730Y86334D01*
X508678Y86412D01*
X508623Y86489D01*
X508565Y86562D01*
X508505Y86634D01*
X508441Y86703D01*
X508375Y86769D01*
X508306Y86833D01*
X508234Y86893D01*
X508161Y86951D01*
X508084Y87006D01*
X508006Y87058D01*
X507926Y87106D01*
X507844Y87151D01*
X507760Y87193D01*
X507674Y87232D01*
X507588Y87267D01*
X507499Y87298D01*
X507410Y87326D01*
X507319Y87350D01*
X507228Y87371D01*
X507135Y87388D01*
X507043Y87401D01*
X506949Y87410D01*
X506856Y87416D01*
X506762Y87418D01*
X503657Y87418D01*
X499773Y87418D02*
X495116Y87418D01*
X498220Y92075D02*
X498220Y80433D01*
X498218Y80339D01*
X498212Y80246D01*
X498203Y80152D01*
X498190Y80060D01*
X498173Y79967D01*
X498152Y79876D01*
X498128Y79785D01*
X498100Y79696D01*
X498069Y79607D01*
X498034Y79521D01*
X497995Y79435D01*
X497953Y79351D01*
X497908Y79269D01*
X497860Y79189D01*
X497808Y79111D01*
X497753Y79034D01*
X497695Y78961D01*
X497635Y78889D01*
X497571Y78820D01*
X497505Y78754D01*
X497436Y78690D01*
X497364Y78630D01*
X497291Y78572D01*
X497214Y78517D01*
X497136Y78465D01*
X497056Y78417D01*
X496974Y78372D01*
X496890Y78330D01*
X496804Y78291D01*
X496718Y78256D01*
X496629Y78225D01*
X496540Y78197D01*
X496449Y78173D01*
X496358Y78152D01*
X496265Y78135D01*
X496173Y78122D01*
X496079Y78113D01*
X495986Y78107D01*
X495892Y78105D01*
X495116Y78105D01*
X489964Y79269D02*
X489964Y80045D01*
X489188Y80045D01*
X489188Y79269D01*
X489964Y79269D01*
X489964Y85478D02*
X489964Y86254D01*
X489188Y86254D01*
X489188Y85478D01*
X489964Y85478D01*
X475798Y92075D02*
X475798Y78105D01*
X475798Y87418D02*
X471917Y87418D01*
X471821Y87416D01*
X471725Y87410D01*
X471629Y87400D01*
X471534Y87386D01*
X471439Y87368D01*
X471346Y87347D01*
X471253Y87321D01*
X471161Y87292D01*
X471071Y87259D01*
X470982Y87222D01*
X470895Y87181D01*
X470809Y87137D01*
X470725Y87090D01*
X470644Y87039D01*
X470564Y86985D01*
X470487Y86927D01*
X470412Y86866D01*
X470340Y86803D01*
X470271Y86736D01*
X470204Y86667D01*
X470141Y86595D01*
X470080Y86520D01*
X470022Y86443D01*
X469968Y86363D01*
X469917Y86282D01*
X469870Y86198D01*
X469826Y86112D01*
X469785Y86025D01*
X469748Y85936D01*
X469715Y85846D01*
X469686Y85754D01*
X469660Y85662D01*
X469639Y85568D01*
X469621Y85473D01*
X469607Y85378D01*
X469597Y85282D01*
X469591Y85186D01*
X469589Y85090D01*
X469589Y78105D01*
X464639Y87418D02*
X459982Y87418D01*
X463087Y92075D02*
X463087Y80433D01*
X463086Y80433D02*
X463084Y80339D01*
X463078Y80246D01*
X463069Y80152D01*
X463056Y80060D01*
X463039Y79967D01*
X463018Y79876D01*
X462994Y79785D01*
X462966Y79696D01*
X462935Y79607D01*
X462900Y79521D01*
X462861Y79435D01*
X462819Y79351D01*
X462774Y79269D01*
X462726Y79189D01*
X462674Y79111D01*
X462619Y79034D01*
X462561Y78961D01*
X462501Y78889D01*
X462437Y78820D01*
X462371Y78754D01*
X462302Y78690D01*
X462230Y78630D01*
X462157Y78572D01*
X462080Y78517D01*
X462002Y78465D01*
X461922Y78417D01*
X461840Y78372D01*
X461756Y78330D01*
X461670Y78291D01*
X461584Y78256D01*
X461495Y78225D01*
X461406Y78197D01*
X461315Y78173D01*
X461224Y78152D01*
X461131Y78135D01*
X461039Y78122D01*
X460945Y78113D01*
X460852Y78107D01*
X460758Y78105D01*
X459982Y78105D01*
X455969Y87418D02*
X451313Y87418D01*
X454417Y92075D02*
X454417Y80433D01*
X454415Y80339D01*
X454409Y80246D01*
X454400Y80152D01*
X454387Y80060D01*
X454370Y79967D01*
X454349Y79876D01*
X454325Y79785D01*
X454297Y79696D01*
X454266Y79607D01*
X454231Y79521D01*
X454192Y79435D01*
X454150Y79351D01*
X454105Y79269D01*
X454057Y79189D01*
X454005Y79111D01*
X453950Y79034D01*
X453892Y78961D01*
X453832Y78889D01*
X453768Y78820D01*
X453702Y78754D01*
X453633Y78690D01*
X453561Y78630D01*
X453488Y78572D01*
X453411Y78517D01*
X453333Y78465D01*
X453253Y78417D01*
X453171Y78372D01*
X453087Y78330D01*
X453001Y78291D01*
X452915Y78256D01*
X452826Y78225D01*
X452737Y78197D01*
X452646Y78173D01*
X452555Y78152D01*
X452462Y78135D01*
X452370Y78122D01*
X452276Y78113D01*
X452183Y78107D01*
X452089Y78105D01*
X451313Y78105D01*
X445612Y73448D02*
X445612Y87418D01*
X441731Y87418D01*
X441635Y87416D01*
X441539Y87410D01*
X441443Y87400D01*
X441348Y87386D01*
X441253Y87368D01*
X441160Y87347D01*
X441067Y87321D01*
X440975Y87292D01*
X440885Y87259D01*
X440796Y87222D01*
X440709Y87181D01*
X440623Y87137D01*
X440539Y87090D01*
X440458Y87039D01*
X440378Y86985D01*
X440301Y86927D01*
X440226Y86866D01*
X440154Y86803D01*
X440085Y86736D01*
X440018Y86667D01*
X439955Y86595D01*
X439894Y86520D01*
X439836Y86443D01*
X439782Y86363D01*
X439731Y86282D01*
X439684Y86198D01*
X439640Y86112D01*
X439599Y86025D01*
X439562Y85936D01*
X439529Y85846D01*
X439500Y85754D01*
X439474Y85662D01*
X439453Y85568D01*
X439435Y85473D01*
X439421Y85378D01*
X439411Y85282D01*
X439405Y85186D01*
X439403Y85090D01*
X439403Y80433D01*
X439405Y80339D01*
X439411Y80246D01*
X439420Y80152D01*
X439433Y80060D01*
X439450Y79967D01*
X439471Y79876D01*
X439495Y79785D01*
X439523Y79696D01*
X439554Y79607D01*
X439589Y79520D01*
X439628Y79435D01*
X439670Y79351D01*
X439715Y79269D01*
X439763Y79189D01*
X439815Y79111D01*
X439870Y79034D01*
X439928Y78961D01*
X439988Y78889D01*
X440052Y78820D01*
X440118Y78754D01*
X440187Y78690D01*
X440259Y78630D01*
X440332Y78572D01*
X440409Y78517D01*
X440487Y78465D01*
X440567Y78417D01*
X440649Y78372D01*
X440733Y78330D01*
X440819Y78291D01*
X440906Y78256D01*
X440994Y78225D01*
X441083Y78197D01*
X441174Y78173D01*
X441265Y78152D01*
X441358Y78135D01*
X441450Y78122D01*
X441544Y78113D01*
X441637Y78107D01*
X441731Y78105D01*
X445612Y78105D01*
X432655Y83538D02*
X428775Y81986D01*
X432655Y83538D02*
X432737Y83573D01*
X432817Y83611D01*
X432895Y83653D01*
X432971Y83698D01*
X433045Y83746D01*
X433117Y83798D01*
X433187Y83853D01*
X433254Y83911D01*
X433319Y83971D01*
X433380Y84035D01*
X433439Y84101D01*
X433495Y84170D01*
X433548Y84241D01*
X433598Y84314D01*
X433644Y84390D01*
X433688Y84467D01*
X433727Y84546D01*
X433763Y84627D01*
X433796Y84710D01*
X433825Y84794D01*
X433850Y84879D01*
X433871Y84965D01*
X433889Y85052D01*
X433902Y85139D01*
X433912Y85227D01*
X433918Y85316D01*
X433920Y85404D01*
X433918Y85493D01*
X433912Y85581D01*
X433903Y85669D01*
X433889Y85757D01*
X433872Y85844D01*
X433851Y85930D01*
X433826Y86015D01*
X433797Y86099D01*
X433765Y86181D01*
X433729Y86262D01*
X433689Y86342D01*
X433646Y86419D01*
X433600Y86495D01*
X433550Y86568D01*
X433498Y86640D01*
X433442Y86708D01*
X433383Y86775D01*
X433321Y86838D01*
X433257Y86899D01*
X433190Y86957D01*
X433120Y87012D01*
X433048Y87064D01*
X432974Y87112D01*
X432898Y87158D01*
X432820Y87200D01*
X432740Y87238D01*
X432658Y87273D01*
X432575Y87304D01*
X432491Y87332D01*
X432406Y87355D01*
X432320Y87375D01*
X432232Y87392D01*
X432145Y87404D01*
X432056Y87413D01*
X431968Y87417D01*
X431879Y87418D01*
X431667Y87413D01*
X431456Y87402D01*
X431244Y87386D01*
X431034Y87365D01*
X430823Y87339D01*
X430614Y87308D01*
X430405Y87272D01*
X430197Y87232D01*
X429990Y87186D01*
X429784Y87135D01*
X429580Y87079D01*
X429377Y87018D01*
X429175Y86952D01*
X428975Y86882D01*
X428777Y86807D01*
X428581Y86727D01*
X428387Y86642D01*
X428775Y81985D02*
X428693Y81950D01*
X428613Y81912D01*
X428535Y81870D01*
X428459Y81825D01*
X428385Y81777D01*
X428313Y81725D01*
X428243Y81670D01*
X428176Y81612D01*
X428111Y81552D01*
X428050Y81488D01*
X427991Y81422D01*
X427935Y81353D01*
X427882Y81282D01*
X427832Y81209D01*
X427786Y81133D01*
X427742Y81056D01*
X427703Y80977D01*
X427667Y80896D01*
X427634Y80813D01*
X427605Y80729D01*
X427580Y80644D01*
X427559Y80558D01*
X427541Y80471D01*
X427528Y80384D01*
X427518Y80296D01*
X427512Y80207D01*
X427510Y80119D01*
X427512Y80030D01*
X427518Y79942D01*
X427527Y79854D01*
X427541Y79766D01*
X427558Y79679D01*
X427579Y79593D01*
X427604Y79508D01*
X427633Y79424D01*
X427665Y79342D01*
X427701Y79261D01*
X427741Y79181D01*
X427784Y79104D01*
X427830Y79028D01*
X427880Y78955D01*
X427932Y78883D01*
X427988Y78815D01*
X428047Y78748D01*
X428109Y78685D01*
X428173Y78624D01*
X428240Y78566D01*
X428310Y78511D01*
X428382Y78459D01*
X428456Y78411D01*
X428532Y78365D01*
X428610Y78323D01*
X428690Y78285D01*
X428772Y78250D01*
X428855Y78219D01*
X428939Y78191D01*
X429024Y78168D01*
X429110Y78148D01*
X429198Y78131D01*
X429285Y78119D01*
X429374Y78110D01*
X429462Y78106D01*
X429551Y78105D01*
X429551Y78104D02*
X429862Y78112D01*
X430173Y78128D01*
X430483Y78151D01*
X430793Y78181D01*
X431102Y78218D01*
X431411Y78263D01*
X431717Y78315D01*
X432023Y78375D01*
X432327Y78441D01*
X432630Y78515D01*
X432930Y78596D01*
X433229Y78684D01*
X433525Y78779D01*
X433820Y78880D01*
X421977Y79269D02*
X421977Y80045D01*
X421201Y80045D01*
X421201Y79269D01*
X421977Y79269D01*
X421977Y85478D02*
X421977Y86254D01*
X421201Y86254D01*
X421201Y85478D01*
X421977Y85478D01*
X416024Y76553D02*
X409816Y93627D01*
X398865Y93627D02*
X405074Y76553D01*
X391322Y78105D02*
X388218Y78105D01*
X391322Y78105D02*
X391416Y78107D01*
X391509Y78113D01*
X391603Y78122D01*
X391695Y78135D01*
X391788Y78152D01*
X391879Y78173D01*
X391970Y78197D01*
X392059Y78225D01*
X392148Y78256D01*
X392234Y78291D01*
X392320Y78330D01*
X392404Y78372D01*
X392486Y78417D01*
X392566Y78465D01*
X392644Y78517D01*
X392721Y78572D01*
X392794Y78630D01*
X392866Y78690D01*
X392935Y78754D01*
X393001Y78820D01*
X393065Y78889D01*
X393125Y78961D01*
X393183Y79034D01*
X393238Y79111D01*
X393290Y79189D01*
X393338Y79269D01*
X393383Y79351D01*
X393425Y79435D01*
X393464Y79521D01*
X393499Y79607D01*
X393530Y79696D01*
X393558Y79785D01*
X393582Y79876D01*
X393603Y79967D01*
X393620Y80060D01*
X393633Y80152D01*
X393642Y80246D01*
X393648Y80339D01*
X393650Y80433D01*
X393650Y85090D01*
X393648Y85184D01*
X393642Y85277D01*
X393633Y85371D01*
X393620Y85463D01*
X393603Y85556D01*
X393582Y85647D01*
X393558Y85738D01*
X393530Y85827D01*
X393499Y85916D01*
X393464Y86002D01*
X393425Y86088D01*
X393383Y86172D01*
X393338Y86254D01*
X393290Y86334D01*
X393238Y86412D01*
X393183Y86489D01*
X393125Y86562D01*
X393065Y86634D01*
X393001Y86703D01*
X392935Y86769D01*
X392866Y86833D01*
X392794Y86893D01*
X392721Y86951D01*
X392644Y87006D01*
X392566Y87058D01*
X392486Y87106D01*
X392404Y87151D01*
X392320Y87193D01*
X392234Y87232D01*
X392148Y87267D01*
X392059Y87298D01*
X391970Y87326D01*
X391879Y87350D01*
X391788Y87371D01*
X391695Y87388D01*
X391603Y87401D01*
X391509Y87410D01*
X391416Y87416D01*
X391322Y87418D01*
X388218Y87418D01*
X383262Y87418D02*
X383262Y78105D01*
X383650Y91299D02*
X383650Y92075D01*
X382874Y92075D01*
X382874Y91299D01*
X383650Y91299D01*
X377160Y87418D02*
X377160Y78105D01*
X377160Y87418D02*
X372503Y87418D01*
X372503Y85866D01*
X365770Y78105D02*
X362666Y78105D01*
X365770Y78105D02*
X365864Y78107D01*
X365957Y78113D01*
X366051Y78122D01*
X366143Y78135D01*
X366236Y78152D01*
X366327Y78173D01*
X366418Y78197D01*
X366507Y78225D01*
X366596Y78256D01*
X366682Y78291D01*
X366768Y78330D01*
X366852Y78372D01*
X366934Y78417D01*
X367014Y78465D01*
X367092Y78517D01*
X367169Y78572D01*
X367242Y78630D01*
X367314Y78690D01*
X367383Y78754D01*
X367449Y78820D01*
X367513Y78889D01*
X367573Y78961D01*
X367631Y79034D01*
X367686Y79111D01*
X367738Y79189D01*
X367786Y79269D01*
X367831Y79351D01*
X367873Y79435D01*
X367912Y79521D01*
X367947Y79607D01*
X367978Y79696D01*
X368006Y79785D01*
X368030Y79876D01*
X368051Y79967D01*
X368068Y80060D01*
X368081Y80152D01*
X368090Y80246D01*
X368096Y80339D01*
X368098Y80433D01*
X368099Y80433D02*
X368099Y85090D01*
X368098Y85090D02*
X368096Y85184D01*
X368090Y85277D01*
X368081Y85371D01*
X368068Y85463D01*
X368051Y85556D01*
X368030Y85647D01*
X368006Y85738D01*
X367978Y85827D01*
X367947Y85916D01*
X367912Y86002D01*
X367873Y86088D01*
X367831Y86172D01*
X367786Y86254D01*
X367738Y86334D01*
X367686Y86412D01*
X367631Y86489D01*
X367573Y86562D01*
X367513Y86634D01*
X367449Y86703D01*
X367383Y86769D01*
X367314Y86833D01*
X367242Y86893D01*
X367169Y86951D01*
X367092Y87006D01*
X367014Y87058D01*
X366934Y87106D01*
X366852Y87151D01*
X366768Y87193D01*
X366682Y87232D01*
X366596Y87267D01*
X366507Y87298D01*
X366418Y87326D01*
X366327Y87350D01*
X366236Y87371D01*
X366143Y87388D01*
X366051Y87401D01*
X365957Y87410D01*
X365864Y87416D01*
X365770Y87418D01*
X362666Y87418D01*
X357444Y92075D02*
X357444Y80433D01*
X357443Y80433D02*
X357441Y80339D01*
X357435Y80246D01*
X357426Y80152D01*
X357413Y80060D01*
X357396Y79967D01*
X357375Y79876D01*
X357351Y79785D01*
X357323Y79696D01*
X357292Y79607D01*
X357257Y79521D01*
X357218Y79435D01*
X357176Y79351D01*
X357131Y79269D01*
X357083Y79189D01*
X357031Y79111D01*
X356976Y79034D01*
X356918Y78961D01*
X356858Y78889D01*
X356794Y78820D01*
X356728Y78754D01*
X356659Y78690D01*
X356587Y78630D01*
X356514Y78572D01*
X356437Y78517D01*
X356359Y78465D01*
X356279Y78417D01*
X356197Y78372D01*
X356113Y78330D01*
X356027Y78291D01*
X355941Y78256D01*
X355852Y78225D01*
X355763Y78197D01*
X355672Y78173D01*
X355581Y78152D01*
X355488Y78135D01*
X355396Y78122D01*
X355302Y78113D01*
X355209Y78107D01*
X355115Y78105D01*
X347991Y78105D02*
X344111Y78105D01*
X347991Y78105D02*
X348085Y78107D01*
X348178Y78113D01*
X348272Y78122D01*
X348364Y78135D01*
X348457Y78152D01*
X348548Y78173D01*
X348639Y78197D01*
X348728Y78225D01*
X348817Y78256D01*
X348903Y78291D01*
X348989Y78330D01*
X349073Y78372D01*
X349155Y78417D01*
X349235Y78465D01*
X349313Y78517D01*
X349390Y78572D01*
X349463Y78630D01*
X349535Y78690D01*
X349604Y78754D01*
X349670Y78820D01*
X349734Y78889D01*
X349794Y78961D01*
X349852Y79034D01*
X349907Y79111D01*
X349959Y79189D01*
X350007Y79269D01*
X350052Y79351D01*
X350094Y79435D01*
X350133Y79521D01*
X350168Y79607D01*
X350199Y79696D01*
X350227Y79785D01*
X350251Y79876D01*
X350272Y79967D01*
X350289Y80060D01*
X350302Y80152D01*
X350311Y80246D01*
X350317Y80339D01*
X350319Y80433D01*
X350320Y80433D02*
X350320Y84314D01*
X350319Y84314D02*
X350317Y84425D01*
X350311Y84535D01*
X350301Y84646D01*
X350287Y84756D01*
X350270Y84865D01*
X350248Y84974D01*
X350223Y85082D01*
X350193Y85188D01*
X350160Y85294D01*
X350123Y85399D01*
X350083Y85502D01*
X350038Y85603D01*
X349991Y85703D01*
X349939Y85802D01*
X349884Y85898D01*
X349826Y85992D01*
X349765Y86084D01*
X349700Y86174D01*
X349632Y86262D01*
X349561Y86347D01*
X349487Y86429D01*
X349410Y86509D01*
X349330Y86586D01*
X349248Y86660D01*
X349163Y86731D01*
X349075Y86799D01*
X348985Y86864D01*
X348893Y86925D01*
X348799Y86983D01*
X348703Y87038D01*
X348604Y87090D01*
X348504Y87137D01*
X348403Y87182D01*
X348300Y87222D01*
X348195Y87259D01*
X348089Y87292D01*
X347983Y87322D01*
X347875Y87347D01*
X347766Y87369D01*
X347657Y87386D01*
X347547Y87400D01*
X347436Y87410D01*
X347326Y87416D01*
X347215Y87418D01*
X347104Y87416D01*
X346994Y87410D01*
X346883Y87400D01*
X346773Y87386D01*
X346664Y87369D01*
X346555Y87347D01*
X346447Y87322D01*
X346341Y87292D01*
X346235Y87259D01*
X346130Y87222D01*
X346027Y87182D01*
X345926Y87137D01*
X345826Y87090D01*
X345727Y87038D01*
X345631Y86983D01*
X345537Y86925D01*
X345445Y86864D01*
X345355Y86799D01*
X345267Y86731D01*
X345182Y86660D01*
X345100Y86586D01*
X345020Y86509D01*
X344943Y86429D01*
X344869Y86347D01*
X344798Y86262D01*
X344730Y86174D01*
X344665Y86084D01*
X344604Y85992D01*
X344546Y85898D01*
X344491Y85802D01*
X344439Y85703D01*
X344392Y85603D01*
X344347Y85502D01*
X344307Y85399D01*
X344270Y85294D01*
X344237Y85188D01*
X344207Y85082D01*
X344182Y84974D01*
X344160Y84865D01*
X344143Y84756D01*
X344129Y84646D01*
X344119Y84535D01*
X344113Y84425D01*
X344111Y84314D01*
X344111Y82762D01*
X350320Y82762D01*
X337292Y83538D02*
X333412Y81986D01*
X337292Y83538D02*
X337374Y83573D01*
X337454Y83611D01*
X337532Y83653D01*
X337608Y83698D01*
X337682Y83746D01*
X337754Y83798D01*
X337824Y83853D01*
X337891Y83911D01*
X337956Y83971D01*
X338017Y84035D01*
X338076Y84101D01*
X338132Y84170D01*
X338185Y84241D01*
X338235Y84314D01*
X338281Y84390D01*
X338325Y84467D01*
X338364Y84546D01*
X338400Y84627D01*
X338433Y84710D01*
X338462Y84794D01*
X338487Y84879D01*
X338508Y84965D01*
X338526Y85052D01*
X338539Y85139D01*
X338549Y85227D01*
X338555Y85316D01*
X338557Y85404D01*
X338555Y85493D01*
X338549Y85581D01*
X338540Y85669D01*
X338526Y85757D01*
X338509Y85844D01*
X338488Y85930D01*
X338463Y86015D01*
X338434Y86099D01*
X338402Y86181D01*
X338366Y86262D01*
X338326Y86342D01*
X338283Y86419D01*
X338237Y86495D01*
X338187Y86568D01*
X338135Y86640D01*
X338079Y86708D01*
X338020Y86775D01*
X337958Y86838D01*
X337894Y86899D01*
X337827Y86957D01*
X337757Y87012D01*
X337685Y87064D01*
X337611Y87112D01*
X337535Y87158D01*
X337457Y87200D01*
X337377Y87238D01*
X337295Y87273D01*
X337212Y87304D01*
X337128Y87332D01*
X337043Y87355D01*
X336957Y87375D01*
X336869Y87392D01*
X336782Y87404D01*
X336693Y87413D01*
X336605Y87417D01*
X336516Y87418D01*
X336304Y87413D01*
X336093Y87402D01*
X335881Y87386D01*
X335671Y87365D01*
X335460Y87339D01*
X335251Y87308D01*
X335042Y87272D01*
X334834Y87232D01*
X334627Y87186D01*
X334421Y87135D01*
X334217Y87079D01*
X334014Y87018D01*
X333812Y86952D01*
X333612Y86882D01*
X333414Y86807D01*
X333218Y86727D01*
X333024Y86642D01*
X333412Y81985D02*
X333330Y81950D01*
X333250Y81912D01*
X333172Y81870D01*
X333096Y81825D01*
X333022Y81777D01*
X332950Y81725D01*
X332880Y81670D01*
X332813Y81612D01*
X332748Y81552D01*
X332687Y81488D01*
X332628Y81422D01*
X332572Y81353D01*
X332519Y81282D01*
X332469Y81209D01*
X332423Y81133D01*
X332379Y81056D01*
X332340Y80977D01*
X332304Y80896D01*
X332271Y80813D01*
X332242Y80729D01*
X332217Y80644D01*
X332196Y80558D01*
X332178Y80471D01*
X332165Y80384D01*
X332155Y80296D01*
X332149Y80207D01*
X332147Y80119D01*
X332149Y80030D01*
X332155Y79942D01*
X332164Y79854D01*
X332178Y79766D01*
X332195Y79679D01*
X332216Y79593D01*
X332241Y79508D01*
X332270Y79424D01*
X332302Y79342D01*
X332338Y79261D01*
X332378Y79181D01*
X332421Y79104D01*
X332467Y79028D01*
X332517Y78955D01*
X332569Y78883D01*
X332625Y78815D01*
X332684Y78748D01*
X332746Y78685D01*
X332810Y78624D01*
X332877Y78566D01*
X332947Y78511D01*
X333019Y78459D01*
X333093Y78411D01*
X333169Y78365D01*
X333247Y78323D01*
X333327Y78285D01*
X333409Y78250D01*
X333492Y78219D01*
X333576Y78191D01*
X333661Y78168D01*
X333747Y78148D01*
X333835Y78131D01*
X333922Y78119D01*
X334011Y78110D01*
X334099Y78106D01*
X334188Y78105D01*
X334188Y78104D02*
X334499Y78112D01*
X334810Y78128D01*
X335120Y78151D01*
X335430Y78181D01*
X335739Y78218D01*
X336048Y78263D01*
X336354Y78315D01*
X336660Y78375D01*
X336964Y78441D01*
X337267Y78515D01*
X337567Y78596D01*
X337866Y78684D01*
X338162Y78779D01*
X338457Y78880D01*
X326320Y83538D02*
X317007Y83538D01*
X308735Y78105D02*
X305630Y78105D01*
X308735Y78105D02*
X308829Y78107D01*
X308922Y78113D01*
X309016Y78122D01*
X309108Y78135D01*
X309201Y78152D01*
X309292Y78173D01*
X309383Y78197D01*
X309472Y78225D01*
X309561Y78256D01*
X309647Y78291D01*
X309733Y78330D01*
X309817Y78372D01*
X309899Y78417D01*
X309979Y78465D01*
X310057Y78517D01*
X310134Y78572D01*
X310207Y78630D01*
X310279Y78690D01*
X310348Y78754D01*
X310414Y78820D01*
X310478Y78889D01*
X310538Y78961D01*
X310596Y79034D01*
X310651Y79111D01*
X310703Y79189D01*
X310751Y79269D01*
X310796Y79351D01*
X310838Y79435D01*
X310877Y79521D01*
X310912Y79607D01*
X310943Y79696D01*
X310971Y79785D01*
X310995Y79876D01*
X311016Y79967D01*
X311033Y80060D01*
X311046Y80152D01*
X311055Y80246D01*
X311061Y80339D01*
X311063Y80433D01*
X311063Y85090D01*
X311061Y85184D01*
X311055Y85277D01*
X311046Y85371D01*
X311033Y85463D01*
X311016Y85556D01*
X310995Y85647D01*
X310971Y85738D01*
X310943Y85827D01*
X310912Y85916D01*
X310877Y86002D01*
X310838Y86088D01*
X310796Y86172D01*
X310751Y86254D01*
X310703Y86334D01*
X310651Y86412D01*
X310596Y86489D01*
X310538Y86562D01*
X310478Y86634D01*
X310414Y86703D01*
X310348Y86769D01*
X310279Y86833D01*
X310207Y86893D01*
X310134Y86951D01*
X310057Y87006D01*
X309979Y87058D01*
X309899Y87106D01*
X309817Y87151D01*
X309733Y87193D01*
X309647Y87232D01*
X309561Y87267D01*
X309472Y87298D01*
X309383Y87326D01*
X309292Y87350D01*
X309201Y87371D01*
X309108Y87388D01*
X309016Y87401D01*
X308922Y87410D01*
X308829Y87416D01*
X308735Y87418D01*
X305630Y87418D01*
X300585Y84314D02*
X300585Y81209D01*
X300584Y84314D02*
X300582Y84425D01*
X300576Y84535D01*
X300566Y84646D01*
X300552Y84756D01*
X300535Y84865D01*
X300513Y84974D01*
X300488Y85082D01*
X300458Y85188D01*
X300425Y85294D01*
X300388Y85399D01*
X300348Y85502D01*
X300303Y85603D01*
X300256Y85703D01*
X300204Y85802D01*
X300149Y85898D01*
X300091Y85992D01*
X300030Y86084D01*
X299965Y86174D01*
X299897Y86262D01*
X299826Y86347D01*
X299752Y86429D01*
X299675Y86509D01*
X299595Y86586D01*
X299513Y86660D01*
X299428Y86731D01*
X299340Y86799D01*
X299250Y86864D01*
X299158Y86925D01*
X299064Y86983D01*
X298968Y87038D01*
X298869Y87090D01*
X298769Y87137D01*
X298668Y87182D01*
X298565Y87222D01*
X298460Y87259D01*
X298354Y87292D01*
X298248Y87322D01*
X298140Y87347D01*
X298031Y87369D01*
X297922Y87386D01*
X297812Y87400D01*
X297701Y87410D01*
X297591Y87416D01*
X297480Y87418D01*
X297369Y87416D01*
X297259Y87410D01*
X297148Y87400D01*
X297038Y87386D01*
X296929Y87369D01*
X296820Y87347D01*
X296712Y87322D01*
X296606Y87292D01*
X296500Y87259D01*
X296395Y87222D01*
X296292Y87182D01*
X296191Y87137D01*
X296091Y87090D01*
X295992Y87038D01*
X295896Y86983D01*
X295802Y86925D01*
X295710Y86864D01*
X295620Y86799D01*
X295532Y86731D01*
X295447Y86660D01*
X295365Y86586D01*
X295285Y86509D01*
X295208Y86429D01*
X295134Y86347D01*
X295063Y86262D01*
X294995Y86174D01*
X294930Y86084D01*
X294869Y85992D01*
X294811Y85898D01*
X294756Y85802D01*
X294704Y85703D01*
X294657Y85603D01*
X294612Y85502D01*
X294572Y85399D01*
X294535Y85294D01*
X294502Y85188D01*
X294472Y85082D01*
X294447Y84974D01*
X294425Y84865D01*
X294408Y84756D01*
X294394Y84646D01*
X294384Y84535D01*
X294378Y84425D01*
X294376Y84314D01*
X294376Y81209D01*
X294378Y81098D01*
X294384Y80988D01*
X294394Y80877D01*
X294408Y80767D01*
X294425Y80658D01*
X294447Y80549D01*
X294472Y80441D01*
X294502Y80335D01*
X294535Y80229D01*
X294572Y80124D01*
X294612Y80021D01*
X294657Y79920D01*
X294704Y79820D01*
X294756Y79721D01*
X294811Y79625D01*
X294869Y79531D01*
X294930Y79439D01*
X294995Y79349D01*
X295063Y79261D01*
X295134Y79176D01*
X295208Y79094D01*
X295285Y79014D01*
X295365Y78937D01*
X295447Y78863D01*
X295532Y78792D01*
X295620Y78724D01*
X295710Y78659D01*
X295802Y78598D01*
X295896Y78540D01*
X295992Y78485D01*
X296091Y78433D01*
X296191Y78386D01*
X296292Y78341D01*
X296395Y78301D01*
X296500Y78264D01*
X296606Y78231D01*
X296712Y78201D01*
X296820Y78176D01*
X296929Y78154D01*
X297038Y78137D01*
X297148Y78123D01*
X297259Y78113D01*
X297369Y78107D01*
X297480Y78105D01*
X297591Y78107D01*
X297701Y78113D01*
X297812Y78123D01*
X297922Y78137D01*
X298031Y78154D01*
X298140Y78176D01*
X298248Y78201D01*
X298354Y78231D01*
X298460Y78264D01*
X298565Y78301D01*
X298668Y78341D01*
X298769Y78386D01*
X298869Y78433D01*
X298968Y78485D01*
X299064Y78540D01*
X299158Y78598D01*
X299250Y78659D01*
X299340Y78724D01*
X299428Y78792D01*
X299513Y78863D01*
X299595Y78937D01*
X299675Y79014D01*
X299752Y79094D01*
X299826Y79176D01*
X299897Y79261D01*
X299965Y79349D01*
X300030Y79439D01*
X300091Y79531D01*
X300149Y79625D01*
X300204Y79721D01*
X300256Y79820D01*
X300303Y79920D01*
X300348Y80021D01*
X300388Y80124D01*
X300425Y80229D01*
X300458Y80335D01*
X300488Y80441D01*
X300513Y80549D01*
X300535Y80658D01*
X300552Y80767D01*
X300566Y80877D01*
X300576Y80988D01*
X300582Y81098D01*
X300584Y81209D01*
X288265Y78105D02*
X288265Y87418D01*
X284385Y87418D01*
X284289Y87416D01*
X284193Y87410D01*
X284097Y87400D01*
X284002Y87386D01*
X283907Y87368D01*
X283814Y87347D01*
X283721Y87321D01*
X283629Y87292D01*
X283539Y87259D01*
X283450Y87222D01*
X283363Y87181D01*
X283277Y87137D01*
X283193Y87090D01*
X283112Y87039D01*
X283032Y86985D01*
X282955Y86927D01*
X282880Y86866D01*
X282808Y86803D01*
X282739Y86736D01*
X282672Y86667D01*
X282609Y86595D01*
X282548Y86520D01*
X282490Y86443D01*
X282436Y86363D01*
X282385Y86282D01*
X282338Y86198D01*
X282294Y86112D01*
X282253Y86025D01*
X282216Y85936D01*
X282183Y85846D01*
X282154Y85754D01*
X282128Y85662D01*
X282107Y85568D01*
X282089Y85473D01*
X282075Y85378D01*
X282065Y85282D01*
X282059Y85186D01*
X282057Y85090D01*
X282056Y85090D02*
X282056Y78105D01*
X274781Y83538D02*
X270901Y81986D01*
X274781Y83538D02*
X274863Y83573D01*
X274943Y83611D01*
X275021Y83653D01*
X275097Y83698D01*
X275171Y83746D01*
X275243Y83798D01*
X275313Y83853D01*
X275380Y83911D01*
X275445Y83971D01*
X275506Y84035D01*
X275565Y84101D01*
X275621Y84170D01*
X275674Y84241D01*
X275724Y84314D01*
X275770Y84390D01*
X275814Y84467D01*
X275853Y84546D01*
X275889Y84627D01*
X275922Y84710D01*
X275951Y84794D01*
X275976Y84879D01*
X275997Y84965D01*
X276015Y85052D01*
X276028Y85139D01*
X276038Y85227D01*
X276044Y85316D01*
X276046Y85404D01*
X276044Y85493D01*
X276038Y85581D01*
X276029Y85669D01*
X276015Y85757D01*
X275998Y85844D01*
X275977Y85930D01*
X275952Y86015D01*
X275923Y86099D01*
X275891Y86181D01*
X275855Y86262D01*
X275815Y86342D01*
X275772Y86419D01*
X275726Y86495D01*
X275676Y86568D01*
X275624Y86640D01*
X275568Y86708D01*
X275509Y86775D01*
X275447Y86838D01*
X275383Y86899D01*
X275316Y86957D01*
X275246Y87012D01*
X275174Y87064D01*
X275100Y87112D01*
X275024Y87158D01*
X274946Y87200D01*
X274866Y87238D01*
X274784Y87273D01*
X274701Y87304D01*
X274617Y87332D01*
X274532Y87355D01*
X274446Y87375D01*
X274358Y87392D01*
X274271Y87404D01*
X274182Y87413D01*
X274094Y87417D01*
X274005Y87418D01*
X273793Y87413D01*
X273582Y87402D01*
X273370Y87386D01*
X273160Y87365D01*
X272949Y87339D01*
X272740Y87308D01*
X272531Y87272D01*
X272323Y87232D01*
X272116Y87186D01*
X271910Y87135D01*
X271706Y87079D01*
X271503Y87018D01*
X271301Y86952D01*
X271101Y86882D01*
X270903Y86807D01*
X270707Y86727D01*
X270513Y86642D01*
X270901Y81985D02*
X270819Y81950D01*
X270739Y81912D01*
X270661Y81870D01*
X270585Y81825D01*
X270511Y81777D01*
X270439Y81725D01*
X270369Y81670D01*
X270302Y81612D01*
X270237Y81552D01*
X270176Y81488D01*
X270117Y81422D01*
X270061Y81353D01*
X270008Y81282D01*
X269958Y81209D01*
X269912Y81133D01*
X269868Y81056D01*
X269829Y80977D01*
X269793Y80896D01*
X269760Y80813D01*
X269731Y80729D01*
X269706Y80644D01*
X269685Y80558D01*
X269667Y80471D01*
X269654Y80384D01*
X269644Y80296D01*
X269638Y80207D01*
X269636Y80119D01*
X269638Y80030D01*
X269644Y79942D01*
X269653Y79854D01*
X269667Y79766D01*
X269684Y79679D01*
X269705Y79593D01*
X269730Y79508D01*
X269759Y79424D01*
X269791Y79342D01*
X269827Y79261D01*
X269867Y79181D01*
X269910Y79104D01*
X269956Y79028D01*
X270006Y78955D01*
X270058Y78883D01*
X270114Y78815D01*
X270173Y78748D01*
X270235Y78685D01*
X270299Y78624D01*
X270366Y78566D01*
X270436Y78511D01*
X270508Y78459D01*
X270582Y78411D01*
X270658Y78365D01*
X270736Y78323D01*
X270816Y78285D01*
X270898Y78250D01*
X270981Y78219D01*
X271065Y78191D01*
X271150Y78168D01*
X271236Y78148D01*
X271324Y78131D01*
X271411Y78119D01*
X271500Y78110D01*
X271588Y78106D01*
X271677Y78105D01*
X271677Y78104D02*
X271988Y78112D01*
X272299Y78128D01*
X272609Y78151D01*
X272919Y78181D01*
X273228Y78218D01*
X273537Y78263D01*
X273843Y78315D01*
X274149Y78375D01*
X274453Y78441D01*
X274756Y78515D01*
X275056Y78596D01*
X275355Y78684D01*
X275651Y78779D01*
X275946Y78880D01*
X264082Y81209D02*
X264082Y84314D01*
X264080Y84425D01*
X264074Y84535D01*
X264064Y84646D01*
X264050Y84756D01*
X264033Y84865D01*
X264011Y84974D01*
X263986Y85082D01*
X263956Y85188D01*
X263923Y85294D01*
X263886Y85399D01*
X263846Y85502D01*
X263801Y85603D01*
X263754Y85703D01*
X263702Y85802D01*
X263647Y85898D01*
X263589Y85992D01*
X263528Y86084D01*
X263463Y86174D01*
X263395Y86262D01*
X263324Y86347D01*
X263250Y86429D01*
X263173Y86509D01*
X263093Y86586D01*
X263011Y86660D01*
X262926Y86731D01*
X262838Y86799D01*
X262748Y86864D01*
X262656Y86925D01*
X262562Y86983D01*
X262466Y87038D01*
X262367Y87090D01*
X262267Y87137D01*
X262166Y87182D01*
X262063Y87222D01*
X261958Y87259D01*
X261852Y87292D01*
X261746Y87322D01*
X261638Y87347D01*
X261529Y87369D01*
X261420Y87386D01*
X261310Y87400D01*
X261199Y87410D01*
X261089Y87416D01*
X260978Y87418D01*
X260867Y87416D01*
X260757Y87410D01*
X260646Y87400D01*
X260536Y87386D01*
X260427Y87369D01*
X260318Y87347D01*
X260210Y87322D01*
X260104Y87292D01*
X259998Y87259D01*
X259893Y87222D01*
X259790Y87182D01*
X259689Y87137D01*
X259589Y87090D01*
X259490Y87038D01*
X259394Y86983D01*
X259300Y86925D01*
X259208Y86864D01*
X259118Y86799D01*
X259030Y86731D01*
X258945Y86660D01*
X258863Y86586D01*
X258783Y86509D01*
X258706Y86429D01*
X258632Y86347D01*
X258561Y86262D01*
X258493Y86174D01*
X258428Y86084D01*
X258367Y85992D01*
X258309Y85898D01*
X258254Y85802D01*
X258202Y85703D01*
X258155Y85603D01*
X258110Y85502D01*
X258070Y85399D01*
X258033Y85294D01*
X258000Y85188D01*
X257970Y85082D01*
X257945Y84974D01*
X257923Y84865D01*
X257906Y84756D01*
X257892Y84646D01*
X257882Y84535D01*
X257876Y84425D01*
X257874Y84314D01*
X257873Y84314D02*
X257873Y81209D01*
X257874Y81209D02*
X257876Y81098D01*
X257882Y80988D01*
X257892Y80877D01*
X257906Y80767D01*
X257923Y80658D01*
X257945Y80549D01*
X257970Y80441D01*
X258000Y80335D01*
X258033Y80229D01*
X258070Y80124D01*
X258110Y80021D01*
X258155Y79920D01*
X258202Y79820D01*
X258254Y79721D01*
X258309Y79625D01*
X258367Y79531D01*
X258428Y79439D01*
X258493Y79349D01*
X258561Y79261D01*
X258632Y79176D01*
X258706Y79094D01*
X258783Y79014D01*
X258863Y78937D01*
X258945Y78863D01*
X259030Y78792D01*
X259118Y78724D01*
X259208Y78659D01*
X259300Y78598D01*
X259394Y78540D01*
X259490Y78485D01*
X259589Y78433D01*
X259689Y78386D01*
X259790Y78341D01*
X259893Y78301D01*
X259998Y78264D01*
X260104Y78231D01*
X260210Y78201D01*
X260318Y78176D01*
X260427Y78154D01*
X260536Y78137D01*
X260646Y78123D01*
X260757Y78113D01*
X260867Y78107D01*
X260978Y78105D01*
X261089Y78107D01*
X261199Y78113D01*
X261310Y78123D01*
X261420Y78137D01*
X261529Y78154D01*
X261638Y78176D01*
X261746Y78201D01*
X261852Y78231D01*
X261958Y78264D01*
X262063Y78301D01*
X262166Y78341D01*
X262267Y78386D01*
X262367Y78433D01*
X262466Y78485D01*
X262562Y78540D01*
X262656Y78598D01*
X262748Y78659D01*
X262838Y78724D01*
X262926Y78792D01*
X263011Y78863D01*
X263093Y78937D01*
X263173Y79014D01*
X263250Y79094D01*
X263324Y79176D01*
X263395Y79261D01*
X263463Y79349D01*
X263528Y79439D01*
X263589Y79531D01*
X263647Y79625D01*
X263702Y79721D01*
X263754Y79820D01*
X263801Y79920D01*
X263846Y80021D01*
X263886Y80124D01*
X263923Y80229D01*
X263956Y80335D01*
X263986Y80441D01*
X264011Y80549D01*
X264033Y80658D01*
X264050Y80767D01*
X264064Y80877D01*
X264074Y80988D01*
X264080Y81098D01*
X264082Y81209D01*
X251682Y78105D02*
X251682Y87418D01*
X247025Y87418D01*
X247025Y85866D01*
X243798Y87418D02*
X239141Y87418D01*
X242245Y92075D02*
X242245Y80433D01*
X242243Y80339D01*
X242237Y80246D01*
X242228Y80152D01*
X242215Y80060D01*
X242198Y79967D01*
X242177Y79876D01*
X242153Y79785D01*
X242125Y79696D01*
X242094Y79607D01*
X242059Y79521D01*
X242020Y79435D01*
X241978Y79351D01*
X241933Y79269D01*
X241885Y79189D01*
X241833Y79111D01*
X241778Y79034D01*
X241720Y78961D01*
X241660Y78889D01*
X241596Y78820D01*
X241530Y78754D01*
X241461Y78690D01*
X241389Y78630D01*
X241316Y78572D01*
X241239Y78517D01*
X241161Y78465D01*
X241081Y78417D01*
X240999Y78372D01*
X240915Y78330D01*
X240829Y78291D01*
X240743Y78256D01*
X240654Y78225D01*
X240565Y78197D01*
X240474Y78173D01*
X240383Y78152D01*
X240290Y78135D01*
X240198Y78122D01*
X240104Y78113D01*
X240011Y78107D01*
X239917Y78105D01*
X239141Y78105D01*
X234057Y78105D02*
X234057Y87418D01*
X234445Y91299D02*
X234445Y92075D01*
X233669Y92075D01*
X233669Y91299D01*
X234445Y91299D01*
X228036Y87418D02*
X228036Y80433D01*
X228035Y80433D02*
X228033Y80339D01*
X228027Y80246D01*
X228018Y80152D01*
X228005Y80060D01*
X227988Y79967D01*
X227967Y79876D01*
X227943Y79785D01*
X227915Y79696D01*
X227884Y79607D01*
X227849Y79521D01*
X227810Y79435D01*
X227768Y79351D01*
X227723Y79269D01*
X227675Y79189D01*
X227623Y79111D01*
X227568Y79034D01*
X227510Y78961D01*
X227450Y78889D01*
X227386Y78820D01*
X227320Y78754D01*
X227251Y78690D01*
X227179Y78630D01*
X227106Y78572D01*
X227029Y78517D01*
X226951Y78465D01*
X226871Y78417D01*
X226789Y78372D01*
X226705Y78330D01*
X226619Y78291D01*
X226533Y78256D01*
X226444Y78225D01*
X226355Y78197D01*
X226264Y78173D01*
X226173Y78152D01*
X226080Y78135D01*
X225988Y78122D01*
X225894Y78113D01*
X225801Y78107D01*
X225707Y78105D01*
X221827Y78105D01*
X221827Y87418D01*
X214987Y87418D02*
X214987Y78105D01*
X214987Y87418D02*
X208002Y87418D01*
X207908Y87416D01*
X207815Y87410D01*
X207721Y87401D01*
X207629Y87388D01*
X207536Y87371D01*
X207445Y87350D01*
X207354Y87326D01*
X207265Y87298D01*
X207176Y87267D01*
X207090Y87232D01*
X207004Y87193D01*
X206920Y87151D01*
X206838Y87106D01*
X206758Y87058D01*
X206680Y87006D01*
X206603Y86951D01*
X206530Y86893D01*
X206458Y86833D01*
X206389Y86769D01*
X206323Y86703D01*
X206259Y86634D01*
X206199Y86562D01*
X206141Y86489D01*
X206086Y86412D01*
X206034Y86334D01*
X205986Y86254D01*
X205941Y86172D01*
X205899Y86088D01*
X205860Y86002D01*
X205825Y85916D01*
X205794Y85827D01*
X205766Y85738D01*
X205742Y85647D01*
X205721Y85556D01*
X205704Y85463D01*
X205691Y85371D01*
X205682Y85277D01*
X205676Y85184D01*
X205674Y85090D01*
X205674Y78105D01*
X210330Y78105D02*
X210330Y87418D01*
X199767Y78881D02*
X199767Y78105D01*
X199767Y78881D02*
X198991Y78881D01*
X198991Y78105D01*
X199767Y78105D01*
X191557Y78105D02*
X187677Y78105D01*
X191557Y78105D02*
X191651Y78107D01*
X191744Y78113D01*
X191838Y78122D01*
X191930Y78135D01*
X192023Y78152D01*
X192114Y78173D01*
X192205Y78197D01*
X192294Y78225D01*
X192383Y78256D01*
X192469Y78291D01*
X192555Y78330D01*
X192639Y78372D01*
X192721Y78417D01*
X192801Y78465D01*
X192879Y78517D01*
X192956Y78572D01*
X193029Y78630D01*
X193101Y78690D01*
X193170Y78754D01*
X193236Y78820D01*
X193300Y78889D01*
X193360Y78961D01*
X193418Y79034D01*
X193473Y79111D01*
X193525Y79189D01*
X193573Y79269D01*
X193618Y79351D01*
X193660Y79435D01*
X193699Y79521D01*
X193734Y79607D01*
X193765Y79696D01*
X193793Y79785D01*
X193817Y79876D01*
X193838Y79967D01*
X193855Y80060D01*
X193868Y80152D01*
X193877Y80246D01*
X193883Y80339D01*
X193885Y80433D01*
X193886Y80433D02*
X193886Y85090D01*
X193885Y85090D02*
X193883Y85184D01*
X193877Y85277D01*
X193868Y85371D01*
X193855Y85463D01*
X193838Y85556D01*
X193817Y85647D01*
X193793Y85738D01*
X193765Y85827D01*
X193734Y85916D01*
X193699Y86002D01*
X193660Y86088D01*
X193618Y86172D01*
X193573Y86254D01*
X193525Y86334D01*
X193473Y86412D01*
X193418Y86489D01*
X193360Y86562D01*
X193300Y86634D01*
X193236Y86703D01*
X193170Y86769D01*
X193101Y86833D01*
X193029Y86893D01*
X192956Y86951D01*
X192879Y87006D01*
X192801Y87058D01*
X192721Y87106D01*
X192639Y87151D01*
X192555Y87193D01*
X192469Y87232D01*
X192383Y87267D01*
X192294Y87298D01*
X192205Y87326D01*
X192114Y87350D01*
X192023Y87371D01*
X191930Y87388D01*
X191838Y87401D01*
X191744Y87410D01*
X191651Y87416D01*
X191557Y87418D01*
X187677Y87418D01*
X187677Y75777D01*
X187679Y75683D01*
X187685Y75590D01*
X187694Y75496D01*
X187707Y75404D01*
X187724Y75311D01*
X187745Y75220D01*
X187769Y75129D01*
X187797Y75040D01*
X187828Y74951D01*
X187863Y74865D01*
X187902Y74779D01*
X187944Y74695D01*
X187989Y74613D01*
X188037Y74533D01*
X188089Y74455D01*
X188144Y74378D01*
X188202Y74305D01*
X188262Y74233D01*
X188326Y74164D01*
X188392Y74098D01*
X188461Y74034D01*
X188533Y73974D01*
X188606Y73916D01*
X188683Y73861D01*
X188761Y73809D01*
X188841Y73761D01*
X188923Y73716D01*
X189007Y73674D01*
X189093Y73635D01*
X189179Y73600D01*
X189268Y73569D01*
X189357Y73541D01*
X189448Y73517D01*
X189539Y73496D01*
X189632Y73479D01*
X189724Y73466D01*
X189818Y73457D01*
X189911Y73451D01*
X190005Y73449D01*
X190005Y73448D02*
X193110Y73448D01*
X181584Y78105D02*
X181584Y87418D01*
X181972Y91299D02*
X181972Y92075D01*
X181196Y92075D01*
X181196Y91299D01*
X181972Y91299D01*
X177180Y87418D02*
X172524Y87418D01*
X175628Y92075D02*
X175628Y80433D01*
X175626Y80339D01*
X175620Y80246D01*
X175611Y80152D01*
X175598Y80060D01*
X175581Y79967D01*
X175560Y79876D01*
X175536Y79785D01*
X175508Y79696D01*
X175477Y79607D01*
X175442Y79521D01*
X175403Y79435D01*
X175361Y79351D01*
X175316Y79269D01*
X175268Y79189D01*
X175216Y79111D01*
X175161Y79034D01*
X175103Y78961D01*
X175043Y78889D01*
X174979Y78820D01*
X174913Y78754D01*
X174844Y78690D01*
X174772Y78630D01*
X174699Y78572D01*
X174622Y78517D01*
X174544Y78465D01*
X174464Y78417D01*
X174382Y78372D01*
X174298Y78330D01*
X174212Y78291D01*
X174126Y78256D01*
X174037Y78225D01*
X173948Y78197D01*
X173857Y78173D01*
X173766Y78152D01*
X173673Y78135D01*
X173581Y78122D01*
X173487Y78113D01*
X173394Y78107D01*
X173300Y78105D01*
X172524Y78105D01*
X166894Y78105D02*
X166894Y92075D01*
X166894Y87418D02*
X163013Y87418D01*
X162917Y87416D01*
X162821Y87410D01*
X162725Y87400D01*
X162630Y87386D01*
X162535Y87368D01*
X162442Y87347D01*
X162349Y87321D01*
X162257Y87292D01*
X162167Y87259D01*
X162078Y87222D01*
X161991Y87181D01*
X161905Y87137D01*
X161821Y87090D01*
X161740Y87039D01*
X161660Y86985D01*
X161583Y86927D01*
X161508Y86866D01*
X161436Y86803D01*
X161367Y86736D01*
X161300Y86667D01*
X161237Y86595D01*
X161176Y86520D01*
X161118Y86443D01*
X161064Y86363D01*
X161013Y86282D01*
X160966Y86198D01*
X160922Y86112D01*
X160881Y86025D01*
X160844Y85936D01*
X160811Y85846D01*
X160782Y85754D01*
X160756Y85662D01*
X160735Y85568D01*
X160717Y85473D01*
X160703Y85378D01*
X160693Y85282D01*
X160687Y85186D01*
X160685Y85090D01*
X160685Y78105D01*
X154118Y80433D02*
X154118Y87418D01*
X154117Y80433D02*
X154115Y80339D01*
X154109Y80246D01*
X154100Y80152D01*
X154087Y80060D01*
X154070Y79967D01*
X154049Y79876D01*
X154025Y79785D01*
X153997Y79696D01*
X153966Y79607D01*
X153931Y79521D01*
X153892Y79435D01*
X153850Y79351D01*
X153805Y79269D01*
X153757Y79189D01*
X153705Y79111D01*
X153650Y79034D01*
X153592Y78961D01*
X153532Y78889D01*
X153468Y78820D01*
X153402Y78754D01*
X153333Y78690D01*
X153261Y78630D01*
X153188Y78572D01*
X153111Y78517D01*
X153033Y78465D01*
X152953Y78417D01*
X152871Y78372D01*
X152787Y78330D01*
X152701Y78291D01*
X152615Y78256D01*
X152526Y78225D01*
X152437Y78197D01*
X152346Y78173D01*
X152255Y78152D01*
X152162Y78135D01*
X152070Y78122D01*
X151976Y78113D01*
X151883Y78107D01*
X151789Y78105D01*
X147909Y78105D01*
X147909Y87418D01*
X141271Y92075D02*
X141271Y78105D01*
X137390Y78105D01*
X137294Y78107D01*
X137198Y78113D01*
X137102Y78123D01*
X137007Y78137D01*
X136912Y78155D01*
X136819Y78176D01*
X136726Y78202D01*
X136634Y78231D01*
X136544Y78264D01*
X136455Y78301D01*
X136368Y78342D01*
X136282Y78386D01*
X136198Y78433D01*
X136117Y78484D01*
X136037Y78538D01*
X135960Y78596D01*
X135885Y78657D01*
X135813Y78720D01*
X135744Y78787D01*
X135677Y78856D01*
X135614Y78928D01*
X135553Y79003D01*
X135495Y79080D01*
X135441Y79160D01*
X135390Y79241D01*
X135343Y79325D01*
X135299Y79411D01*
X135258Y79498D01*
X135221Y79587D01*
X135188Y79677D01*
X135159Y79769D01*
X135133Y79861D01*
X135112Y79955D01*
X135094Y80050D01*
X135080Y80145D01*
X135070Y80241D01*
X135064Y80337D01*
X135062Y80433D01*
X135062Y85090D01*
X135064Y85184D01*
X135070Y85277D01*
X135079Y85371D01*
X135092Y85463D01*
X135109Y85556D01*
X135130Y85647D01*
X135154Y85738D01*
X135182Y85827D01*
X135213Y85916D01*
X135248Y86003D01*
X135287Y86088D01*
X135329Y86172D01*
X135374Y86254D01*
X135422Y86334D01*
X135474Y86412D01*
X135529Y86489D01*
X135587Y86562D01*
X135647Y86634D01*
X135711Y86703D01*
X135777Y86769D01*
X135846Y86833D01*
X135918Y86893D01*
X135991Y86951D01*
X136068Y87006D01*
X136146Y87058D01*
X136226Y87106D01*
X136308Y87151D01*
X136392Y87193D01*
X136478Y87232D01*
X136565Y87267D01*
X136653Y87298D01*
X136742Y87326D01*
X136833Y87350D01*
X136924Y87371D01*
X137017Y87388D01*
X137109Y87401D01*
X137203Y87410D01*
X137296Y87416D01*
X137390Y87418D01*
X141271Y87418D01*
X129956Y78881D02*
X129956Y78105D01*
X129956Y78881D02*
X129180Y78881D01*
X129180Y78105D01*
X129956Y78105D01*
X124093Y78105D02*
X124093Y87418D01*
X124481Y91299D02*
X124481Y92075D01*
X123704Y92075D01*
X123704Y91299D01*
X124481Y91299D01*
X118528Y84314D02*
X118528Y81209D01*
X118527Y84314D02*
X118525Y84425D01*
X118519Y84535D01*
X118509Y84646D01*
X118495Y84756D01*
X118478Y84865D01*
X118456Y84974D01*
X118431Y85082D01*
X118401Y85188D01*
X118368Y85294D01*
X118331Y85399D01*
X118291Y85502D01*
X118246Y85603D01*
X118199Y85703D01*
X118147Y85802D01*
X118092Y85898D01*
X118034Y85992D01*
X117973Y86084D01*
X117908Y86174D01*
X117840Y86262D01*
X117769Y86347D01*
X117695Y86429D01*
X117618Y86509D01*
X117538Y86586D01*
X117456Y86660D01*
X117371Y86731D01*
X117283Y86799D01*
X117193Y86864D01*
X117101Y86925D01*
X117007Y86983D01*
X116911Y87038D01*
X116812Y87090D01*
X116712Y87137D01*
X116611Y87182D01*
X116508Y87222D01*
X116403Y87259D01*
X116297Y87292D01*
X116191Y87322D01*
X116083Y87347D01*
X115974Y87369D01*
X115865Y87386D01*
X115755Y87400D01*
X115644Y87410D01*
X115534Y87416D01*
X115423Y87418D01*
X115312Y87416D01*
X115202Y87410D01*
X115091Y87400D01*
X114981Y87386D01*
X114872Y87369D01*
X114763Y87347D01*
X114655Y87322D01*
X114549Y87292D01*
X114443Y87259D01*
X114338Y87222D01*
X114235Y87182D01*
X114134Y87137D01*
X114034Y87090D01*
X113935Y87038D01*
X113839Y86983D01*
X113745Y86925D01*
X113653Y86864D01*
X113563Y86799D01*
X113475Y86731D01*
X113390Y86660D01*
X113308Y86586D01*
X113228Y86509D01*
X113151Y86429D01*
X113077Y86347D01*
X113006Y86262D01*
X112938Y86174D01*
X112873Y86084D01*
X112812Y85992D01*
X112754Y85898D01*
X112699Y85802D01*
X112647Y85703D01*
X112600Y85603D01*
X112555Y85502D01*
X112515Y85399D01*
X112478Y85294D01*
X112445Y85188D01*
X112415Y85082D01*
X112390Y84974D01*
X112368Y84865D01*
X112351Y84756D01*
X112337Y84646D01*
X112327Y84535D01*
X112321Y84425D01*
X112319Y84314D01*
X112319Y81209D01*
X112321Y81098D01*
X112327Y80988D01*
X112337Y80877D01*
X112351Y80767D01*
X112368Y80658D01*
X112390Y80549D01*
X112415Y80441D01*
X112445Y80335D01*
X112478Y80229D01*
X112515Y80124D01*
X112555Y80021D01*
X112600Y79920D01*
X112647Y79820D01*
X112699Y79721D01*
X112754Y79625D01*
X112812Y79531D01*
X112873Y79439D01*
X112938Y79349D01*
X113006Y79261D01*
X113077Y79176D01*
X113151Y79094D01*
X113228Y79014D01*
X113308Y78937D01*
X113390Y78863D01*
X113475Y78792D01*
X113563Y78724D01*
X113653Y78659D01*
X113745Y78598D01*
X113839Y78540D01*
X113935Y78485D01*
X114034Y78433D01*
X114134Y78386D01*
X114235Y78341D01*
X114338Y78301D01*
X114443Y78264D01*
X114549Y78231D01*
X114655Y78201D01*
X114763Y78176D01*
X114872Y78154D01*
X114981Y78137D01*
X115091Y78123D01*
X115202Y78113D01*
X115312Y78107D01*
X115423Y78105D01*
X115534Y78107D01*
X115644Y78113D01*
X115755Y78123D01*
X115865Y78137D01*
X115974Y78154D01*
X116083Y78176D01*
X116191Y78201D01*
X116297Y78231D01*
X116403Y78264D01*
X116508Y78301D01*
X116611Y78341D01*
X116712Y78386D01*
X116812Y78433D01*
X116911Y78485D01*
X117007Y78540D01*
X117101Y78598D01*
X117193Y78659D01*
X117283Y78724D01*
X117371Y78792D01*
X117456Y78863D01*
X117538Y78937D01*
X117618Y79014D01*
X117695Y79094D01*
X117769Y79176D01*
X117840Y79261D01*
X117908Y79349D01*
X117973Y79439D01*
X118034Y79531D01*
X118092Y79625D01*
X118147Y79721D01*
X118199Y79820D01*
X118246Y79920D01*
X118291Y80021D01*
X118331Y80124D01*
X118368Y80229D01*
X118401Y80335D01*
X118431Y80441D01*
X118456Y80549D01*
X118478Y80658D01*
X118495Y80767D01*
X118509Y80877D01*
X118519Y80988D01*
X118525Y81098D01*
X118527Y81209D01*
X200028Y515434D02*
X200028Y523689D01*
X200028Y515434D02*
X200026Y515323D01*
X200020Y515213D01*
X200011Y515102D01*
X199997Y514992D01*
X199980Y514883D01*
X199959Y514774D01*
X199934Y514666D01*
X199905Y514559D01*
X199873Y514453D01*
X199837Y514348D01*
X199797Y514245D01*
X199754Y514143D01*
X199707Y514042D01*
X199656Y513943D01*
X199603Y513846D01*
X199546Y513752D01*
X199485Y513659D01*
X199422Y513568D01*
X199355Y513479D01*
X199285Y513393D01*
X199212Y513310D01*
X199137Y513228D01*
X199059Y513150D01*
X198977Y513075D01*
X198894Y513002D01*
X198808Y512932D01*
X198719Y512865D01*
X198628Y512802D01*
X198535Y512741D01*
X198440Y512684D01*
X198344Y512631D01*
X198245Y512580D01*
X198144Y512533D01*
X198042Y512490D01*
X197939Y512450D01*
X197834Y512414D01*
X197728Y512382D01*
X197621Y512353D01*
X197513Y512328D01*
X197404Y512307D01*
X197295Y512290D01*
X197185Y512276D01*
X197074Y512267D01*
X196964Y512261D01*
X196853Y512259D01*
X196742Y512261D01*
X196632Y512267D01*
X196521Y512276D01*
X196411Y512290D01*
X196302Y512307D01*
X196193Y512328D01*
X196085Y512353D01*
X195978Y512382D01*
X195872Y512414D01*
X195767Y512450D01*
X195664Y512490D01*
X195562Y512533D01*
X195461Y512580D01*
X195362Y512631D01*
X195266Y512684D01*
X195171Y512741D01*
X195078Y512802D01*
X194987Y512865D01*
X194898Y512932D01*
X194812Y513002D01*
X194729Y513075D01*
X194647Y513150D01*
X194569Y513228D01*
X194494Y513310D01*
X194421Y513393D01*
X194351Y513479D01*
X194284Y513568D01*
X194221Y513659D01*
X194160Y513752D01*
X194103Y513847D01*
X194050Y513943D01*
X193999Y514042D01*
X193952Y514143D01*
X193909Y514245D01*
X193869Y514348D01*
X193833Y514453D01*
X193801Y514559D01*
X193772Y514666D01*
X193747Y514774D01*
X193726Y514883D01*
X193709Y514992D01*
X193695Y515102D01*
X193686Y515213D01*
X193680Y515323D01*
X193678Y515434D01*
X193678Y523689D01*
X188217Y521149D02*
X185042Y523689D01*
X185042Y512259D01*
X188217Y512259D02*
X181867Y512259D01*
D11*
X78930Y163830D02*
X78930Y151130D01*
X81740Y497840D02*
X81740Y510540D01*
D12*
X292100Y375412D02*
X386080Y375412D01*
X389890Y410718D02*
X389888Y410840D01*
X389882Y410962D01*
X389872Y411084D01*
X389859Y411205D01*
X389841Y411326D01*
X389820Y411446D01*
X389794Y411566D01*
X389765Y411684D01*
X389733Y411802D01*
X389696Y411919D01*
X389656Y412034D01*
X389612Y412148D01*
X389564Y412260D01*
X389513Y412371D01*
X389458Y412480D01*
X389400Y412588D01*
X389338Y412693D01*
X389273Y412796D01*
X389205Y412898D01*
X389133Y412997D01*
X389059Y413093D01*
X388981Y413188D01*
X388900Y413279D01*
X388817Y413369D01*
X388731Y413455D01*
X388641Y413538D01*
X388550Y413619D01*
X388455Y413697D01*
X388359Y413771D01*
X388260Y413843D01*
X388158Y413911D01*
X388055Y413976D01*
X387950Y414038D01*
X387842Y414096D01*
X387733Y414151D01*
X387622Y414202D01*
X387510Y414250D01*
X387396Y414294D01*
X387281Y414334D01*
X387164Y414371D01*
X387046Y414403D01*
X386928Y414432D01*
X386808Y414458D01*
X386688Y414479D01*
X386567Y414497D01*
X386446Y414510D01*
X386324Y414520D01*
X386202Y414526D01*
X386080Y414528D01*
X292100Y375412D02*
X291978Y375414D01*
X291856Y375420D01*
X291734Y375430D01*
X291613Y375443D01*
X291492Y375461D01*
X291372Y375482D01*
X291252Y375508D01*
X291134Y375537D01*
X291016Y375569D01*
X290899Y375606D01*
X290784Y375646D01*
X290670Y375690D01*
X290558Y375738D01*
X290447Y375789D01*
X290338Y375844D01*
X290230Y375902D01*
X290125Y375964D01*
X290022Y376029D01*
X289920Y376097D01*
X289821Y376169D01*
X289725Y376243D01*
X289630Y376321D01*
X289539Y376402D01*
X289449Y376485D01*
X289363Y376571D01*
X289280Y376661D01*
X289199Y376752D01*
X289121Y376847D01*
X289047Y376943D01*
X288975Y377042D01*
X288907Y377144D01*
X288842Y377247D01*
X288780Y377352D01*
X288722Y377460D01*
X288667Y377569D01*
X288616Y377680D01*
X288568Y377792D01*
X288524Y377906D01*
X288484Y378021D01*
X288447Y378138D01*
X288415Y378256D01*
X288386Y378374D01*
X288360Y378494D01*
X288339Y378614D01*
X288321Y378735D01*
X288308Y378856D01*
X288298Y378978D01*
X288292Y379100D01*
X288290Y379222D01*
X386080Y375412D02*
X386202Y375414D01*
X386324Y375420D01*
X386446Y375430D01*
X386567Y375443D01*
X386688Y375461D01*
X386808Y375482D01*
X386928Y375508D01*
X387046Y375537D01*
X387164Y375569D01*
X387281Y375606D01*
X387396Y375646D01*
X387510Y375690D01*
X387622Y375738D01*
X387733Y375789D01*
X387842Y375844D01*
X387950Y375902D01*
X388055Y375964D01*
X388158Y376029D01*
X388260Y376097D01*
X388359Y376169D01*
X388455Y376243D01*
X388550Y376321D01*
X388641Y376402D01*
X388731Y376485D01*
X388817Y376571D01*
X388900Y376661D01*
X388981Y376752D01*
X389059Y376847D01*
X389133Y376943D01*
X389205Y377042D01*
X389273Y377144D01*
X389338Y377247D01*
X389400Y377352D01*
X389458Y377460D01*
X389513Y377569D01*
X389564Y377680D01*
X389612Y377792D01*
X389656Y377906D01*
X389696Y378021D01*
X389733Y378138D01*
X389765Y378256D01*
X389794Y378374D01*
X389820Y378494D01*
X389841Y378614D01*
X389859Y378735D01*
X389872Y378856D01*
X389882Y378978D01*
X389888Y379100D01*
X389890Y379222D01*
X292100Y414528D02*
X291978Y414526D01*
X291856Y414520D01*
X291734Y414510D01*
X291613Y414497D01*
X291492Y414479D01*
X291372Y414458D01*
X291252Y414432D01*
X291134Y414403D01*
X291016Y414371D01*
X290899Y414334D01*
X290784Y414294D01*
X290670Y414250D01*
X290558Y414202D01*
X290447Y414151D01*
X290338Y414096D01*
X290230Y414038D01*
X290125Y413976D01*
X290022Y413911D01*
X289920Y413843D01*
X289821Y413771D01*
X289725Y413697D01*
X289630Y413619D01*
X289539Y413538D01*
X289449Y413455D01*
X289363Y413369D01*
X289280Y413279D01*
X289199Y413188D01*
X289121Y413093D01*
X289047Y412997D01*
X288975Y412898D01*
X288907Y412796D01*
X288842Y412693D01*
X288780Y412588D01*
X288722Y412480D01*
X288667Y412371D01*
X288616Y412260D01*
X288568Y412148D01*
X288524Y412034D01*
X288484Y411919D01*
X288447Y411802D01*
X288415Y411684D01*
X288386Y411566D01*
X288360Y411446D01*
X288339Y411326D01*
X288321Y411205D01*
X288308Y411084D01*
X288298Y410962D01*
X288292Y410840D01*
X288290Y410718D01*
X292100Y414528D02*
X386080Y414528D01*
X389890Y410718D02*
X389890Y379222D01*
X288290Y379222D02*
X288290Y389890D01*
X288290Y400050D01*
X288290Y410718D01*
X288290Y400050D02*
X288431Y400048D01*
X288572Y400042D01*
X288713Y400032D01*
X288854Y400019D01*
X288994Y400001D01*
X289133Y399979D01*
X289272Y399954D01*
X289411Y399925D01*
X289548Y399892D01*
X289684Y399855D01*
X289819Y399814D01*
X289954Y399770D01*
X290086Y399722D01*
X290218Y399670D01*
X290348Y399615D01*
X290476Y399556D01*
X290603Y399493D01*
X290727Y399427D01*
X290850Y399358D01*
X290971Y399285D01*
X291090Y399209D01*
X291207Y399129D01*
X291321Y399046D01*
X291434Y398961D01*
X291543Y398872D01*
X291651Y398780D01*
X291755Y398685D01*
X291857Y398587D01*
X291956Y398486D01*
X292053Y398383D01*
X292146Y398277D01*
X292236Y398169D01*
X292324Y398058D01*
X292408Y397945D01*
X292489Y397829D01*
X292567Y397711D01*
X292642Y397591D01*
X292713Y397469D01*
X292781Y397345D01*
X292845Y397219D01*
X292906Y397092D01*
X292963Y396963D01*
X293016Y396832D01*
X293066Y396700D01*
X293113Y396567D01*
X293155Y396432D01*
X293194Y396296D01*
X293229Y396159D01*
X293260Y396022D01*
X293287Y395883D01*
X293311Y395744D01*
X293330Y395604D01*
X293346Y395464D01*
X293358Y395323D01*
X293366Y395182D01*
X293370Y395041D01*
X293370Y394899D01*
X293366Y394758D01*
X293358Y394617D01*
X293346Y394476D01*
X293330Y394336D01*
X293311Y394196D01*
X293287Y394057D01*
X293260Y393918D01*
X293229Y393781D01*
X293194Y393644D01*
X293155Y393508D01*
X293113Y393373D01*
X293066Y393240D01*
X293016Y393108D01*
X292963Y392977D01*
X292906Y392848D01*
X292845Y392721D01*
X292781Y392595D01*
X292713Y392471D01*
X292642Y392349D01*
X292567Y392229D01*
X292489Y392111D01*
X292408Y391995D01*
X292324Y391882D01*
X292236Y391771D01*
X292146Y391663D01*
X292053Y391557D01*
X291956Y391454D01*
X291857Y391353D01*
X291755Y391255D01*
X291651Y391160D01*
X291543Y391068D01*
X291434Y390979D01*
X291321Y390894D01*
X291207Y390811D01*
X291090Y390731D01*
X290971Y390655D01*
X290850Y390582D01*
X290727Y390513D01*
X290603Y390447D01*
X290476Y390384D01*
X290348Y390325D01*
X290218Y390270D01*
X290086Y390218D01*
X289954Y390170D01*
X289819Y390126D01*
X289684Y390085D01*
X289548Y390048D01*
X289411Y390015D01*
X289272Y389986D01*
X289133Y389961D01*
X288994Y389939D01*
X288854Y389921D01*
X288713Y389908D01*
X288572Y389898D01*
X288431Y389892D01*
X288290Y389890D01*
D13*
X288290Y410972D02*
X389890Y410972D01*
D14*
X332740Y369697D03*
X294640Y420243D03*
X307340Y420243D03*
X320040Y419989D03*
X332740Y420243D03*
X320040Y369697D03*
X307340Y369697D03*
X294640Y369697D03*
X345440Y420243D03*
X358140Y420243D03*
X370840Y420243D03*
X383540Y420243D03*
X345440Y369697D03*
X358140Y369697D03*
X370840Y369697D03*
X383540Y369697D03*
D15*
X282829Y386563D02*
X275971Y386563D01*
X275971Y385801D02*
X275971Y387325D01*
X282829Y387325D02*
X282829Y385801D01*
X275971Y391646D02*
X275971Y393170D01*
X275971Y391646D02*
X275973Y391569D01*
X275979Y391492D01*
X275989Y391415D01*
X276002Y391339D01*
X276020Y391264D01*
X276041Y391190D01*
X276066Y391117D01*
X276095Y391045D01*
X276127Y390975D01*
X276162Y390906D01*
X276202Y390840D01*
X276244Y390775D01*
X276290Y390713D01*
X276339Y390653D01*
X276390Y390596D01*
X276445Y390541D01*
X276502Y390490D01*
X276562Y390441D01*
X276624Y390395D01*
X276689Y390353D01*
X276755Y390313D01*
X276824Y390278D01*
X276894Y390246D01*
X276966Y390217D01*
X277039Y390192D01*
X277113Y390171D01*
X277188Y390153D01*
X277264Y390140D01*
X277341Y390130D01*
X277418Y390124D01*
X277495Y390122D01*
X281305Y390122D01*
X281382Y390124D01*
X281459Y390130D01*
X281536Y390140D01*
X281612Y390153D01*
X281687Y390171D01*
X281761Y390192D01*
X281834Y390217D01*
X281906Y390246D01*
X281976Y390278D01*
X282045Y390313D01*
X282111Y390353D01*
X282176Y390395D01*
X282238Y390441D01*
X282298Y390490D01*
X282355Y390541D01*
X282410Y390596D01*
X282461Y390653D01*
X282510Y390713D01*
X282556Y390775D01*
X282598Y390840D01*
X282638Y390906D01*
X282673Y390975D01*
X282705Y391045D01*
X282734Y391117D01*
X282759Y391190D01*
X282780Y391264D01*
X282798Y391339D01*
X282811Y391415D01*
X282821Y391492D01*
X282827Y391569D01*
X282829Y391646D01*
X282829Y393170D01*
X282830Y397955D02*
X282828Y398037D01*
X282822Y398118D01*
X282813Y398199D01*
X282799Y398280D01*
X282782Y398359D01*
X282761Y398438D01*
X282736Y398516D01*
X282707Y398592D01*
X282675Y398667D01*
X282639Y398741D01*
X282600Y398813D01*
X282558Y398882D01*
X282512Y398950D01*
X282463Y399015D01*
X282411Y399078D01*
X282356Y399138D01*
X282298Y399196D01*
X282238Y399251D01*
X282175Y399303D01*
X282110Y399352D01*
X282042Y399398D01*
X281973Y399440D01*
X281901Y399479D01*
X281827Y399515D01*
X281752Y399547D01*
X281676Y399576D01*
X281598Y399601D01*
X281519Y399622D01*
X281440Y399639D01*
X281359Y399653D01*
X281278Y399662D01*
X281197Y399668D01*
X281115Y399670D01*
X282829Y397955D02*
X282827Y397863D01*
X282821Y397771D01*
X282812Y397679D01*
X282798Y397587D01*
X282781Y397497D01*
X282760Y397407D01*
X282735Y397318D01*
X282706Y397230D01*
X282674Y397143D01*
X282638Y397058D01*
X282599Y396975D01*
X282556Y396893D01*
X282510Y396813D01*
X282460Y396735D01*
X282408Y396659D01*
X282352Y396586D01*
X282293Y396515D01*
X282231Y396446D01*
X282166Y396380D01*
X282099Y396317D01*
X282029Y396257D01*
X281957Y396199D01*
X281882Y396145D01*
X281805Y396094D01*
X281726Y396046D01*
X281645Y396002D01*
X281562Y395961D01*
X281478Y395923D01*
X281392Y395889D01*
X281305Y395859D01*
X279781Y399098D02*
X279840Y399157D01*
X279901Y399213D01*
X279964Y399266D01*
X280030Y399317D01*
X280098Y399364D01*
X280168Y399408D01*
X280240Y399449D01*
X280314Y399487D01*
X280389Y399521D01*
X280466Y399552D01*
X280544Y399579D01*
X280624Y399603D01*
X280704Y399624D01*
X280785Y399640D01*
X280867Y399653D01*
X280949Y399663D01*
X281032Y399668D01*
X281115Y399670D01*
X279781Y399098D02*
X275971Y395859D01*
X275971Y399669D01*
D12*
X360770Y346410D02*
X365670Y346410D01*
X365670Y341930D02*
X360770Y341930D01*
D16*
X367260Y344122D03*
X359132Y344122D03*
D13*
X372211Y337566D02*
X372211Y330454D01*
X372211Y337566D02*
X370235Y337566D01*
X370148Y337564D01*
X370060Y337558D01*
X369973Y337549D01*
X369887Y337535D01*
X369801Y337518D01*
X369717Y337497D01*
X369633Y337472D01*
X369550Y337443D01*
X369469Y337411D01*
X369389Y337376D01*
X369311Y337337D01*
X369234Y337294D01*
X369160Y337248D01*
X369088Y337199D01*
X369018Y337147D01*
X368950Y337091D01*
X368885Y337033D01*
X368822Y336972D01*
X368763Y336908D01*
X368706Y336841D01*
X368652Y336773D01*
X368601Y336701D01*
X368554Y336628D01*
X368509Y336553D01*
X368468Y336475D01*
X368431Y336396D01*
X368397Y336316D01*
X368367Y336234D01*
X368340Y336151D01*
X368317Y336066D01*
X368298Y335981D01*
X368283Y335895D01*
X368271Y335808D01*
X368263Y335721D01*
X368259Y335634D01*
X368259Y335546D01*
X368263Y335459D01*
X368271Y335372D01*
X368283Y335285D01*
X368298Y335199D01*
X368317Y335114D01*
X368340Y335029D01*
X368367Y334946D01*
X368397Y334864D01*
X368431Y334784D01*
X368468Y334705D01*
X368509Y334627D01*
X368554Y334552D01*
X368601Y334479D01*
X368652Y334407D01*
X368706Y334339D01*
X368763Y334272D01*
X368822Y334208D01*
X368885Y334147D01*
X368950Y334089D01*
X369018Y334033D01*
X369088Y333981D01*
X369160Y333932D01*
X369234Y333886D01*
X369311Y333843D01*
X369389Y333804D01*
X369469Y333769D01*
X369550Y333737D01*
X369633Y333708D01*
X369717Y333683D01*
X369801Y333662D01*
X369887Y333645D01*
X369973Y333631D01*
X370060Y333622D01*
X370148Y333616D01*
X370235Y333614D01*
X370235Y333615D02*
X372211Y333615D01*
X369840Y333615D02*
X368259Y330454D01*
X361442Y335788D02*
X361444Y335870D01*
X361450Y335952D01*
X361459Y336034D01*
X361472Y336115D01*
X361489Y336195D01*
X361510Y336275D01*
X361534Y336353D01*
X361562Y336430D01*
X361593Y336506D01*
X361628Y336581D01*
X361667Y336653D01*
X361708Y336724D01*
X361753Y336793D01*
X361801Y336859D01*
X361852Y336924D01*
X361906Y336986D01*
X361963Y337045D01*
X362022Y337102D01*
X362084Y337156D01*
X362149Y337207D01*
X362215Y337255D01*
X362284Y337300D01*
X362355Y337341D01*
X362427Y337380D01*
X362502Y337415D01*
X362578Y337446D01*
X362655Y337474D01*
X362733Y337498D01*
X362813Y337519D01*
X362893Y337536D01*
X362974Y337549D01*
X363056Y337558D01*
X363138Y337564D01*
X363220Y337566D01*
X363313Y337564D01*
X363405Y337558D01*
X363497Y337549D01*
X363589Y337536D01*
X363680Y337519D01*
X363770Y337499D01*
X363860Y337475D01*
X363948Y337447D01*
X364036Y337415D01*
X364121Y337381D01*
X364206Y337342D01*
X364288Y337301D01*
X364369Y337256D01*
X364449Y337207D01*
X364526Y337156D01*
X364601Y337102D01*
X364673Y337044D01*
X364744Y336984D01*
X364811Y336920D01*
X364876Y336855D01*
X364939Y336786D01*
X364998Y336715D01*
X365055Y336642D01*
X365109Y336566D01*
X365159Y336489D01*
X365207Y336409D01*
X365251Y336327D01*
X365291Y336244D01*
X365329Y336159D01*
X365363Y336073D01*
X365393Y335986D01*
X362035Y334405D02*
X361974Y334466D01*
X361916Y334529D01*
X361861Y334595D01*
X361808Y334663D01*
X361759Y334734D01*
X361714Y334806D01*
X361671Y334881D01*
X361632Y334957D01*
X361596Y335036D01*
X361564Y335115D01*
X361536Y335196D01*
X361511Y335279D01*
X361490Y335362D01*
X361473Y335446D01*
X361459Y335531D01*
X361450Y335616D01*
X361444Y335702D01*
X361442Y335788D01*
X362035Y334405D02*
X365393Y330454D01*
X361442Y330454D01*
X358535Y332034D02*
X356955Y337566D01*
X358535Y332034D02*
X354584Y332034D01*
X355769Y333615D02*
X355769Y330454D01*
D17*
X286604Y509888D03*
D18*
X288990Y502600D02*
X289104Y502600D01*
X288990Y502600D02*
X288990Y462600D01*
X289104Y462600D01*
X376376Y502600D02*
X376490Y502600D01*
X376490Y462600D01*
X376376Y462600D01*
X376490Y462600D02*
X376490Y502600D01*
X288990Y502600D01*
X288990Y462600D01*
X376490Y462600D01*
D13*
X283850Y476407D02*
X276738Y476407D01*
X276738Y477197D02*
X276738Y475616D01*
X283850Y475616D02*
X283850Y477197D01*
X276738Y481480D02*
X276738Y483060D01*
X276738Y481480D02*
X276740Y481402D01*
X276746Y481325D01*
X276755Y481248D01*
X276768Y481172D01*
X276785Y481096D01*
X276806Y481021D01*
X276830Y480948D01*
X276858Y480875D01*
X276890Y480804D01*
X276925Y480735D01*
X276963Y480668D01*
X277004Y480602D01*
X277049Y480539D01*
X277097Y480478D01*
X277147Y480419D01*
X277201Y480363D01*
X277257Y480309D01*
X277316Y480259D01*
X277377Y480211D01*
X277440Y480166D01*
X277506Y480125D01*
X277573Y480087D01*
X277642Y480052D01*
X277713Y480020D01*
X277786Y479992D01*
X277859Y479968D01*
X277934Y479947D01*
X278010Y479930D01*
X278086Y479917D01*
X278163Y479908D01*
X278240Y479902D01*
X278318Y479900D01*
X278318Y479899D02*
X282270Y479899D01*
X282270Y479900D02*
X282348Y479902D01*
X282425Y479908D01*
X282502Y479917D01*
X282578Y479930D01*
X282654Y479947D01*
X282729Y479968D01*
X282802Y479992D01*
X282875Y480020D01*
X282946Y480052D01*
X283015Y480087D01*
X283082Y480125D01*
X283148Y480166D01*
X283211Y480211D01*
X283272Y480259D01*
X283331Y480309D01*
X283387Y480363D01*
X283441Y480419D01*
X283491Y480478D01*
X283539Y480539D01*
X283584Y480602D01*
X283625Y480668D01*
X283663Y480735D01*
X283698Y480804D01*
X283730Y480875D01*
X283758Y480948D01*
X283782Y481021D01*
X283803Y481096D01*
X283820Y481172D01*
X283833Y481248D01*
X283842Y481325D01*
X283848Y481402D01*
X283850Y481480D01*
X283850Y483060D01*
X283850Y487213D02*
X278318Y485632D01*
X278318Y489584D01*
X276738Y488398D02*
X279899Y488398D01*
D11*
X273050Y456740D02*
X260350Y456740D01*
D12*
X265176Y494030D02*
X247904Y494030D01*
X267716Y476250D02*
X267714Y476150D01*
X267708Y476051D01*
X267698Y475951D01*
X267685Y475853D01*
X267667Y475754D01*
X267646Y475657D01*
X267621Y475561D01*
X267592Y475465D01*
X267559Y475371D01*
X267523Y475278D01*
X267483Y475187D01*
X267439Y475097D01*
X267392Y475009D01*
X267342Y474923D01*
X267288Y474839D01*
X267231Y474757D01*
X267171Y474678D01*
X267107Y474600D01*
X267041Y474526D01*
X266972Y474454D01*
X266900Y474385D01*
X266826Y474319D01*
X266748Y474255D01*
X266669Y474195D01*
X266587Y474138D01*
X266503Y474084D01*
X266417Y474034D01*
X266329Y473987D01*
X266239Y473943D01*
X266148Y473903D01*
X266055Y473867D01*
X265961Y473834D01*
X265865Y473805D01*
X265769Y473780D01*
X265672Y473759D01*
X265573Y473741D01*
X265475Y473728D01*
X265375Y473718D01*
X265276Y473712D01*
X265176Y473710D01*
X247904Y473710D02*
X247804Y473712D01*
X247705Y473718D01*
X247605Y473728D01*
X247507Y473741D01*
X247408Y473759D01*
X247311Y473780D01*
X247215Y473805D01*
X247119Y473834D01*
X247025Y473867D01*
X246932Y473903D01*
X246841Y473943D01*
X246751Y473987D01*
X246663Y474034D01*
X246577Y474084D01*
X246493Y474138D01*
X246411Y474195D01*
X246332Y474255D01*
X246254Y474319D01*
X246180Y474385D01*
X246108Y474454D01*
X246039Y474526D01*
X245973Y474600D01*
X245909Y474678D01*
X245849Y474757D01*
X245792Y474839D01*
X245738Y474923D01*
X245688Y475009D01*
X245641Y475097D01*
X245597Y475187D01*
X245557Y475278D01*
X245521Y475371D01*
X245488Y475465D01*
X245459Y475561D01*
X245434Y475657D01*
X245413Y475754D01*
X245395Y475853D01*
X245382Y475951D01*
X245372Y476051D01*
X245366Y476150D01*
X245364Y476250D01*
X245364Y491490D02*
X245366Y491590D01*
X245372Y491689D01*
X245382Y491789D01*
X245395Y491887D01*
X245413Y491986D01*
X245434Y492083D01*
X245459Y492179D01*
X245488Y492275D01*
X245521Y492369D01*
X245557Y492462D01*
X245597Y492553D01*
X245641Y492643D01*
X245688Y492731D01*
X245738Y492817D01*
X245792Y492901D01*
X245849Y492983D01*
X245909Y493062D01*
X245973Y493140D01*
X246039Y493214D01*
X246108Y493286D01*
X246180Y493355D01*
X246254Y493421D01*
X246332Y493485D01*
X246411Y493545D01*
X246493Y493602D01*
X246577Y493656D01*
X246663Y493706D01*
X246751Y493753D01*
X246841Y493797D01*
X246932Y493837D01*
X247025Y493873D01*
X247119Y493906D01*
X247215Y493935D01*
X247311Y493960D01*
X247408Y493981D01*
X247507Y493999D01*
X247605Y494012D01*
X247705Y494022D01*
X247804Y494028D01*
X247904Y494030D01*
X265176Y494030D02*
X265276Y494028D01*
X265375Y494022D01*
X265475Y494012D01*
X265573Y493999D01*
X265672Y493981D01*
X265769Y493960D01*
X265865Y493935D01*
X265961Y493906D01*
X266055Y493873D01*
X266148Y493837D01*
X266239Y493797D01*
X266329Y493753D01*
X266417Y493706D01*
X266503Y493656D01*
X266587Y493602D01*
X266669Y493545D01*
X266748Y493485D01*
X266826Y493421D01*
X266900Y493355D01*
X266972Y493286D01*
X267041Y493214D01*
X267107Y493140D01*
X267171Y493062D01*
X267231Y492983D01*
X267288Y492901D01*
X267342Y492817D01*
X267392Y492731D01*
X267439Y492643D01*
X267483Y492553D01*
X267523Y492462D01*
X267559Y492369D01*
X267592Y492275D01*
X267621Y492179D01*
X267646Y492083D01*
X267667Y491986D01*
X267685Y491887D01*
X267698Y491789D01*
X267708Y491689D01*
X267714Y491590D01*
X267716Y491490D01*
X267716Y476250D01*
X245364Y476250D02*
X245364Y491490D01*
X247904Y473710D02*
X265176Y473710D01*
D10*
X261293Y471805D02*
X261293Y468051D01*
X261294Y468051D02*
X261296Y467986D01*
X261302Y467922D01*
X261312Y467858D01*
X261325Y467794D01*
X261343Y467732D01*
X261364Y467671D01*
X261388Y467611D01*
X261417Y467553D01*
X261449Y467496D01*
X261484Y467442D01*
X261522Y467390D01*
X261564Y467340D01*
X261608Y467293D01*
X261655Y467249D01*
X261705Y467207D01*
X261757Y467169D01*
X261811Y467134D01*
X261868Y467102D01*
X261926Y467073D01*
X261986Y467049D01*
X262047Y467028D01*
X262109Y467010D01*
X262173Y466997D01*
X262237Y466987D01*
X262301Y466981D01*
X262366Y466979D01*
X262902Y466979D01*
X258016Y466979D02*
X258016Y471805D01*
X256676Y471805D01*
X256605Y471803D01*
X256533Y471797D01*
X256463Y471788D01*
X256393Y471775D01*
X256323Y471758D01*
X256255Y471737D01*
X256188Y471713D01*
X256122Y471685D01*
X256058Y471654D01*
X255995Y471619D01*
X255935Y471581D01*
X255876Y471540D01*
X255820Y471496D01*
X255766Y471449D01*
X255715Y471400D01*
X255667Y471347D01*
X255621Y471292D01*
X255579Y471235D01*
X255539Y471175D01*
X255503Y471114D01*
X255470Y471050D01*
X255441Y470985D01*
X255415Y470919D01*
X255392Y470851D01*
X255373Y470782D01*
X255358Y470712D01*
X255347Y470642D01*
X255339Y470571D01*
X255335Y470500D01*
X255335Y470428D01*
X255339Y470357D01*
X255347Y470286D01*
X255358Y470216D01*
X255373Y470146D01*
X255392Y470077D01*
X255415Y470009D01*
X255441Y469943D01*
X255470Y469878D01*
X255503Y469814D01*
X255539Y469753D01*
X255579Y469693D01*
X255621Y469636D01*
X255667Y469581D01*
X255715Y469528D01*
X255766Y469479D01*
X255820Y469432D01*
X255876Y469388D01*
X255935Y469347D01*
X255995Y469309D01*
X256058Y469274D01*
X256122Y469243D01*
X256188Y469215D01*
X256255Y469191D01*
X256323Y469170D01*
X256393Y469153D01*
X256463Y469140D01*
X256533Y469131D01*
X256605Y469125D01*
X256676Y469123D01*
X256676Y469124D02*
X258016Y469124D01*
X252859Y469660D02*
X251250Y469660D01*
X251185Y469658D01*
X251121Y469652D01*
X251057Y469642D01*
X250993Y469629D01*
X250931Y469611D01*
X250870Y469590D01*
X250810Y469566D01*
X250752Y469537D01*
X250695Y469505D01*
X250641Y469470D01*
X250589Y469432D01*
X250539Y469390D01*
X250492Y469346D01*
X250448Y469299D01*
X250406Y469249D01*
X250368Y469197D01*
X250333Y469143D01*
X250301Y469086D01*
X250272Y469028D01*
X250248Y468968D01*
X250227Y468907D01*
X250209Y468845D01*
X250196Y468781D01*
X250186Y468717D01*
X250180Y468653D01*
X250178Y468588D01*
X250178Y468320D01*
X250180Y468249D01*
X250186Y468177D01*
X250195Y468107D01*
X250208Y468037D01*
X250225Y467967D01*
X250246Y467899D01*
X250270Y467832D01*
X250298Y467766D01*
X250329Y467702D01*
X250364Y467639D01*
X250402Y467579D01*
X250443Y467520D01*
X250487Y467464D01*
X250534Y467410D01*
X250583Y467359D01*
X250636Y467311D01*
X250691Y467265D01*
X250748Y467223D01*
X250808Y467183D01*
X250869Y467147D01*
X250933Y467114D01*
X250998Y467085D01*
X251064Y467059D01*
X251132Y467036D01*
X251201Y467017D01*
X251271Y467002D01*
X251341Y466991D01*
X251412Y466983D01*
X251483Y466979D01*
X251555Y466979D01*
X251626Y466983D01*
X251697Y466991D01*
X251767Y467002D01*
X251837Y467017D01*
X251906Y467036D01*
X251974Y467059D01*
X252040Y467085D01*
X252105Y467114D01*
X252169Y467147D01*
X252230Y467183D01*
X252290Y467223D01*
X252347Y467265D01*
X252402Y467311D01*
X252455Y467359D01*
X252504Y467410D01*
X252551Y467464D01*
X252595Y467520D01*
X252636Y467579D01*
X252674Y467639D01*
X252709Y467702D01*
X252740Y467766D01*
X252768Y467832D01*
X252792Y467899D01*
X252813Y467967D01*
X252830Y468037D01*
X252843Y468107D01*
X252852Y468177D01*
X252858Y468249D01*
X252860Y468320D01*
X252859Y468320D02*
X252859Y469660D01*
X252857Y469751D01*
X252851Y469842D01*
X252842Y469932D01*
X252828Y470023D01*
X252811Y470112D01*
X252790Y470200D01*
X252765Y470288D01*
X252736Y470375D01*
X252704Y470460D01*
X252669Y470544D01*
X252629Y470626D01*
X252587Y470706D01*
X252541Y470785D01*
X252491Y470861D01*
X252439Y470935D01*
X252383Y471008D01*
X252324Y471077D01*
X252263Y471144D01*
X252198Y471209D01*
X252131Y471270D01*
X252062Y471329D01*
X251989Y471385D01*
X251915Y471437D01*
X251839Y471487D01*
X251760Y471533D01*
X251680Y471575D01*
X251598Y471615D01*
X251514Y471650D01*
X251429Y471682D01*
X251342Y471711D01*
X251254Y471736D01*
X251166Y471757D01*
X251077Y471774D01*
X250986Y471788D01*
X250896Y471797D01*
X250805Y471803D01*
X250714Y471805D01*
X264952Y495935D02*
X266561Y500761D01*
X263344Y500761D02*
X264952Y495935D01*
X260624Y495935D02*
X260624Y500761D01*
X260624Y498616D02*
X257943Y498616D01*
X257943Y500761D02*
X257943Y495935D01*
X255223Y495935D02*
X253614Y500761D01*
X252005Y495935D01*
X252407Y497142D02*
X254820Y497142D01*
X249736Y495935D02*
X246519Y500761D01*
X249736Y500761D02*
X246519Y495935D01*
M02*
