G04 EAGLE Gerber RS-274X export*
G75*
%MOMM*%
%FSLAX34Y34*%
%LPD*%
%INSoldermask Bottom*%
%IPPOS*%
%AMOC8*
5,1,8,0,0,1.08239X$1,22.5*%
G01*
%ADD10C,6.301600*%
%ADD11R,1.524000X1.524000*%
%ADD12C,1.524000*%
%ADD13P,2.144431X8X112.500000*%
%ADD14C,1.981200*%
%ADD15C,3.337563*%
%ADD16C,1.151600*%
%ADD17C,0.754800*%
%ADD18R,2.133600X2.133600*%
%ADD19C,2.133600*%
%ADD20P,1.398015X8X112.500000*%
%ADD21R,0.762000X2.133600*%
%ADD22R,0.701600X0.801600*%
%ADD23R,0.700700X2.070100*%
%ADD24R,0.736600X1.371600*%
%ADD25C,0.654800*%
%ADD26C,1.501600*%


D10*
X39260Y62340D03*
X619260Y62340D03*
X619260Y552340D03*
X39260Y552340D03*
D11*
X87960Y539640D03*
D12*
X113360Y539640D03*
X138760Y539640D03*
X164160Y539640D03*
X189560Y539640D03*
X214960Y539640D03*
X87960Y565040D03*
X113360Y565040D03*
X138760Y565040D03*
X164160Y565040D03*
X189560Y565040D03*
X214960Y565040D03*
X240360Y539640D03*
X240360Y565040D03*
X265760Y539640D03*
X291160Y539640D03*
X316560Y539640D03*
X341960Y539640D03*
X367360Y539640D03*
X392760Y539640D03*
X265760Y565040D03*
X291160Y565040D03*
X316560Y565040D03*
X341960Y565040D03*
X367360Y565040D03*
X392760Y565040D03*
X418160Y539640D03*
X418160Y565040D03*
X443560Y539640D03*
X468960Y539640D03*
X494360Y539640D03*
X519760Y539640D03*
X545160Y539640D03*
X570560Y539640D03*
X443560Y565040D03*
X468960Y565040D03*
X494360Y565040D03*
X519760Y565040D03*
X545160Y565040D03*
X570560Y565040D03*
D13*
X63500Y157480D03*
X38100Y157480D03*
X63500Y182880D03*
X38100Y182880D03*
X63500Y208280D03*
X38100Y208280D03*
X63500Y233680D03*
X38100Y233680D03*
X63500Y259080D03*
X38100Y259080D03*
D14*
X27940Y325120D03*
X53340Y325120D03*
X27940Y350520D03*
X53340Y350520D03*
X27940Y375920D03*
X53340Y375920D03*
X18034Y417068D03*
X18034Y482092D03*
X63246Y417068D03*
X63246Y482092D03*
D15*
X749780Y195199D03*
X749780Y63881D03*
D14*
X436880Y340360D03*
X411480Y340360D03*
D16*
X768378Y271752D02*
X778878Y271752D01*
X778878Y357152D02*
X768378Y357152D01*
X815678Y271752D02*
X826178Y271752D01*
X826178Y357152D02*
X815678Y357152D01*
D17*
X762128Y342452D03*
X769228Y338452D03*
X769228Y330452D03*
X762128Y326452D03*
X769228Y322452D03*
X762128Y318452D03*
X762128Y310452D03*
X769228Y306452D03*
X762128Y302452D03*
X769228Y298452D03*
X769228Y290452D03*
X762128Y286452D03*
X762128Y294452D03*
X762128Y334452D03*
D14*
X783590Y386080D03*
X758190Y386080D03*
D18*
X807720Y494030D03*
D19*
X807720Y544030D03*
D20*
X753110Y488950D03*
X753110Y520950D03*
X753110Y542950D03*
X753110Y564950D03*
X702310Y564950D03*
X702310Y542950D03*
X702310Y520950D03*
X702310Y488950D03*
D14*
X97790Y504190D03*
X123190Y504190D03*
X97790Y478790D03*
X123190Y478790D03*
X97790Y453390D03*
X123190Y453390D03*
X115570Y367030D03*
X115570Y392430D03*
D21*
X294640Y425704D03*
X294640Y364236D03*
X307340Y425704D03*
X320040Y425704D03*
X307340Y364236D03*
X320040Y364236D03*
X332740Y425704D03*
X332740Y364236D03*
X345440Y425704D03*
X345440Y364236D03*
X358140Y425704D03*
X370840Y425704D03*
X358140Y364236D03*
X370840Y364236D03*
X383540Y425704D03*
X383540Y364236D03*
D22*
X368220Y344170D03*
X358220Y344170D03*
D23*
X294640Y507334D03*
X307340Y507334D03*
X320040Y507334D03*
X332740Y507334D03*
X345440Y507334D03*
X358140Y507334D03*
X370840Y507334D03*
X370840Y457866D03*
X358140Y457866D03*
X345440Y457866D03*
X332740Y457866D03*
X320040Y457866D03*
X307340Y457866D03*
X294640Y457866D03*
D14*
X406908Y412496D03*
X471932Y412496D03*
X406908Y367284D03*
X471932Y367284D03*
X266700Y440690D03*
X266700Y415290D03*
X241300Y440690D03*
X241300Y415290D03*
X215900Y440690D03*
X215900Y415290D03*
D24*
X252476Y483870D03*
X260604Y483870D03*
D25*
X711200Y381000D03*
X585470Y510540D03*
X334010Y298450D03*
X229870Y195580D03*
X412750Y160020D03*
X355600Y383540D03*
X177800Y407670D03*
X453390Y193040D03*
X538480Y285750D03*
X156210Y492760D03*
X81280Y434340D03*
X434975Y448945D03*
X455930Y339090D03*
X254000Y146050D03*
X645160Y485140D03*
X199390Y313690D03*
X617220Y128270D03*
D26*
X157480Y425450D03*
D25*
X391160Y487680D03*
X647700Y350520D03*
X461010Y246380D03*
X571500Y427990D03*
X467360Y454660D03*
X515620Y459740D03*
X488950Y111760D03*
X410210Y128270D03*
X481330Y245110D03*
X457200Y290830D03*
X452120Y281940D03*
X472440Y236220D03*
X613410Y240030D03*
X533400Y204470D03*
X751840Y354330D03*
X229870Y256540D03*
X113030Y256540D03*
X610870Y398780D03*
X510540Y256020D03*
X506730Y205740D03*
X613636Y346710D03*
X539750Y300990D03*
X613410Y293370D03*
X494030Y195580D03*
X376908Y313690D03*
X372110Y307340D03*
X487680Y190500D03*
X367030Y300990D03*
X481330Y185420D03*
X500380Y210820D03*
X500380Y341630D03*
X494030Y215900D03*
X494030Y308610D03*
X548640Y293370D03*
X207010Y142240D03*
X542290Y254000D03*
X201930Y149860D03*
X566420Y459740D03*
X566420Y513080D03*
X449580Y516890D03*
X467360Y466316D03*
X508000Y462280D03*
X477520Y433070D03*
X403860Y483870D03*
X441960Y477520D03*
X615950Y459740D03*
X523240Y464820D03*
X361950Y129540D03*
X107950Y129540D03*
X384810Y135890D03*
X113030Y135890D03*
X256540Y342900D03*
X113030Y416560D03*
X615950Y118110D03*
X350520Y97790D03*
X356870Y104140D03*
X617220Y137160D03*
X735330Y322580D03*
X231140Y275590D03*
X463550Y179070D03*
X476250Y161290D03*
X210820Y313690D03*
X474980Y180340D03*
X486410Y152400D03*
D26*
X675640Y76200D03*
D25*
X293370Y483870D03*
X283210Y464820D03*
X339090Y401320D03*
X382270Y448310D03*
X267970Y463550D03*
X292100Y473710D03*
X297180Y393700D03*
X93980Y62230D03*
X574675Y56515D03*
X746760Y161290D03*
X760730Y425450D03*
M02*
