M48
;GenerationSoftware,Autodesk,EAGLE,9.6.2*%
;CreationDate,2022-10-25T03:23:46Z*%
FMAT,2
ICI,OFF
METRIC,TZ,000.000
T10C0.200
T9C0.350
T8C0.450
T7C0.650
T6C0.850
T5C1.000
T4C1.016
T3C1.300
T2C2.311
T1C2.750
%
G90
M71
T1
X3926Y55234
X61926Y55234
X61926Y6234
X3926Y6234
T2
X74978Y6388
X74978Y19520
T3
X80772Y54403
X80772Y49403
T4
X21590Y41529
X26576Y53964
X21590Y44069
X24130Y41529
X24130Y44069
X26670Y41529
X26670Y44069
X47193Y36728
X40691Y36728
X39276Y53964
X47193Y41250
X40691Y41250
X11557Y39243
X11557Y36703
X12319Y45339
X9779Y45339
X12319Y47879
X9779Y47879
X12319Y50419
X9779Y50419
X36736Y53964
X34196Y53964
X31656Y53964
X29116Y53964
X26576Y56504
X24036Y56504
X24036Y53964
X21496Y56504
X16416Y56504
X75819Y38608
X78359Y38608
X18956Y56504
X29116Y56504
X13876Y56504
X11336Y56504
X8796Y56504
X21496Y53964
X18956Y53964
X16416Y53964
X13876Y53964
X11336Y53964
X8796Y53964
X31656Y56504
X34196Y56504
X36736Y56504
X39276Y56504
X41816Y53964
X41816Y56504
X44356Y53964
X41148Y34036
X43688Y34036
X6325Y48209
X6325Y41707
X1803Y48209
X1803Y41707
X5334Y37592
X2794Y37592
X5334Y35052
X2794Y35052
X5334Y32512
X2794Y32512
X3810Y25908
X6350Y25908
X3810Y23368
X6350Y23368
X3810Y20828
X6350Y20828
X3810Y18288
X6350Y18288
X3810Y15748
X6350Y15748
X57056Y56504
X54516Y56504
X51976Y56504
X46896Y53964
X49436Y56504
X46896Y56504
X44356Y56504
X57056Y53964
X54516Y53964
X51976Y53964
X49436Y53964
T5
X67564Y7620
X15748Y42545
T6
X75311Y48895
X75311Y52095
X75311Y54295
X75311Y56495
X70231Y56495
X70231Y54295
X70231Y52095
X70231Y48895
T7
X77363Y27175
X77363Y35715
X82093Y27175
X82093Y35715
T8
X76213Y34245
X76923Y33845
X76923Y33045
X76213Y32645
X76923Y32245
X76213Y31845
X76213Y31045
X76923Y30645
X76213Y30245
X76923Y29845
X76923Y29045
X76213Y28645
X76213Y29445
X76213Y33445
T9
X15621Y49276
X53848Y28575
X41275Y16002
X35560Y38354
X17780Y40767
X45339Y19304
X76073Y42545
X74676Y16129
X57467Y5651
X9398Y6223
X29718Y39370
X29210Y47371
X26797Y46355
X38227Y44831
X33909Y40132
X28321Y46482
X29337Y48387
X48641Y15240
X47498Y18034
X21082Y31369
X47625Y16129
X46355Y17907
X23114Y27559
X73533Y32258
X61722Y13716
X35687Y10414
X35052Y9779
X61595Y11811
X11303Y41656
X25654Y34290
X11303Y13589
X38481Y13589
X10795Y12954
X36195Y12954
X52324Y46482
X61595Y45974
X44196Y47752
X40386Y48387
X47752Y43307
X50800Y46228
X22987Y19558
X33401Y29845
X46736Y46632
X44958Y51689
X56642Y51308
X56642Y45974
X20193Y14986
X54229Y25400
X20701Y14224
X54864Y29337
X49403Y30861
X49403Y21590
X50038Y34163
X50038Y21082
X48133Y18542
X36703Y30099
X48768Y19050
X37211Y30734
X37691Y31369
X49403Y19558
X61341Y29337
X53975Y30099
X61364Y34671
X50673Y20574
X58547Y51054
X51054Y25602
X61087Y39878
X11303Y25654
X22987Y25654
X75184Y35433
X53340Y20447
X61341Y24003
X47244Y23622
X45212Y28194
X45720Y29083
X48133Y24511
X41021Y12827
X48895Y11176
X51562Y45974
X46736Y45466
X71120Y38100
X8128Y43434
X43561Y44450
X45593Y33909
X25400Y14605
X57150Y42799
X46101Y24638
X64770Y35052
X39116Y48768
X61722Y12827
X19939Y31369
X64516Y48514
T10
X51816Y42096
X51816Y43756
X52646Y42926
X50986Y42926
X51816Y42926
M30